G04*
G04 #@! TF.GenerationSoftware,Altium Limited,Altium Designer,21.9.2 (33)*
G04*
G04 Layer_Physical_Order=2*
G04 Layer_Color=16711680*
%FSLAX25Y25*%
%MOIN*%
G70*
G04*
G04 #@! TF.SameCoordinates,EC669842-0CE7-48D2-8D7E-D91009EE0951*
G04*
G04*
G04 #@! TF.FilePolarity,Positive*
G04*
G01*
G75*
%ADD10C,0.01000*%
G04:AMPARAMS|DCode=16|XSize=23.62mil|YSize=39.37mil|CornerRadius=5.91mil|HoleSize=0mil|Usage=FLASHONLY|Rotation=90.000|XOffset=0mil|YOffset=0mil|HoleType=Round|Shape=RoundedRectangle|*
%AMROUNDEDRECTD16*
21,1,0.02362,0.02756,0,0,90.0*
21,1,0.01181,0.03937,0,0,90.0*
1,1,0.01181,0.01378,0.00591*
1,1,0.01181,0.01378,-0.00591*
1,1,0.01181,-0.01378,-0.00591*
1,1,0.01181,-0.01378,0.00591*
%
%ADD16ROUNDEDRECTD16*%
%ADD23C,0.01500*%
%ADD24C,0.01800*%
G04:AMPARAMS|DCode=25|XSize=20mil|YSize=20mil|CornerRadius=5mil|HoleSize=0mil|Usage=FLASHONLY|Rotation=90.000|XOffset=0mil|YOffset=0mil|HoleType=Round|Shape=RoundedRectangle|*
%AMROUNDEDRECTD25*
21,1,0.02000,0.01000,0,0,90.0*
21,1,0.01000,0.02000,0,0,90.0*
1,1,0.01000,0.00500,0.00500*
1,1,0.01000,0.00500,-0.00500*
1,1,0.01000,-0.00500,-0.00500*
1,1,0.01000,-0.00500,0.00500*
%
%ADD25ROUNDEDRECTD25*%
G04:AMPARAMS|DCode=26|XSize=20mil|YSize=20mil|CornerRadius=5mil|HoleSize=0mil|Usage=FLASHONLY|Rotation=180.000|XOffset=0mil|YOffset=0mil|HoleType=Round|Shape=RoundedRectangle|*
%AMROUNDEDRECTD26*
21,1,0.02000,0.01000,0,0,180.0*
21,1,0.01000,0.02000,0,0,180.0*
1,1,0.01000,-0.00500,0.00500*
1,1,0.01000,0.00500,0.00500*
1,1,0.01000,0.00500,-0.00500*
1,1,0.01000,-0.00500,-0.00500*
%
%ADD26ROUNDEDRECTD26*%
G04:AMPARAMS|DCode=27|XSize=23.62mil|YSize=35mil|CornerRadius=5.91mil|HoleSize=0mil|Usage=FLASHONLY|Rotation=270.000|XOffset=0mil|YOffset=0mil|HoleType=Round|Shape=RoundedRectangle|*
%AMROUNDEDRECTD27*
21,1,0.02362,0.02319,0,0,270.0*
21,1,0.01181,0.03500,0,0,270.0*
1,1,0.01181,-0.01159,-0.00591*
1,1,0.01181,-0.01159,0.00591*
1,1,0.01181,0.01159,0.00591*
1,1,0.01181,0.01159,-0.00591*
%
%ADD27ROUNDEDRECTD27*%
G04:AMPARAMS|DCode=28|XSize=27.56mil|YSize=51.18mil|CornerRadius=6.89mil|HoleSize=0mil|Usage=FLASHONLY|Rotation=180.000|XOffset=0mil|YOffset=0mil|HoleType=Round|Shape=RoundedRectangle|*
%AMROUNDEDRECTD28*
21,1,0.02756,0.03740,0,0,180.0*
21,1,0.01378,0.05118,0,0,180.0*
1,1,0.01378,-0.00689,0.01870*
1,1,0.01378,0.00689,0.01870*
1,1,0.01378,0.00689,-0.01870*
1,1,0.01378,-0.00689,-0.01870*
%
%ADD28ROUNDEDRECTD28*%
G04:AMPARAMS|DCode=29|XSize=23.62mil|YSize=39.37mil|CornerRadius=5.91mil|HoleSize=0mil|Usage=FLASHONLY|Rotation=0.000|XOffset=0mil|YOffset=0mil|HoleType=Round|Shape=RoundedRectangle|*
%AMROUNDEDRECTD29*
21,1,0.02362,0.02756,0,0,0.0*
21,1,0.01181,0.03937,0,0,0.0*
1,1,0.01181,0.00591,-0.01378*
1,1,0.01181,-0.00591,-0.01378*
1,1,0.01181,-0.00591,0.01378*
1,1,0.01181,0.00591,0.01378*
%
%ADD29ROUNDEDRECTD29*%
G04:AMPARAMS|DCode=30|XSize=31.5mil|YSize=55mil|CornerRadius=7.87mil|HoleSize=0mil|Usage=FLASHONLY|Rotation=90.000|XOffset=0mil|YOffset=0mil|HoleType=Round|Shape=RoundedRectangle|*
%AMROUNDEDRECTD30*
21,1,0.03150,0.03925,0,0,90.0*
21,1,0.01575,0.05500,0,0,90.0*
1,1,0.01575,0.01963,0.00787*
1,1,0.01575,0.01963,-0.00787*
1,1,0.01575,-0.01963,-0.00787*
1,1,0.01575,-0.01963,0.00787*
%
%ADD30ROUNDEDRECTD30*%
G36*
X11797Y38635D02*
Y38629D01*
X12581Y38526D01*
X13311Y38223D01*
X13939Y37742D01*
X14420Y37114D01*
X14723Y36384D01*
X14826Y35600D01*
X14837D01*
Y-14000D01*
X14824D01*
X14728Y-14731D01*
X14446Y-15412D01*
X13997Y-15997D01*
X13412Y-16446D01*
X12731Y-16728D01*
X12000Y-16824D01*
Y-16837D01*
X3291D01*
X3023Y-16337D01*
X3081Y-16251D01*
X3173Y-15787D01*
Y-14213D01*
X3081Y-13749D01*
X3316Y-13356D01*
X3482Y-13187D01*
X3571Y-13205D01*
X4949D01*
X5374Y-13120D01*
X5734Y-12880D01*
X5827Y-12878D01*
X5859Y-12880D01*
X6328Y-13348D01*
Y-14300D01*
X6417Y-14749D01*
X6671Y-15129D01*
X6970Y-15429D01*
X7098Y-15736D01*
X7464Y-16102D01*
X7941Y-16300D01*
X8459D01*
X8936Y-16102D01*
X9302Y-15736D01*
X9500Y-15259D01*
Y-14741D01*
X9302Y-14264D01*
X8936Y-13898D01*
X8672Y-13789D01*
Y-13325D01*
X8674Y-13323D01*
X8672Y-13315D01*
Y-13293D01*
X8680Y-13280D01*
X8711Y-13260D01*
X8763Y-13235D01*
X8836Y-13208D01*
X8928Y-13182D01*
X9049Y-13155D01*
X9090Y-13125D01*
X9114Y-13120D01*
X9174Y-13080D01*
X9237Y-13059D01*
X9253Y-13027D01*
X9474Y-12880D01*
X9591Y-12704D01*
X10149D01*
X10266Y-12880D01*
X10626Y-13120D01*
X11051Y-13205D01*
X12429D01*
X12854Y-13120D01*
X13214Y-12880D01*
X13455Y-12519D01*
X13539Y-12094D01*
Y-9405D01*
X13600Y-9259D01*
Y-8741D01*
X13539Y-8595D01*
Y-8354D01*
X13455Y-7929D01*
X13214Y-7569D01*
X12854Y-7328D01*
X12429Y-7244D01*
X11051D01*
X10626Y-7328D01*
X10266Y-7569D01*
X10149Y-7745D01*
X9591D01*
X9474Y-7569D01*
X9114Y-7328D01*
X8689Y-7244D01*
X7311D01*
X6886Y-7328D01*
X6526Y-7569D01*
X6409Y-7745D01*
X5851D01*
X5734Y-7569D01*
X5374Y-7328D01*
X4949Y-7244D01*
X3571D01*
X3146Y-7328D01*
X2786Y-7569D01*
X2545Y-7929D01*
X2461Y-8354D01*
Y-9975D01*
X2439Y-10054D01*
X2461Y-10216D01*
Y-10609D01*
X2443Y-10711D01*
X2418Y-10801D01*
X2387Y-10881D01*
X2350Y-10951D01*
X2306Y-11013D01*
X2239Y-11090D01*
X2231Y-11110D01*
X577Y-12765D01*
X560Y-12770D01*
X557Y-12776D01*
X550Y-12778D01*
X484Y-12836D01*
X430Y-12873D01*
X364Y-12907D01*
X284Y-12938D01*
X189Y-12965D01*
X79Y-12987D01*
X-41Y-13002D01*
X-56Y-13002D01*
X-515D01*
X-522Y-13002D01*
X-523Y-13002D01*
X-1963D01*
X-2426Y-13094D01*
X-2819Y-13356D01*
X-2888Y-13460D01*
X-3317Y-13249D01*
X-3227Y-12800D01*
Y-11837D01*
X-3113Y-11794D01*
X-2727Y-11754D01*
X-2565Y-11998D01*
X-2237Y-12217D01*
X-1850Y-12293D01*
X-669D01*
X-283Y-12217D01*
X45Y-11998D01*
X264Y-11670D01*
X341Y-11283D01*
Y-8528D01*
X264Y-8141D01*
X45Y-7813D01*
X-283Y-7594D01*
X-669Y-7518D01*
X-1752D01*
X-1911Y-7282D01*
X-1974Y-7032D01*
X-1014Y-6072D01*
X-365D01*
X84Y-5983D01*
X465Y-5729D01*
X2765Y-3429D01*
X2786Y-3431D01*
X3146Y-3672D01*
X3571Y-3756D01*
X4949D01*
X5374Y-3672D01*
X5734Y-3431D01*
X5975Y-3071D01*
X6059Y-2646D01*
Y1094D01*
X5975Y1519D01*
X5734Y1880D01*
X5374Y2120D01*
X5161Y2162D01*
X5154Y2659D01*
X5540Y2736D01*
X5868Y2955D01*
X5956Y3087D01*
X7896D01*
X7949Y3052D01*
X8300Y2982D01*
X9300D01*
X9651Y3052D01*
X9949Y3251D01*
X10148Y3549D01*
X10218Y3900D01*
Y4900D01*
X10148Y5251D01*
X9949Y5549D01*
X9772Y5667D01*
Y7033D01*
X9949Y7151D01*
X10148Y7449D01*
X10218Y7800D01*
Y8800D01*
X10148Y9151D01*
X9949Y9449D01*
X9651Y9648D01*
X9300Y9718D01*
X8300D01*
X7949Y9648D01*
X7651Y9449D01*
X7452Y9151D01*
X7382Y8800D01*
Y7800D01*
X7428Y7573D01*
Y5432D01*
X5956D01*
X5868Y5565D01*
X5540Y5784D01*
X5154Y5860D01*
X2835D01*
X2448Y5784D01*
X2121Y5565D01*
X2033Y5432D01*
X1760D01*
X1311Y5343D01*
X931Y5089D01*
X-629Y3529D01*
X-883Y3149D01*
X-972Y2700D01*
Y586D01*
X-3886Y-2327D01*
X-11508D01*
X-11528Y-2318D01*
X-11679Y-2097D01*
X-11689Y-2057D01*
X-11721Y-2037D01*
X-11789Y-1938D01*
X-11792Y-1927D01*
X-11793Y-1922D01*
X-11796Y-1914D01*
X-11800Y-1900D01*
X-11803Y-1878D01*
X-11816Y-1698D01*
X-11817Y-1625D01*
X-11828Y-1601D01*
Y-1486D01*
X-11483Y-1141D01*
X-11460Y-1132D01*
X-11406Y-1083D01*
X-11365Y-1049D01*
X-11323Y-1020D01*
X-11281Y-996D01*
X-11239Y-976D01*
X-11196Y-960D01*
X-11151Y-948D01*
X-11104Y-938D01*
X-11054Y-933D01*
X-10984Y-930D01*
X-10923Y-902D01*
X-10649Y-848D01*
X-10351Y-649D01*
X-10152Y-351D01*
X-10082Y0D01*
X-10041D01*
X-9564Y198D01*
X-9198Y564D01*
X-9000Y1041D01*
Y1559D01*
X-9198Y2036D01*
X-9564Y2402D01*
X-10041Y2600D01*
X-10559D01*
X-11020Y2409D01*
X-11149Y2383D01*
X-11529Y2129D01*
X-11741Y1918D01*
X-12000D01*
X-12351Y1848D01*
X-12649Y1649D01*
X-12848Y1351D01*
X-12902Y1077D01*
X-12930Y1016D01*
X-12933Y946D01*
X-12938Y896D01*
X-12948Y849D01*
X-12960Y804D01*
X-12976Y761D01*
X-12996Y719D01*
X-13020Y677D01*
X-13049Y636D01*
X-13083Y593D01*
X-13132Y540D01*
X-13141Y517D01*
X-13829Y-171D01*
X-14083Y-551D01*
X-14173Y-1000D01*
Y-1596D01*
X-14183Y-1619D01*
X-14185Y-1716D01*
X-14337Y-1879D01*
X-14407Y-1876D01*
X-14830Y-1643D01*
X-14837Y-1632D01*
Y35800D01*
X-14824D01*
X-14728Y36531D01*
X-14446Y37212D01*
X-13997Y37797D01*
X-13412Y38246D01*
X-12731Y38528D01*
X-12000Y38624D01*
Y38637D01*
X11794D01*
X11797Y38635D01*
D02*
G37*
G36*
X-11000Y-498D02*
X-11086Y-501D01*
X-11170Y-510D01*
X-11252Y-526D01*
X-11331Y-549D01*
X-11407Y-577D01*
X-11482Y-612D01*
X-11553Y-654D01*
X-11623Y-701D01*
X-11690Y-755D01*
X-11755Y-816D01*
X-12816Y245D01*
X-12755Y310D01*
X-12701Y377D01*
X-12653Y446D01*
X-12612Y518D01*
X-12577Y593D01*
X-12549Y669D01*
X-12526Y748D01*
X-12510Y830D01*
X-12501Y914D01*
X-12498Y1000D01*
X-11000Y-498D01*
D02*
G37*
G36*
X-12249Y-1716D02*
X-12234Y-1929D01*
X-12224Y-1985D01*
X-12213Y-2033D01*
X-12200Y-2073D01*
X-12185Y-2106D01*
X-12167Y-2131D01*
X-12148Y-2148D01*
X-13852D01*
X-13833Y-2131D01*
X-13815Y-2106D01*
X-13800Y-2073D01*
X-13787Y-2033D01*
X-13776Y-1985D01*
X-13766Y-1929D01*
X-13754Y-1795D01*
X-13750Y-1630D01*
X-12250D01*
X-12249Y-1716D01*
D02*
G37*
G36*
X2933Y-2910D02*
X2922Y-2874D01*
X2906Y-2848D01*
X2884Y-2833D01*
X2856Y-2829D01*
X2823Y-2835D01*
X2784Y-2851D01*
X2740Y-2878D01*
X2690Y-2916D01*
X2635Y-2964D01*
X2574Y-3022D01*
X2562Y-912D01*
X2627Y-837D01*
X2685Y-747D01*
X2736Y-644D01*
X2780Y-527D01*
X2816Y-396D01*
X2846Y-252D01*
X2868Y-93D01*
X2892Y266D01*
X2893Y466D01*
X2933Y-2910D01*
D02*
G37*
G36*
X-12020Y-2393D02*
X-11993Y-2468D01*
X-11960Y-2534D01*
X-11920Y-2592D01*
X-11875Y-2640D01*
X-11823Y-2679D01*
X-11765Y-2710D01*
X-11700Y-2732D01*
X-11629Y-2746D01*
X-11552Y-2750D01*
Y-4250D01*
X-11774Y-4247D01*
X-12121Y-4224D01*
X-12246Y-4203D01*
X-12337Y-4177D01*
X-12397Y-4146D01*
X-12424Y-4108D01*
X-12418Y-4064D01*
X-12380Y-4015D01*
X-12310Y-3960D01*
X-12040Y-2310D01*
X-12020Y-2393D01*
D02*
G37*
G36*
X-6009Y-6800D02*
X-6047Y-6803D01*
X-6089Y-6814D01*
X-6135Y-6832D01*
X-6184Y-6857D01*
X-6237Y-6890D01*
X-6294Y-6930D01*
X-6418Y-7033D01*
X-6486Y-7095D01*
X-6557Y-7164D01*
X-7265Y-6457D01*
X-7195Y-6386D01*
X-7030Y-6194D01*
X-6990Y-6137D01*
X-6957Y-6084D01*
X-6932Y-6035D01*
X-6914Y-5989D01*
X-6903Y-5947D01*
X-6900Y-5909D01*
X-6009Y-6800D01*
D02*
G37*
G36*
X-12075Y-6655D02*
X-12117Y-6731D01*
X-12140Y-6812D01*
X-12145Y-6897D01*
X-12132Y-6987D01*
X-12101Y-7081D01*
X-12051Y-7180D01*
X-11982Y-7283D01*
X-11895Y-7390D01*
X-11790Y-7503D01*
X-12497Y-8210D01*
X-12609Y-8105D01*
X-12717Y-8018D01*
X-12820Y-7949D01*
X-12919Y-7899D01*
X-13013Y-7868D01*
X-13103Y-7855D01*
X-13188Y-7860D01*
X-13269Y-7883D01*
X-13345Y-7925D01*
X-13417Y-7986D01*
X-12014Y-6583D01*
X-12075Y-6655D01*
D02*
G37*
G36*
X-7429Y-8036D02*
X-7468Y-8077D01*
X-7559Y-8180D01*
X-7579Y-8208D01*
X-7594Y-8233D01*
X-7604Y-8255D01*
X-7609Y-8274D01*
X-7609Y-8289D01*
X-7605Y-8302D01*
X-9331Y-7938D01*
X-9217Y-7936D01*
X-9013Y-7919D01*
X-8922Y-7904D01*
X-8838Y-7885D01*
X-8762Y-7861D01*
X-8694Y-7834D01*
X-8632Y-7802D01*
X-8579Y-7766D01*
X-8533Y-7726D01*
X-7429Y-8036D01*
D02*
G37*
G36*
X-9909Y-10485D02*
X-9910Y-10470D01*
X-9916Y-10457D01*
X-9925Y-10445D01*
X-9938Y-10434D01*
X-9955Y-10425D01*
X-9975Y-10418D01*
X-10000Y-10413D01*
X-10028Y-10409D01*
X-10059Y-10406D01*
X-10095Y-10406D01*
Y-9405D01*
X-10059Y-9405D01*
X-10028Y-9402D01*
X-10000Y-9398D01*
X-9975Y-9393D01*
X-9955Y-9386D01*
X-9938Y-9377D01*
X-9925Y-9366D01*
X-9916Y-9354D01*
X-9910Y-9341D01*
X-9909Y-9326D01*
Y-10485D01*
D02*
G37*
G36*
X3307Y-12732D02*
X3306Y-12737D01*
X3299Y-12748D01*
X3285Y-12765D01*
X3238Y-12817D01*
X3007Y-13054D01*
X2562Y-11377D01*
X2647Y-11281D01*
X2720Y-11176D01*
X2781Y-11062D01*
X2829Y-10938D01*
X2866Y-10805D01*
X2891Y-10662D01*
X2903Y-10510D01*
X2904Y-10349D01*
X2892Y-10178D01*
X2869Y-9998D01*
X3307Y-12732D01*
D02*
G37*
G36*
X6823Y-12583D02*
X8953Y-12732D01*
X8820Y-12762D01*
X8700Y-12797D01*
X8595Y-12836D01*
X8503Y-12880D01*
X8426Y-12928D01*
X8363Y-12980D01*
X8313Y-13037D01*
X8278Y-13099D01*
X8257Y-13164D01*
X8250Y-13235D01*
X6750Y-12923D01*
X6751Y-12850D01*
X6762Y-12682D01*
X6768Y-12643D01*
X6776Y-12614D01*
X6786Y-12593D01*
X6797Y-12581D01*
X6809Y-12577D01*
X6823Y-12583D01*
D02*
G37*
G36*
X2771Y-13289D02*
X2716Y-13346D01*
X2589Y-13489D01*
X2561Y-13528D01*
X2540Y-13562D01*
X2525Y-13592D01*
X2517Y-13617D01*
X2516Y-13638D01*
X2522Y-13654D01*
X-543Y-13434D01*
X-353Y-13443D01*
X-8Y-13434D01*
X147Y-13415D01*
X291Y-13386D01*
X423Y-13349D01*
X543Y-13302D01*
X652Y-13245D01*
X750Y-13179D01*
X836Y-13104D01*
X2771Y-13289D01*
D02*
G37*
G36*
X-7290Y-13975D02*
X-7265Y-14032D01*
X-7233Y-14083D01*
X-7193Y-14128D01*
X-7146Y-14165D01*
X-7091Y-14196D01*
X-7029Y-14219D01*
X-6959Y-14236D01*
X-6882Y-14247D01*
X-6797Y-14250D01*
Y-15750D01*
X-6882Y-15753D01*
X-6959Y-15764D01*
X-7029Y-15781D01*
X-7091Y-15804D01*
X-7146Y-15835D01*
X-7193Y-15872D01*
X-7233Y-15917D01*
X-7265Y-15968D01*
X-7290Y-16025D01*
X-7307Y-16090D01*
Y-13910D01*
X-7290Y-13975D01*
D02*
G37*
%LPC*%
G36*
X10078Y36301D02*
X7322D01*
X6936Y36224D01*
X6608Y36005D01*
X6389Y35678D01*
X6312Y35291D01*
Y34110D01*
X6389Y33724D01*
X6608Y33396D01*
X6936Y33177D01*
X7322Y33100D01*
X10078D01*
X10464Y33177D01*
X10792Y33396D01*
X11011Y33724D01*
X11088Y34110D01*
Y35291D01*
X11011Y35678D01*
X10792Y36005D01*
X10464Y36224D01*
X10078Y36301D01*
D02*
G37*
G36*
X3078D02*
X322D01*
X-64Y36224D01*
X-392Y36005D01*
X-611Y35678D01*
X-688Y35291D01*
Y34110D01*
X-611Y33724D01*
X-392Y33396D01*
X-64Y33177D01*
X322Y33100D01*
X3078D01*
X3464Y33177D01*
X3792Y33396D01*
X4011Y33724D01*
X4088Y34110D01*
Y35291D01*
X4011Y35678D01*
X3792Y36005D01*
X3464Y36224D01*
X3078Y36301D01*
D02*
G37*
G36*
X5154Y13341D02*
X2835D01*
X2448Y13264D01*
X2121Y13045D01*
X1902Y12717D01*
X1825Y12331D01*
Y11150D01*
X1902Y10763D01*
X2121Y10435D01*
X2448Y10216D01*
X2835Y10140D01*
X5154D01*
X5540Y10216D01*
X5868Y10435D01*
X5943Y10547D01*
X6092Y10557D01*
X6165Y10557D01*
X6190Y10568D01*
X6522D01*
X6545Y10557D01*
X6621Y10556D01*
X6675Y10552D01*
X6706Y10548D01*
X6713Y10526D01*
X6790Y10487D01*
X6846Y10423D01*
X6932Y10417D01*
X7010Y10378D01*
X7091Y10405D01*
X7176Y10398D01*
X7242Y10455D01*
X7324Y10483D01*
X7362Y10559D01*
X7372Y10568D01*
X7760D01*
X7888Y10593D01*
X7949Y10552D01*
X8300Y10482D01*
X9300D01*
X9651Y10552D01*
X9949Y10751D01*
X10148Y11049D01*
X10218Y11400D01*
Y12400D01*
X10148Y12751D01*
X9949Y13049D01*
X9651Y13248D01*
X9300Y13318D01*
X8300D01*
X7949Y13248D01*
X7651Y13049D01*
X7560Y12913D01*
X7169D01*
X7162Y12916D01*
X7110Y12920D01*
X7097Y12916D01*
X7085Y12922D01*
X7022Y12923D01*
X6996Y12913D01*
X6193D01*
X6169Y12923D01*
X6017Y12925D01*
X5945Y12930D01*
X5868Y13045D01*
X5540Y13264D01*
X5154Y13341D01*
D02*
G37*
G36*
X-7400Y16318D02*
X-8400D01*
X-8751Y16248D01*
X-9049Y16049D01*
X-9248Y15751D01*
X-9318Y15400D01*
Y14400D01*
X-9248Y14049D01*
X-9200Y13977D01*
Y13841D01*
X-9002Y13364D01*
X-9279Y13045D01*
X-9498Y12717D01*
X-9575Y12331D01*
Y11150D01*
X-9498Y10763D01*
X-9279Y10435D01*
X-8951Y10216D01*
X-8565Y10140D01*
X-6246D01*
X-5860Y10216D01*
X-5532Y10435D01*
X-4916Y10458D01*
X-3073Y8614D01*
Y6186D01*
X-3826Y5432D01*
X-5207D01*
X-5231Y5443D01*
X-5383Y5445D01*
X-5455Y5450D01*
X-5532Y5565D01*
X-5860Y5784D01*
X-6246Y5860D01*
X-8565D01*
X-8951Y5784D01*
X-9279Y5565D01*
X-9498Y5237D01*
X-9575Y4850D01*
Y3669D01*
X-9498Y3283D01*
X-9279Y2955D01*
X-8951Y2736D01*
X-8565Y2659D01*
X-6246D01*
X-5860Y2736D01*
X-5532Y2955D01*
X-5457Y3067D01*
X-5308Y3076D01*
X-5235Y3077D01*
X-5210Y3087D01*
X-3340D01*
X-2891Y3177D01*
X-2511Y3431D01*
X-1071Y4871D01*
X-817Y5251D01*
X-728Y5700D01*
Y9100D01*
X-817Y9549D01*
X-1071Y9929D01*
X-4271Y13129D01*
X-4651Y13383D01*
X-5100Y13473D01*
X-5334D01*
X-5641Y13600D01*
X-6159D01*
X-6159Y13600D01*
X-6255Y13652D01*
X-6552Y14049D01*
X-6482Y14400D01*
Y15400D01*
X-6552Y15751D01*
X-6751Y16049D01*
X-7049Y16248D01*
X-7400Y16318D01*
D02*
G37*
G36*
X-11000Y8918D02*
X-12000D01*
X-12351Y8848D01*
X-12649Y8649D01*
X-12848Y8351D01*
X-12918Y8000D01*
Y7000D01*
X-12848Y6649D01*
X-12711Y6444D01*
X-12711Y6438D01*
X-12708Y6427D01*
X-12708Y6423D01*
X-12704Y6414D01*
X-12700Y6400D01*
X-12697Y6378D01*
X-12684Y6198D01*
X-12683Y6125D01*
X-12673Y6101D01*
Y5904D01*
X-12683Y5881D01*
X-12686Y5730D01*
X-12696Y5626D01*
X-12700Y5600D01*
X-12704Y5586D01*
X-12708Y5578D01*
X-12708Y5573D01*
X-12711Y5562D01*
X-12711Y5556D01*
X-12848Y5351D01*
X-12889Y5146D01*
X-13236Y5002D01*
X-13602Y4636D01*
X-13800Y4159D01*
Y3641D01*
X-13602Y3164D01*
X-13236Y2798D01*
X-12759Y2600D01*
X-12241D01*
X-11764Y2798D01*
X-11479Y3082D01*
X-11000D01*
X-10649Y3152D01*
X-10351Y3351D01*
X-10152Y3649D01*
X-10082Y4000D01*
Y5000D01*
X-10152Y5351D01*
X-10289Y5556D01*
X-10289Y5562D01*
X-10292Y5573D01*
X-10293Y5578D01*
X-10296Y5586D01*
X-10300Y5600D01*
X-10303Y5622D01*
X-10316Y5802D01*
X-10317Y5875D01*
X-10328Y5899D01*
Y6096D01*
X-10317Y6119D01*
X-10313Y6270D01*
X-10304Y6374D01*
X-10300Y6400D01*
X-10296Y6414D01*
X-10293Y6423D01*
X-10292Y6427D01*
X-10289Y6438D01*
X-10289Y6444D01*
X-10152Y6649D01*
X-10082Y7000D01*
Y8000D01*
X-10152Y8351D01*
X-10351Y8649D01*
X-10649Y8848D01*
X-11000Y8918D01*
D02*
G37*
G36*
X12429Y2205D02*
X11051D01*
X10626Y2120D01*
X10266Y1880D01*
X10025Y1519D01*
X9941Y1094D01*
Y-2531D01*
X9886Y-2594D01*
X9854Y-2627D01*
X9844Y-2651D01*
X9821Y-2664D01*
X9815Y-2688D01*
X7920Y-4582D01*
X6930D01*
X6894Y-4567D01*
X6801Y-4566D01*
X6727Y-4563D01*
X6594Y-4550D01*
X6554Y-4543D01*
X6523Y-4536D01*
X6507Y-4530D01*
X6493Y-4522D01*
X6486Y-4521D01*
X6481Y-4519D01*
X6472Y-4519D01*
X6455Y-4517D01*
X6336Y-4398D01*
X5859Y-4200D01*
X5341D01*
X4864Y-4398D01*
X4498Y-4764D01*
X4300Y-5241D01*
Y-5759D01*
X4498Y-6236D01*
X4864Y-6602D01*
X5341Y-6800D01*
X5859D01*
X6336Y-6602D01*
X6455Y-6483D01*
X6472Y-6481D01*
X6481Y-6481D01*
X6486Y-6479D01*
X6493Y-6477D01*
X6507Y-6470D01*
X6523Y-6464D01*
X6554Y-6457D01*
X6589Y-6451D01*
X6808Y-6434D01*
X6894Y-6433D01*
X6930Y-6418D01*
X8300D01*
X8651Y-6348D01*
X8949Y-6149D01*
X11219Y-3879D01*
X11252Y-3867D01*
X11326Y-3799D01*
X11382Y-3756D01*
X12429D01*
X12854Y-3672D01*
X13214Y-3431D01*
X13455Y-3071D01*
X13539Y-2646D01*
Y1094D01*
X13455Y1519D01*
X13214Y1880D01*
X12854Y2120D01*
X12429Y2205D01*
D02*
G37*
%LPD*%
G36*
X5706Y12544D02*
X5722Y12533D01*
X5746Y12523D01*
X5779Y12514D01*
X5821Y12507D01*
X5872Y12501D01*
X6000Y12493D01*
X6162Y12490D01*
Y10990D01*
X6076Y10989D01*
X5821Y10974D01*
X5779Y10966D01*
X5746Y10958D01*
X5722Y10948D01*
X5706Y10937D01*
X5699Y10924D01*
Y12556D01*
X5706Y12544D01*
D02*
G37*
G36*
X7076Y12489D02*
X7128Y12485D01*
X7169Y12478D01*
X7199Y12468D01*
X7218Y12456D01*
X7226Y12440D01*
X7223Y12422D01*
X7209Y12402D01*
X7184Y12378D01*
X7148Y12352D01*
X7040Y10810D01*
X7029Y10844D01*
X7009Y10875D01*
X6982Y10902D01*
X6945Y10925D01*
X6901Y10945D01*
X6848Y10961D01*
X6787Y10974D01*
X6718Y10983D01*
X6640Y10988D01*
X6554Y10990D01*
X7013Y12490D01*
X7076Y12489D01*
D02*
G37*
G36*
X-5694Y5063D02*
X-5678Y5052D01*
X-5654Y5042D01*
X-5621Y5034D01*
X-5579Y5026D01*
X-5528Y5020D01*
X-5400Y5012D01*
X-5238Y5010D01*
Y3510D01*
X-5324Y3509D01*
X-5579Y3493D01*
X-5621Y3486D01*
X-5654Y3477D01*
X-5678Y3467D01*
X-5694Y3456D01*
X-5701Y3444D01*
Y5076D01*
X-5694Y5063D01*
D02*
G37*
G36*
X-10667Y6631D02*
X-10685Y6606D01*
X-10700Y6573D01*
X-10713Y6533D01*
X-10724Y6485D01*
X-10734Y6429D01*
X-10746Y6295D01*
X-10750Y6130D01*
X-12250D01*
X-12251Y6216D01*
X-12266Y6429D01*
X-12275Y6485D01*
X-12287Y6533D01*
X-12300Y6573D01*
X-12315Y6606D01*
X-12332Y6631D01*
X-12352Y6648D01*
X-10648D01*
X-10667Y6631D01*
D02*
G37*
G36*
X-10749Y5784D02*
X-10734Y5571D01*
X-10724Y5515D01*
X-10713Y5467D01*
X-10700Y5427D01*
X-10685Y5394D01*
X-10667Y5369D01*
X-10648Y5352D01*
X-12352D01*
X-12332Y5369D01*
X-12315Y5394D01*
X-12300Y5427D01*
X-12287Y5467D01*
X-12275Y5515D01*
X-12266Y5571D01*
X-12254Y5705D01*
X-12250Y5870D01*
X-10750D01*
X-10749Y5784D01*
D02*
G37*
G36*
X11878Y-3324D02*
X11783Y-3288D01*
X11688Y-3264D01*
X11594Y-3254D01*
X11501Y-3257D01*
X11408Y-3273D01*
X11317Y-3302D01*
X11226Y-3343D01*
X11136Y-3399D01*
X11047Y-3467D01*
X10959Y-3548D01*
X10163Y-2930D01*
X10203Y-2889D01*
X10297Y-2782D01*
X10319Y-2753D01*
X10336Y-2726D01*
X10349Y-2702D01*
X10358Y-2680D01*
X10362Y-2661D01*
X10361Y-2646D01*
X11878Y-3324D01*
D02*
G37*
G36*
X6272Y-4895D02*
X6309Y-4917D01*
X6354Y-4936D01*
X6407Y-4953D01*
X6468Y-4967D01*
X6536Y-4979D01*
X6697Y-4995D01*
X6789Y-4999D01*
X6888Y-5000D01*
Y-6000D01*
X6789Y-6001D01*
X6536Y-6021D01*
X6468Y-6033D01*
X6407Y-6047D01*
X6354Y-6064D01*
X6309Y-6083D01*
X6272Y-6105D01*
X6243Y-6130D01*
Y-4870D01*
X6272Y-4895D01*
D02*
G37*
D10*
X-10600Y34800D02*
X-5701D01*
X-5700Y34801D01*
X-8740Y-9905D02*
Y-8640D01*
X-6000Y-5900D01*
X8300Y-5500D02*
X11240Y-2560D01*
X5600Y-5500D02*
X8300D01*
X11240Y-2560D02*
Y-776D01*
X-13000Y-7000D02*
X-10095Y-9905D01*
X-8740D01*
D16*
X1700Y34701D02*
D03*
X8700D02*
D03*
X-5700Y34801D02*
D03*
D23*
X1760Y4260D02*
X4100D01*
X8600D01*
Y8420D01*
X-11500Y500D02*
X-10700Y1300D01*
X-10300D01*
X-5100Y12300D02*
X-1900Y9100D01*
X-5900Y12300D02*
X-5100D01*
X-1900Y5700D02*
Y9100D01*
X-7406Y4260D02*
X-3340D01*
X-1900Y5700D01*
X-11500Y4500D02*
Y7500D01*
X-13000Y-1000D02*
X-11500Y500D01*
X-13000Y-3000D02*
Y-1000D01*
Y-3000D02*
X-12500Y-3500D01*
X-3400D01*
X200Y100D01*
Y2700D01*
X1760Y4260D01*
X3994Y11740D02*
X7760D01*
X7500Y-14300D02*
X8200Y-15000D01*
X7500Y-14300D02*
Y-10224D01*
X-4400Y-7800D02*
X-1500Y-4900D01*
X-6600Y-15000D02*
X-4400Y-12800D01*
Y-7800D01*
X-1500Y-4900D02*
X-365D01*
X3760Y-776D01*
X-10000Y-15000D02*
X-6600D01*
X0D02*
X3760Y-11240D01*
Y-10224D01*
D24*
X-100Y11200D02*
D03*
X-10300Y34900D02*
D03*
X8700Y34701D02*
D03*
X1700Y34700D02*
D03*
X4100Y7300D02*
D03*
X-10300Y1300D02*
D03*
X-12500Y3900D02*
D03*
X2700Y-5700D02*
D03*
X4800Y-15500D02*
D03*
X-10500Y13000D02*
D03*
X-12900D02*
D03*
X1600Y8400D02*
D03*
X-5900Y-1100D02*
D03*
X-4100Y1700D02*
D03*
X-5000Y7400D02*
D03*
X4100Y4200D02*
D03*
X-6000Y-5900D02*
D03*
X8200Y-15000D02*
D03*
X5600Y-5500D02*
D03*
X12300Y-9000D02*
D03*
X-1500Y-10800D02*
D03*
X-7900Y14100D02*
D03*
X-5900Y12300D02*
D03*
D25*
X8800Y8300D02*
D03*
X12800D02*
D03*
X8800Y4400D02*
D03*
X12800D02*
D03*
Y11900D02*
D03*
X8800D02*
D03*
X-11900Y14900D02*
D03*
X-7900D02*
D03*
D26*
X-11500Y7500D02*
D03*
Y11500D02*
D03*
X-13000Y-7000D02*
D03*
Y-3000D02*
D03*
X-11500Y4500D02*
D03*
Y500D02*
D03*
D27*
X-7406Y11740D02*
D03*
Y8000D02*
D03*
Y4260D02*
D03*
X3994D02*
D03*
Y11740D02*
D03*
D28*
X4260Y-776D02*
D03*
X8000D02*
D03*
X11740D02*
D03*
Y-10224D02*
D03*
X8000D02*
D03*
X4260D02*
D03*
D29*
X-5000Y-94D02*
D03*
X-8740Y-9905D02*
D03*
X-1260D02*
D03*
D30*
X-10000Y-15000D02*
D03*
X0D02*
D03*
M02*
