G04*
G04 #@! TF.GenerationSoftware,Altium Limited,Altium Designer,21.9.2 (33)*
G04*
G04 Layer_Color=8388736*
%FSLAX25Y25*%
%MOIN*%
G70*
G04*
G04 #@! TF.SameCoordinates,EC669842-0CE7-48D2-8D7E-D91009EE0951*
G04*
G04*
G04 #@! TF.FilePolarity,Negative*
G04*
G01*
G75*
%ADD17R,0.09055X0.09055*%
%ADD18R,0.01575X0.05315*%
%ADD19O,0.06506X0.01978*%
G04:AMPARAMS|DCode=20|XSize=29.62mil|YSize=45.37mil|CornerRadius=8.91mil|HoleSize=0mil|Usage=FLASHONLY|Rotation=90.000|XOffset=0mil|YOffset=0mil|HoleType=Round|Shape=RoundedRectangle|*
%AMROUNDEDRECTD20*
21,1,0.02962,0.02756,0,0,90.0*
21,1,0.01181,0.04537,0,0,90.0*
1,1,0.01781,0.01378,0.00591*
1,1,0.01781,0.01378,-0.00591*
1,1,0.01781,-0.01378,-0.00591*
1,1,0.01781,-0.01378,0.00591*
%
%ADD20ROUNDEDRECTD20*%
D17*
X-10433Y27470D02*
D03*
X10433D02*
D03*
D18*
X2952Y17529D02*
D03*
X984D02*
D03*
X-985D02*
D03*
X-2953D02*
D03*
D19*
X11024Y-11516D02*
D03*
Y-8957D02*
D03*
Y-6398D02*
D03*
Y-3839D02*
D03*
Y-1280D02*
D03*
Y1280D02*
D03*
Y3839D02*
D03*
Y6398D02*
D03*
Y8957D02*
D03*
Y11516D02*
D03*
X-11024Y-11516D02*
D03*
Y-8957D02*
D03*
Y-6398D02*
D03*
Y-3839D02*
D03*
Y-1280D02*
D03*
Y1280D02*
D03*
Y3839D02*
D03*
Y6398D02*
D03*
Y8957D02*
D03*
Y11516D02*
D03*
D20*
X800Y-15300D02*
D03*
X-5000Y-15500D02*
D03*
X-10905D02*
D03*
M02*
