G04*
G04 #@! TF.GenerationSoftware,Altium Limited,Altium Designer,21.9.2 (33)*
G04*
G04 Layer_Color=16711935*
%FSLAX25Y25*%
%MOIN*%
G70*
G04*
G04 #@! TF.SameCoordinates,EC669842-0CE7-48D2-8D7E-D91009EE0951*
G04*
G04*
G04 #@! TF.FilePolarity,Positive*
G04*
G01*
G75*
%ADD40C,0.00200*%
%ADD41C,0.00394*%
D40*
X12768Y7316D02*
Y9284D01*
X8832Y7316D02*
Y9284D01*
Y9284D02*
X12768D01*
X8832Y7316D02*
X12768D01*
X10800Y7700D02*
Y8900D01*
X10200Y8300D02*
X11400D01*
X12768Y3416D02*
Y5384D01*
X8832Y3416D02*
Y5384D01*
Y5384D02*
X12768D01*
X8832Y3416D02*
X12768D01*
X10800Y3800D02*
Y5000D01*
X10200Y4400D02*
X11400D01*
X8832Y10916D02*
Y12884D01*
X12768Y10916D02*
Y12884D01*
X8832Y10916D02*
X12768D01*
X8832Y12884D02*
X12768D01*
X10800Y11300D02*
Y12500D01*
X10200Y11900D02*
X11400D01*
X-12484Y11468D02*
X-10516D01*
X-12484Y7531D02*
X-10516D01*
X-12484D02*
Y11468D01*
X-10516Y7531D02*
Y11468D01*
X-12100Y9500D02*
X-10900D01*
X-11500Y8900D02*
Y10100D01*
X-10500Y14900D02*
X-9300D01*
X-9900Y14300D02*
Y15500D01*
X-11868Y15884D02*
X-7931D01*
X-11868Y13916D02*
X-7931D01*
Y13916D02*
Y15884D01*
X-11868Y13916D02*
Y15884D01*
X-13984Y-3032D02*
X-12016D01*
X-13984Y-6968D02*
X-12016D01*
X-13984D02*
Y-3032D01*
X-12016Y-6968D02*
Y-3032D01*
X-13600Y-5000D02*
X-12400D01*
X-13000Y-5600D02*
Y-4400D01*
X-12484Y532D02*
X-10516D01*
X-12484Y4468D02*
X-10516D01*
X-10516Y532D02*
Y4468D01*
X-12484Y532D02*
Y4468D01*
X-12100Y2500D02*
X-10900D01*
X-11500Y1900D02*
Y3100D01*
D41*
X-5043Y14102D02*
X2043D01*
X-5043Y1898D02*
X2043D01*
Y14102D01*
X-5043Y1898D02*
Y14102D01*
X1898Y-9043D02*
Y-1957D01*
X14102D01*
X1898Y-9043D02*
X14102D01*
Y-1957D01*
X-11102Y-8543D02*
Y-1457D01*
X1102Y-8543D02*
Y-1457D01*
X-11102D02*
X1102D01*
X-11102Y-8543D02*
X1102D01*
M02*
