M48
;Layer_Color=9474304
;FILE_FORMAT=2:5
INCH,TZ
;TYPE=PLATED
T1F00S00C0.01000
T2F00S00C0.08268
%
T01
X-55500Y5000
X-55100Y9177
X-29500Y3700
X-23500Y5000
X-11500Y3900
X-8311Y3709
X-3200Y4200
X500
X4700
X8900
X13300
X26100Y4900
X29400
X30100Y11600
X29450Y14150
X24200Y11200
X20000Y17500
X20024Y19800
X25000Y22100
X22000Y30500
Y33000
X24900Y34500
X26200Y37000
X28600Y37600
X31000Y36500
X36900Y32800
X40900
X46500Y30500
X49000Y30000
X49500Y24600
X52400Y24500
X61300Y24000
X60200Y19100
X57800Y16500
X53900Y16400
X49200Y14700
X47300Y13200
X52000Y11000
X58000Y11100
X64700Y10000
X46000Y5500
X41500Y5000
X14700Y17500
X10700
X-4000Y14900
X-1900Y12800
X-10000Y21500
X-36383Y41215
X-38400Y39247
Y46000
X34900Y45000
X39300Y43000
X45400Y46300
X49300Y41600
X53500Y37000
X58500
X59400Y41400
X54400Y46000
X56500Y52000
X52000Y53500
Y58000
X49000Y56500
X44500Y58031
X39500Y58000
X36500
X33500Y56000
X30500
X27000Y55500
X28300Y60700
X56000Y34000
X59500Y29300
X44500Y67000
X39500Y73500
X37000Y73000
X37500Y81250
X34000Y79500
X31000
X24000
X17000Y76500
X13000
X8500Y82000
Y66500
X11500
X14500
X17500
X20500
X-8000Y68000
X-11500
X-9400Y73200
X-8347Y83153
X-36300Y71700
T02
X-31496Y82677
X55118
M30
