G04*
G04 #@! TF.GenerationSoftware,Altium Limited,Altium Designer,21.9.2 (33)*
G04*
G04 Layer_Color=32768*
%FSLAX25Y25*%
%MOIN*%
G70*
G04*
G04 #@! TF.SameCoordinates,6337DD35-F76D-4253-AB87-260676900378*
G04*
G04*
G04 #@! TF.FilePolarity,Positive*
G04*
G01*
G75*
%ADD58C,0.00200*%
%ADD59C,0.00394*%
G36*
X-41700Y90689D02*
Y90493D01*
X-41838Y90355D01*
X-42034D01*
X-42172Y90493D01*
Y90689D01*
X-42034Y90827D01*
X-41838D01*
X-41700Y90689D01*
D02*
G37*
G36*
X-49663Y82529D02*
X-57537D01*
Y90403D01*
X-49663D01*
Y82529D01*
D02*
G37*
G36*
X-41936Y78591D02*
X-44889D01*
Y79379D01*
X-41936D01*
Y78591D01*
D02*
G37*
G36*
Y76623D02*
X-44889D01*
Y77411D01*
X-41936D01*
Y76623D01*
D02*
G37*
G36*
Y74654D02*
X-44889D01*
Y75442D01*
X-41936D01*
Y74654D01*
D02*
G37*
G36*
Y72686D02*
X-44889D01*
Y73474D01*
X-41936D01*
Y72686D01*
D02*
G37*
G36*
X-49663Y61663D02*
X-57537D01*
Y69537D01*
X-49663D01*
Y61663D01*
D02*
G37*
G36*
X15830Y56956D02*
Y56761D01*
X15691Y56622D01*
X15495D01*
X15357Y56761D01*
Y56956D01*
X15495Y57095D01*
X15691D01*
X15830Y56956D01*
D02*
G37*
G36*
X-12770Y56856D02*
Y56660D01*
X-12909Y56522D01*
X-13104D01*
X-13243Y56660D01*
Y56856D01*
X-13104Y56994D01*
X-12909D01*
X-12770Y56856D01*
D02*
G37*
G36*
X-41870D02*
Y56660D01*
X-42009Y56522D01*
X-42204D01*
X-42343Y56660D01*
Y56856D01*
X-42204Y56994D01*
X-42009D01*
X-41870Y56856D01*
D02*
G37*
G36*
X7867Y48796D02*
X-8D01*
Y56670D01*
X7867D01*
Y48796D01*
D02*
G37*
G36*
X-20733Y48696D02*
X-28607D01*
Y56570D01*
X-20733D01*
Y48696D01*
D02*
G37*
G36*
X-49834D02*
X-57708D01*
Y56570D01*
X-49834D01*
Y48696D01*
D02*
G37*
G36*
X15593Y44859D02*
X12641D01*
Y45646D01*
X15593D01*
Y44859D01*
D02*
G37*
G36*
X-13007Y44758D02*
X-15959D01*
Y45546D01*
X-13007D01*
Y44758D01*
D02*
G37*
G36*
X-42107D02*
X-45059D01*
Y45546D01*
X-42107D01*
Y44758D01*
D02*
G37*
G36*
X15593Y42891D02*
X12641D01*
Y43678D01*
X15593D01*
Y42891D01*
D02*
G37*
G36*
X-13007Y42790D02*
X-15959D01*
Y43578D01*
X-13007D01*
Y42790D01*
D02*
G37*
G36*
X-42107D02*
X-45059D01*
Y43578D01*
X-42107D01*
Y42790D01*
D02*
G37*
G36*
X15593Y40922D02*
X12641D01*
Y41709D01*
X15593D01*
Y40922D01*
D02*
G37*
G36*
X-13007Y40821D02*
X-15959D01*
Y41609D01*
X-13007D01*
Y40821D01*
D02*
G37*
G36*
X-42107D02*
X-45059D01*
Y41609D01*
X-42107D01*
Y40821D01*
D02*
G37*
G36*
X15593Y38954D02*
X12641D01*
Y39741D01*
X15593D01*
Y38954D01*
D02*
G37*
G36*
X-13007Y38853D02*
X-15959D01*
Y39641D01*
X-13007D01*
Y38853D01*
D02*
G37*
G36*
X-42107D02*
X-45059D01*
Y39641D01*
X-42107D01*
Y38853D01*
D02*
G37*
G36*
X7867Y27930D02*
X-8D01*
Y35804D01*
X7867D01*
Y27930D01*
D02*
G37*
G36*
X-20733Y27830D02*
X-28607D01*
Y35704D01*
X-20733D01*
Y27830D01*
D02*
G37*
G36*
X-49834D02*
X-57708D01*
Y35704D01*
X-49834D01*
Y27830D01*
D02*
G37*
G36*
X-34922Y21691D02*
Y21593D01*
Y21496D01*
X-35061Y21357D01*
X-35256D01*
X-35394Y21496D01*
Y21593D01*
Y21691D01*
X-35256Y21829D01*
X-35061D01*
X-34922Y21691D01*
D02*
G37*
G36*
X-17254Y18641D02*
X-18041D01*
Y21593D01*
X-17254D01*
Y18641D01*
D02*
G37*
G36*
X-19221D02*
X-20009D01*
Y21593D01*
X-19221D01*
Y18641D01*
D02*
G37*
G36*
X-21191D02*
X-21978D01*
Y21593D01*
X-21191D01*
Y18641D01*
D02*
G37*
G36*
X-23158D02*
X-23946D01*
Y21593D01*
X-23158D01*
Y18641D01*
D02*
G37*
G36*
X-6230Y5993D02*
X-14104D01*
Y13867D01*
X-6230D01*
Y5993D01*
D02*
G37*
G36*
X-27096D02*
X-34970D01*
Y13867D01*
X-27096D01*
Y5993D01*
D02*
G37*
D58*
X-44862Y27666D02*
Y56721D01*
X-62566Y27666D02*
X-44862D01*
X-62566D02*
Y30369D01*
X-65529D02*
X-62566D01*
X-65529D02*
Y54036D01*
X-62534D01*
Y56758D01*
X-62090D01*
X-44862Y56721D01*
X-44692Y61498D02*
Y90554D01*
X-62396Y61498D02*
X-44692D01*
X-62396D02*
Y64202D01*
X-65359D02*
X-62396D01*
X-65359D02*
Y87869D01*
X-62364D01*
Y90591D01*
X-61919D01*
X-44692Y90554D01*
X12838Y27766D02*
Y56821D01*
X-4866Y27766D02*
X12838D01*
X-4866D02*
Y30469D01*
X-7829D02*
X-4866D01*
X-7829D02*
Y54136D01*
X-4834D01*
Y56858D01*
X-4390D01*
X12838Y56821D01*
X-35121Y18838D02*
X-6066D01*
Y1134D02*
Y18838D01*
X-8769Y1134D02*
X-6066D01*
X-8769Y-1829D02*
Y1134D01*
X-32436Y-1829D02*
X-8769D01*
X-32436D02*
Y1166D01*
X-35158D02*
X-32436D01*
X-35158D02*
Y1610D01*
X-35121Y18838D01*
X-15762Y27666D02*
Y56721D01*
X-33466Y27666D02*
X-15762D01*
X-33466D02*
Y30369D01*
X-36429D02*
X-33466D01*
X-36429D02*
Y54036D01*
X-33434D01*
Y56758D01*
X-32990D01*
X-15762Y56721D01*
D59*
X26386Y11386D02*
Y34614D01*
X49614Y11386D02*
Y34614D01*
X26386Y11386D02*
X49614D01*
X26386Y34614D02*
X49614D01*
X36031Y23000D02*
X39968D01*
X38000Y21032D02*
Y24969D01*
X28000Y77531D02*
Y81468D01*
X26032Y79500D02*
X29969D01*
X19000Y72413D02*
X37000D01*
X19000Y86587D02*
X37000D01*
Y72413D02*
Y86587D01*
X19000Y72413D02*
Y86587D01*
M02*
