G04*
G04 #@! TF.GenerationSoftware,Altium Limited,Altium Designer,21.9.2 (33)*
G04*
G04 Layer_Color=255*
%FSLAX25Y25*%
%MOIN*%
G70*
G04*
G04 #@! TF.SameCoordinates,6337DD35-F76D-4253-AB87-260676900378*
G04*
G04*
G04 #@! TF.FilePolarity,Positive*
G04*
G01*
G75*
%ADD13R,0.08661X0.08661*%
%ADD14R,0.04921X0.01181*%
%ADD15R,0.08661X0.08661*%
%ADD16R,0.01181X0.04921*%
G04:AMPARAMS|DCode=17|XSize=86mil|YSize=72mil|CornerRadius=18mil|HoleSize=0mil|Usage=FLASHONLY|Rotation=0.000|XOffset=0mil|YOffset=0mil|HoleType=Round|Shape=RoundedRectangle|*
%AMROUNDEDRECTD17*
21,1,0.08600,0.03600,0,0,0.0*
21,1,0.05000,0.07200,0,0,0.0*
1,1,0.03600,0.02500,-0.01800*
1,1,0.03600,-0.02500,-0.01800*
1,1,0.03600,-0.02500,0.01800*
1,1,0.03600,0.02500,0.01800*
%
%ADD17ROUNDEDRECTD17*%
G04:AMPARAMS|DCode=18|XSize=20mil|YSize=20mil|CornerRadius=5mil|HoleSize=0mil|Usage=FLASHONLY|Rotation=0.000|XOffset=0mil|YOffset=0mil|HoleType=Round|Shape=RoundedRectangle|*
%AMROUNDEDRECTD18*
21,1,0.02000,0.01000,0,0,0.0*
21,1,0.01000,0.02000,0,0,0.0*
1,1,0.01000,0.00500,-0.00500*
1,1,0.01000,-0.00500,-0.00500*
1,1,0.01000,-0.00500,0.00500*
1,1,0.01000,0.00500,0.00500*
%
%ADD18ROUNDEDRECTD18*%
G04:AMPARAMS|DCode=19|XSize=23.62mil|YSize=35mil|CornerRadius=5.91mil|HoleSize=0mil|Usage=FLASHONLY|Rotation=90.000|XOffset=0mil|YOffset=0mil|HoleType=Round|Shape=RoundedRectangle|*
%AMROUNDEDRECTD19*
21,1,0.02362,0.02319,0,0,90.0*
21,1,0.01181,0.03500,0,0,90.0*
1,1,0.01181,0.01159,0.00591*
1,1,0.01181,0.01159,-0.00591*
1,1,0.01181,-0.01159,-0.00591*
1,1,0.01181,-0.01159,0.00591*
%
%ADD19ROUNDEDRECTD19*%
G04:AMPARAMS|DCode=20|XSize=20mil|YSize=20mil|CornerRadius=5mil|HoleSize=0mil|Usage=FLASHONLY|Rotation=270.000|XOffset=0mil|YOffset=0mil|HoleType=Round|Shape=RoundedRectangle|*
%AMROUNDEDRECTD20*
21,1,0.02000,0.01000,0,0,270.0*
21,1,0.01000,0.02000,0,0,270.0*
1,1,0.01000,-0.00500,-0.00500*
1,1,0.01000,-0.00500,0.00500*
1,1,0.01000,0.00500,0.00500*
1,1,0.01000,0.00500,-0.00500*
%
%ADD20ROUNDEDRECTD20*%
G04:AMPARAMS|DCode=21|XSize=50mil|YSize=10mil|CornerRadius=2.5mil|HoleSize=0mil|Usage=FLASHONLY|Rotation=180.000|XOffset=0mil|YOffset=0mil|HoleType=Round|Shape=RoundedRectangle|*
%AMROUNDEDRECTD21*
21,1,0.05000,0.00500,0,0,180.0*
21,1,0.04500,0.01000,0,0,180.0*
1,1,0.00500,-0.02250,0.00250*
1,1,0.00500,0.02250,0.00250*
1,1,0.00500,0.02250,-0.00250*
1,1,0.00500,-0.02250,-0.00250*
%
%ADD21ROUNDEDRECTD21*%
%ADD34C,0.15748*%
D13*
X-53771Y31767D02*
D03*
Y52633D02*
D03*
X-53600Y65600D02*
D03*
Y86466D02*
D03*
X3929Y31867D02*
D03*
Y52733D02*
D03*
X-24670Y31767D02*
D03*
Y52633D02*
D03*
D14*
X-43830Y45152D02*
D03*
Y43184D02*
D03*
Y41215D02*
D03*
Y39247D02*
D03*
X-43659Y78985D02*
D03*
Y77017D02*
D03*
Y75048D02*
D03*
Y73080D02*
D03*
X13871Y45252D02*
D03*
Y43284D02*
D03*
Y41315D02*
D03*
Y39347D02*
D03*
X-14729Y45152D02*
D03*
Y43184D02*
D03*
Y41215D02*
D03*
Y39247D02*
D03*
D15*
X-10167Y9929D02*
D03*
X-31033D02*
D03*
D16*
X-23552Y19871D02*
D03*
X-21584D02*
D03*
X-19615D02*
D03*
X-17647D02*
D03*
D17*
X35500Y64563D02*
D03*
Y27437D02*
D03*
D18*
X43500Y72000D02*
D03*
Y68000D02*
D03*
X46500D02*
D03*
Y72000D02*
D03*
X17500Y78500D02*
D03*
Y82500D02*
D03*
X14500Y78500D02*
D03*
Y82500D02*
D03*
D19*
X22095Y75760D02*
D03*
Y79500D02*
D03*
Y83240D02*
D03*
X33494D02*
D03*
Y75760D02*
D03*
D20*
X-7000Y72000D02*
D03*
X-3000D02*
D03*
X4500D02*
D03*
X500D02*
D03*
X4500Y68500D02*
D03*
X500D02*
D03*
X41500Y83000D02*
D03*
X37500D02*
D03*
X41500Y79500D02*
D03*
X37500D02*
D03*
X41500Y76000D02*
D03*
X37500D02*
D03*
D21*
X23100Y52890D02*
D03*
Y50921D02*
D03*
Y48953D02*
D03*
Y46984D02*
D03*
Y45016D02*
D03*
Y43047D02*
D03*
Y41079D02*
D03*
Y39110D02*
D03*
D34*
X55118Y82677D02*
D03*
X-31496D02*
D03*
M02*
