G04*
G04 #@! TF.GenerationSoftware,Altium Limited,Altium Designer,21.9.2 (33)*
G04*
G04 Layer_Color=8388736*
%FSLAX25Y25*%
%MOIN*%
G70*
G04*
G04 #@! TF.SameCoordinates,DD328E7E-2EBA-422F-A0F1-C1AB4A82772B*
G04*
G04*
G04 #@! TF.FilePolarity,Negative*
G04*
G01*
G75*
%ADD22R,0.09055X0.09055*%
%ADD23R,0.05315X0.01575*%
%ADD24R,0.09055X0.09055*%
%ADD25R,0.01575X0.05315*%
G04:AMPARAMS|DCode=26|XSize=92mil|YSize=78mil|CornerRadius=21mil|HoleSize=0mil|Usage=FLASHONLY|Rotation=0.000|XOffset=0mil|YOffset=0mil|HoleType=Round|Shape=RoundedRectangle|*
%AMROUNDEDRECTD26*
21,1,0.09200,0.03600,0,0,0.0*
21,1,0.05000,0.07800,0,0,0.0*
1,1,0.04200,0.02500,-0.01800*
1,1,0.04200,-0.02500,-0.01800*
1,1,0.04200,-0.02500,0.01800*
1,1,0.04200,0.02500,0.01800*
%
%ADD26ROUNDEDRECTD26*%
G04:AMPARAMS|DCode=27|XSize=26mil|YSize=26mil|CornerRadius=8mil|HoleSize=0mil|Usage=FLASHONLY|Rotation=0.000|XOffset=0mil|YOffset=0mil|HoleType=Round|Shape=RoundedRectangle|*
%AMROUNDEDRECTD27*
21,1,0.02600,0.01000,0,0,0.0*
21,1,0.01000,0.02600,0,0,0.0*
1,1,0.01600,0.00500,-0.00500*
1,1,0.01600,-0.00500,-0.00500*
1,1,0.01600,-0.00500,0.00500*
1,1,0.01600,0.00500,0.00500*
%
%ADD27ROUNDEDRECTD27*%
G04:AMPARAMS|DCode=28|XSize=29.62mil|YSize=41mil|CornerRadius=8.91mil|HoleSize=0mil|Usage=FLASHONLY|Rotation=90.000|XOffset=0mil|YOffset=0mil|HoleType=Round|Shape=RoundedRectangle|*
%AMROUNDEDRECTD28*
21,1,0.02962,0.02319,0,0,90.0*
21,1,0.01181,0.04100,0,0,90.0*
1,1,0.01781,0.01159,0.00591*
1,1,0.01781,0.01159,-0.00591*
1,1,0.01781,-0.01159,-0.00591*
1,1,0.01781,-0.01159,0.00591*
%
%ADD28ROUNDEDRECTD28*%
G04:AMPARAMS|DCode=29|XSize=26mil|YSize=26mil|CornerRadius=8mil|HoleSize=0mil|Usage=FLASHONLY|Rotation=270.000|XOffset=0mil|YOffset=0mil|HoleType=Round|Shape=RoundedRectangle|*
%AMROUNDEDRECTD29*
21,1,0.02600,0.01000,0,0,270.0*
21,1,0.01000,0.02600,0,0,270.0*
1,1,0.01600,-0.00500,-0.00500*
1,1,0.01600,-0.00500,0.00500*
1,1,0.01600,0.00500,0.00500*
1,1,0.01600,0.00500,-0.00500*
%
%ADD29ROUNDEDRECTD29*%
G04:AMPARAMS|DCode=30|XSize=56mil|YSize=16mil|CornerRadius=5.5mil|HoleSize=0mil|Usage=FLASHONLY|Rotation=180.000|XOffset=0mil|YOffset=0mil|HoleType=Round|Shape=RoundedRectangle|*
%AMROUNDEDRECTD30*
21,1,0.05600,0.00500,0,0,180.0*
21,1,0.04500,0.01600,0,0,180.0*
1,1,0.01100,-0.02250,0.00250*
1,1,0.01100,0.02250,0.00250*
1,1,0.01100,0.02250,-0.00250*
1,1,0.01100,-0.02250,-0.00250*
%
%ADD30ROUNDEDRECTD30*%
%ADD31C,0.16348*%
D22*
X-53771Y31767D02*
D03*
Y52633D02*
D03*
X-53600Y65600D02*
D03*
Y86466D02*
D03*
X3929Y31867D02*
D03*
Y52733D02*
D03*
X-24670Y31767D02*
D03*
Y52633D02*
D03*
D23*
X-43830Y45152D02*
D03*
Y43184D02*
D03*
Y41215D02*
D03*
Y39247D02*
D03*
X-43659Y78985D02*
D03*
Y77017D02*
D03*
Y75048D02*
D03*
Y73080D02*
D03*
X13871Y45252D02*
D03*
Y43284D02*
D03*
Y41315D02*
D03*
Y39347D02*
D03*
X-14729Y45152D02*
D03*
Y43184D02*
D03*
Y41215D02*
D03*
Y39247D02*
D03*
D24*
X4800Y11600D02*
D03*
X-16066D02*
D03*
D25*
X-8585Y21541D02*
D03*
X-6617D02*
D03*
X-4648D02*
D03*
X-2680D02*
D03*
D26*
X35500Y64563D02*
D03*
Y27437D02*
D03*
D27*
X43500Y72000D02*
D03*
Y68000D02*
D03*
X46500D02*
D03*
Y72000D02*
D03*
X17500Y78500D02*
D03*
Y82500D02*
D03*
X14500Y78500D02*
D03*
Y82500D02*
D03*
D28*
X22095Y75760D02*
D03*
Y79500D02*
D03*
Y83240D02*
D03*
X33494D02*
D03*
Y75760D02*
D03*
D29*
X-7000Y72000D02*
D03*
X-3000D02*
D03*
X4500D02*
D03*
X500D02*
D03*
X4500Y68500D02*
D03*
X500D02*
D03*
X41500Y83000D02*
D03*
X37500D02*
D03*
X41500Y79500D02*
D03*
X37500D02*
D03*
X41500Y76000D02*
D03*
X37500D02*
D03*
D30*
X23100Y52890D02*
D03*
Y50921D02*
D03*
Y48953D02*
D03*
Y46984D02*
D03*
Y45016D02*
D03*
Y43047D02*
D03*
Y41079D02*
D03*
Y39110D02*
D03*
D31*
X55118Y82677D02*
D03*
X-31496D02*
D03*
M02*
