G04*
G04 #@! TF.GenerationSoftware,Altium Limited,Altium Designer,21.9.2 (33)*
G04*
G04 Layer_Color=2752767*
%FSLAX25Y25*%
%MOIN*%
G70*
G04*
G04 #@! TF.SameCoordinates,B975FEBB-0858-4FBA-AA24-3913DB9BFF4A*
G04*
G04*
G04 #@! TF.FilePolarity,Positive*
G04*
G01*
G75*
%ADD10C,0.00600*%
%ADD11C,0.00200*%
%ADD12C,0.00267*%
D10*
X-67431Y1969D02*
G03*
X-64961Y-501I2470J0D01*
G01*
X64961D02*
G03*
X67181Y1719I0J2220D01*
G01*
Y89851D02*
G03*
X62181Y94851I-5000J0D01*
G01*
X-62431D02*
G03*
X-67431Y89851I0J-5000D01*
G01*
X-67352Y19955D02*
G03*
X-67431Y19685I422J-270D01*
G01*
X-67352Y19955D02*
G03*
X-67431Y19685I422J-270D01*
G01*
X-64961Y-501D02*
X64961D01*
X67181Y1719D02*
Y89851D01*
X-62431Y94851D02*
X62181D01*
X-67431Y1969D02*
Y89851D01*
D11*
X54318Y81877D02*
Y83477D01*
X55918D01*
Y81877D01*
X54318D01*
X-32296D02*
Y83477D01*
X-30696D01*
Y81877D01*
X-32296D01*
D12*
X-7511Y3709D02*
G03*
X-7511Y3709I-800J0D01*
G01*
X-2400Y4200D02*
G03*
X-2400Y4200I-800J0D01*
G01*
X-3200Y14900D02*
G03*
X-3200Y14900I-800J0D01*
G01*
X-1100Y12800D02*
G03*
X-1100Y12800I-800J0D01*
G01*
X25000Y11200D02*
G03*
X25000Y11200I-800J0D01*
G01*
X-35583Y41215D02*
G03*
X-35583Y41215I-800J0D01*
G01*
X-37600Y39247D02*
G03*
X-37600Y39247I-800J0D01*
G01*
X-35500Y71700D02*
G03*
X-35500Y71700I-800J0D01*
G01*
X-37600Y46000D02*
G03*
X-37600Y46000I-800J0D01*
G01*
X15300Y66500D02*
G03*
X15300Y66500I-800J0D01*
G01*
X18300D02*
G03*
X18300Y66500I-800J0D01*
G01*
X21300D02*
G03*
X21300Y66500I-800J0D01*
G01*
X-54300Y9177D02*
G03*
X-54300Y9177I-800J0D01*
G01*
X30900Y11600D02*
G03*
X30900Y11600I-800J0D01*
G01*
X30250Y14150D02*
G03*
X30250Y14150I-800J0D01*
G01*
X25800Y22100D02*
G03*
X25800Y22100I-800J0D01*
G01*
X1300Y4200D02*
G03*
X1300Y4200I-800J0D01*
G01*
X5500D02*
G03*
X5500Y4200I-800J0D01*
G01*
X15500Y17500D02*
G03*
X15500Y17500I-800J0D01*
G01*
X11500D02*
G03*
X11500Y17500I-800J0D01*
G01*
X-22700Y5000D02*
G03*
X-22700Y5000I-800J0D01*
G01*
X-10700Y3900D02*
G03*
X-10700Y3900I-800J0D01*
G01*
X-54700Y5000D02*
G03*
X-54700Y5000I-800J0D01*
G01*
X42300D02*
G03*
X42300Y5000I-800J0D01*
G01*
X37300Y58000D02*
G03*
X37300Y58000I-800J0D01*
G01*
X29100Y60700D02*
G03*
X29100Y60700I-800J0D01*
G01*
X27800Y55500D02*
G03*
X27800Y55500I-800J0D01*
G01*
X65500Y10000D02*
G03*
X65500Y10000I-800J0D01*
G01*
X31300Y56000D02*
G03*
X31300Y56000I-800J0D01*
G01*
X34300D02*
G03*
X34300Y56000I-800J0D01*
G01*
X14100Y4200D02*
G03*
X14100Y4200I-800J0D01*
G01*
X9700D02*
G03*
X9700Y4200I-800J0D01*
G01*
X45300Y67000D02*
G03*
X45300Y67000I-800J0D01*
G01*
X52800Y58000D02*
G03*
X52800Y58000I-800J0D01*
G01*
X31800Y36500D02*
G03*
X31800Y36500I-800J0D01*
G01*
X59300Y37000D02*
G03*
X59300Y37000I-800J0D01*
G01*
X56800Y34000D02*
G03*
X56800Y34000I-800J0D01*
G01*
X54300Y37000D02*
G03*
X54300Y37000I-800J0D01*
G01*
X57300Y52000D02*
G03*
X57300Y52000I-800J0D01*
G01*
X52800Y53500D02*
G03*
X52800Y53500I-800J0D01*
G01*
X49800Y56500D02*
G03*
X49800Y56500I-800J0D01*
G01*
X45300Y58031D02*
G03*
X45300Y58031I-800J0D01*
G01*
X40300Y58000D02*
G03*
X40300Y58000I-800J0D01*
G01*
X40100Y43000D02*
G03*
X40100Y43000I-800J0D01*
G01*
X35700Y45000D02*
G03*
X35700Y45000I-800J0D01*
G01*
X58800Y11100D02*
G03*
X58800Y11100I-800J0D01*
G01*
X52800Y11000D02*
G03*
X52800Y11000I-800J0D01*
G01*
X29400Y37600D02*
G03*
X29400Y37600I-800J0D01*
G01*
X27000Y37000D02*
G03*
X27000Y37000I-800J0D01*
G01*
X55200Y46000D02*
G03*
X55200Y46000I-800J0D01*
G01*
X60200Y41400D02*
G03*
X60200Y41400I-800J0D01*
G01*
X46200Y46300D02*
G03*
X46200Y46300I-800J0D01*
G01*
X50100Y41600D02*
G03*
X50100Y41600I-800J0D01*
G01*
X48100Y13200D02*
G03*
X48100Y13200I-800J0D01*
G01*
X61000Y19100D02*
G03*
X61000Y19100I-800J0D01*
G01*
X30200Y4900D02*
G03*
X30200Y4900I-800J0D01*
G01*
X26900D02*
G03*
X26900Y4900I-800J0D01*
G01*
X62100Y24000D02*
G03*
X62100Y24000I-800J0D01*
G01*
X50300Y24600D02*
G03*
X50300Y24600I-800J0D01*
G01*
X53200Y24500D02*
G03*
X53200Y24500I-800J0D01*
G01*
X50000Y14700D02*
G03*
X50000Y14700I-800J0D01*
G01*
X60300Y29300D02*
G03*
X60300Y29300I-800J0D01*
G01*
X41700Y32800D02*
G03*
X41700Y32800I-800J0D01*
G01*
X37700D02*
G03*
X37700Y32800I-800J0D01*
G01*
X-9200Y21500D02*
G03*
X-9200Y21500I-800J0D01*
G01*
X49800Y30000D02*
G03*
X49800Y30000I-800J0D01*
G01*
X46800Y5500D02*
G03*
X46800Y5500I-800J0D01*
G01*
X-28700Y3700D02*
G03*
X-28700Y3700I-800J0D01*
G01*
X20824Y19800D02*
G03*
X20824Y19800I-800J0D01*
G01*
X20800Y17500D02*
G03*
X20800Y17500I-800J0D01*
G01*
X22800Y30500D02*
G03*
X22800Y30500I-800J0D01*
G01*
Y33000D02*
G03*
X22800Y33000I-800J0D01*
G01*
X25700Y34500D02*
G03*
X25700Y34500I-800J0D01*
G01*
X47300Y30500D02*
G03*
X47300Y30500I-800J0D01*
G01*
X40300Y73500D02*
G03*
X40300Y73500I-800J0D01*
G01*
X37800Y73000D02*
G03*
X37800Y73000I-800J0D01*
G01*
X34800Y79500D02*
G03*
X34800Y79500I-800J0D01*
G01*
X31800D02*
G03*
X31800Y79500I-800J0D01*
G01*
X24800D02*
G03*
X24800Y79500I-800J0D01*
G01*
X-7200Y68000D02*
G03*
X-7200Y68000I-800J0D01*
G01*
X-10700D02*
G03*
X-10700Y68000I-800J0D01*
G01*
X9300Y82000D02*
G03*
X9300Y82000I-800J0D01*
G01*
X17800Y76500D02*
G03*
X17800Y76500I-800J0D01*
G01*
X13800D02*
G03*
X13800Y76500I-800J0D01*
G01*
X12300Y66500D02*
G03*
X12300Y66500I-800J0D01*
G01*
X9300D02*
G03*
X9300Y66500I-800J0D01*
G01*
X38300Y81250D02*
G03*
X38300Y81250I-800J0D01*
G01*
X-7547Y83153D02*
G03*
X-7547Y83153I-800J0D01*
G01*
X-8600Y73200D02*
G03*
X-8600Y73200I-800J0D01*
G01*
X58600Y16500D02*
G03*
X58600Y16500I-800J0D01*
G01*
X54700Y16400D02*
G03*
X54700Y16400I-800J0D01*
G01*
M02*
