G04*
G04 #@! TF.GenerationSoftware,Altium Limited,Altium Designer,21.9.2 (33)*
G04*
G04 Layer_Physical_Order=2*
G04 Layer_Color=16711680*
%FSLAX25Y25*%
%MOIN*%
G70*
G04*
G04 #@! TF.SameCoordinates,DD328E7E-2EBA-422F-A0F1-C1AB4A82772B*
G04*
G04*
G04 #@! TF.FilePolarity,Positive*
G04*
G01*
G75*
%ADD10C,0.01000*%
G04:AMPARAMS|DCode=18|XSize=20mil|YSize=20mil|CornerRadius=5mil|HoleSize=0mil|Usage=FLASHONLY|Rotation=0.000|XOffset=0mil|YOffset=0mil|HoleType=Round|Shape=RoundedRectangle|*
%AMROUNDEDRECTD18*
21,1,0.02000,0.01000,0,0,0.0*
21,1,0.01000,0.02000,0,0,0.0*
1,1,0.01000,0.00500,-0.00500*
1,1,0.01000,-0.00500,-0.00500*
1,1,0.01000,-0.00500,0.00500*
1,1,0.01000,0.00500,0.00500*
%
%ADD18ROUNDEDRECTD18*%
G04:AMPARAMS|DCode=20|XSize=20mil|YSize=20mil|CornerRadius=5mil|HoleSize=0mil|Usage=FLASHONLY|Rotation=270.000|XOffset=0mil|YOffset=0mil|HoleType=Round|Shape=RoundedRectangle|*
%AMROUNDEDRECTD20*
21,1,0.02000,0.01000,0,0,270.0*
21,1,0.01000,0.02000,0,0,270.0*
1,1,0.01000,-0.00500,-0.00500*
1,1,0.01000,-0.00500,0.00500*
1,1,0.01000,0.00500,0.00500*
1,1,0.01000,0.00500,-0.00500*
%
%ADD20ROUNDEDRECTD20*%
%ADD32C,0.00400*%
%ADD33C,0.00600*%
%ADD34C,0.15748*%
%ADD35C,0.01800*%
%ADD36O,0.02756X0.00984*%
%ADD37O,0.00984X0.02756*%
%ADD38R,0.11024X0.10630*%
G04:AMPARAMS|DCode=39|XSize=39.37mil|YSize=78.74mil|CornerRadius=9.84mil|HoleSize=0mil|Usage=FLASHONLY|Rotation=0.000|XOffset=0mil|YOffset=0mil|HoleType=Round|Shape=RoundedRectangle|*
%AMROUNDEDRECTD39*
21,1,0.03937,0.05906,0,0,0.0*
21,1,0.01968,0.07874,0,0,0.0*
1,1,0.01968,0.00984,-0.02953*
1,1,0.01968,-0.00984,-0.02953*
1,1,0.01968,-0.00984,0.02953*
1,1,0.01968,0.00984,0.02953*
%
%ADD39ROUNDEDRECTD39*%
G04:AMPARAMS|DCode=40|XSize=86mil|YSize=72mil|CornerRadius=18mil|HoleSize=0mil|Usage=FLASHONLY|Rotation=270.000|XOffset=0mil|YOffset=0mil|HoleType=Round|Shape=RoundedRectangle|*
%AMROUNDEDRECTD40*
21,1,0.08600,0.03600,0,0,270.0*
21,1,0.05000,0.07200,0,0,270.0*
1,1,0.03600,-0.01800,-0.02500*
1,1,0.03600,-0.01800,0.02500*
1,1,0.03600,0.01800,0.02500*
1,1,0.03600,0.01800,-0.02500*
%
%ADD40ROUNDEDRECTD40*%
G04:AMPARAMS|DCode=41|XSize=70.87mil|YSize=27.56mil|CornerRadius=6.89mil|HoleSize=0mil|Usage=FLASHONLY|Rotation=90.000|XOffset=0mil|YOffset=0mil|HoleType=Round|Shape=RoundedRectangle|*
%AMROUNDEDRECTD41*
21,1,0.07087,0.01378,0,0,90.0*
21,1,0.05709,0.02756,0,0,90.0*
1,1,0.01378,0.00689,0.02854*
1,1,0.01378,0.00689,-0.02854*
1,1,0.01378,-0.00689,-0.02854*
1,1,0.01378,-0.00689,0.02854*
%
%ADD41ROUNDEDRECTD41*%
G04:AMPARAMS|DCode=42|XSize=50mil|YSize=10mil|CornerRadius=2.5mil|HoleSize=0mil|Usage=FLASHONLY|Rotation=90.000|XOffset=0mil|YOffset=0mil|HoleType=Round|Shape=RoundedRectangle|*
%AMROUNDEDRECTD42*
21,1,0.05000,0.00500,0,0,90.0*
21,1,0.04500,0.01000,0,0,90.0*
1,1,0.00500,0.00250,0.02250*
1,1,0.00500,0.00250,-0.02250*
1,1,0.00500,-0.00250,-0.02250*
1,1,0.00500,-0.00250,0.02250*
%
%ADD42ROUNDEDRECTD42*%
G04:AMPARAMS|DCode=43|XSize=13.78mil|YSize=31.5mil|CornerRadius=3.45mil|HoleSize=0mil|Usage=FLASHONLY|Rotation=270.000|XOffset=0mil|YOffset=0mil|HoleType=Round|Shape=RoundedRectangle|*
%AMROUNDEDRECTD43*
21,1,0.01378,0.02461,0,0,270.0*
21,1,0.00689,0.03150,0,0,270.0*
1,1,0.00689,-0.01230,-0.00345*
1,1,0.00689,-0.01230,0.00345*
1,1,0.00689,0.01230,0.00345*
1,1,0.00689,0.01230,-0.00345*
%
%ADD43ROUNDEDRECTD43*%
G04:AMPARAMS|DCode=44|XSize=13.78mil|YSize=31.5mil|CornerRadius=3.45mil|HoleSize=0mil|Usage=FLASHONLY|Rotation=180.000|XOffset=0mil|YOffset=0mil|HoleType=Round|Shape=RoundedRectangle|*
%AMROUNDEDRECTD44*
21,1,0.01378,0.02461,0,0,180.0*
21,1,0.00689,0.03150,0,0,180.0*
1,1,0.00689,-0.00345,0.01230*
1,1,0.00689,0.00345,0.01230*
1,1,0.00689,0.00345,-0.01230*
1,1,0.00689,-0.00345,-0.01230*
%
%ADD44ROUNDEDRECTD44*%
%ADD45C,0.01500*%
G36*
X62181Y94189D02*
X63303Y94041D01*
X64349Y93607D01*
X65247Y92918D01*
X65937Y92020D01*
X66370Y90974D01*
X66518Y89851D01*
X66518D01*
Y86681D01*
Y12049D01*
X66018Y11897D01*
X65982Y11951D01*
X65524Y12257D01*
X64984Y12364D01*
X63016D01*
X62476Y12257D01*
X62018Y11951D01*
X61712Y11493D01*
X61604Y10953D01*
Y5047D01*
X61712Y4507D01*
X62018Y4049D01*
X62476Y3743D01*
X63016Y3636D01*
X64984D01*
X65524Y3743D01*
X65982Y4049D01*
X66018Y4103D01*
X66518Y3951D01*
Y1719D01*
X66510D01*
X66392Y1125D01*
X66057Y623D01*
X65554Y287D01*
X64961Y169D01*
Y161D01*
X-64961D01*
Y164D01*
X-65651Y301D01*
X-66237Y692D01*
X-66628Y1278D01*
X-66765Y1969D01*
X-66768D01*
Y19088D01*
X-66768Y19090D01*
X-66753Y19223D01*
X-66660Y19685D01*
X-66660D01*
X-66638Y19955D01*
X-66692Y20229D01*
X-66768Y20342D01*
Y87468D01*
Y89851D01*
X-66768D01*
X-66620Y90974D01*
X-66187Y92020D01*
X-65497Y92918D01*
X-64599Y93607D01*
X-63553Y94041D01*
X-62431Y94189D01*
Y94189D01*
X62181D01*
Y94189D01*
D02*
G37*
%LPC*%
G36*
X400Y86518D02*
X-5900D01*
X-6251Y86448D01*
X-6549Y86249D01*
X-8055Y84742D01*
X-8091Y84728D01*
X-8158Y84663D01*
X-8212Y84613D01*
X-8316Y84528D01*
X-8349Y84505D01*
X-8376Y84488D01*
X-8391Y84480D01*
X-8406Y84476D01*
X-8412Y84472D01*
X-8416Y84470D01*
X-8423Y84464D01*
X-8437Y84453D01*
X-8605D01*
X-9083Y84256D01*
X-9449Y83890D01*
X-9646Y83412D01*
Y82895D01*
X-9449Y82417D01*
X-9329Y82298D01*
X-9327Y82282D01*
X-9327Y82272D01*
X-9325Y82268D01*
X-9324Y82260D01*
X-9316Y82247D01*
X-9311Y82231D01*
X-9303Y82199D01*
X-9297Y82164D01*
X-9285Y82003D01*
X-9297Y81923D01*
X-9298Y81919D01*
X-9528Y81577D01*
X-9595Y81502D01*
X-9867Y81447D01*
X-10114Y81283D01*
X-10278Y81037D01*
X-10336Y80746D01*
Y80057D01*
X-10278Y79767D01*
X-10114Y79520D01*
X-10053Y79480D01*
Y78922D01*
X-10114Y78881D01*
X-10278Y78635D01*
X-10336Y78345D01*
Y77656D01*
X-10278Y77365D01*
X-10114Y77119D01*
X-10053Y77078D01*
Y76520D01*
X-10114Y76480D01*
X-10278Y76233D01*
X-10336Y75943D01*
Y75254D01*
X-10278Y74963D01*
X-10240Y74907D01*
X-10248Y74896D01*
X-10318Y74545D01*
Y74528D01*
X-10333Y74492D01*
X-10336Y74152D01*
X-10338Y74100D01*
X-10502Y73936D01*
X-10700Y73459D01*
Y72941D01*
X-10502Y72464D01*
X-10136Y72098D01*
X-9659Y71900D01*
X-9141D01*
X-8664Y72098D01*
X-8298Y72464D01*
X-8100Y72941D01*
Y73459D01*
X-8273Y73875D01*
X-8276Y74042D01*
X-8242Y74178D01*
X-8212Y74258D01*
X-8105Y74448D01*
X-8088Y74452D01*
X-8019Y74467D01*
X-7942Y74478D01*
X-7732Y74493D01*
X-7611Y74494D01*
X-7609Y74495D01*
X-7116D01*
X-6826Y74553D01*
X-6579Y74717D01*
X-6415Y74963D01*
X-6357Y75254D01*
Y75943D01*
X-6415Y76233D01*
X-6579Y76480D01*
X-6532Y76970D01*
X-6226Y77286D01*
X3504D01*
X4429Y76362D01*
X4143Y75940D01*
X3974Y75974D01*
X3285D01*
X2995Y75916D01*
X2749Y75751D01*
X2584Y75505D01*
X2526Y75215D01*
Y72754D01*
X2493Y72714D01*
X2198D01*
X1925Y72659D01*
X1693Y72505D01*
X1611Y72423D01*
X648D01*
X567Y72505D01*
X335Y72659D01*
X62Y72714D01*
X-234D01*
X-267Y72754D01*
Y75215D01*
X-324Y75505D01*
X-489Y75751D01*
X-735Y75916D01*
X-1026Y75974D01*
X-1715D01*
X-2005Y75916D01*
X-2251Y75751D01*
X-2342Y75615D01*
X-2509Y75577D01*
X-2732D01*
X-2898Y75615D01*
X-2989Y75751D01*
X-3235Y75916D01*
X-3526Y75974D01*
X-4215D01*
X-4505Y75916D01*
X-4751Y75751D01*
X-4916Y75505D01*
X-4974Y75215D01*
Y72754D01*
X-4916Y72464D01*
X-4751Y72217D01*
X-4505Y72053D01*
X-4215Y71995D01*
X-3526D01*
X-3235Y72053D01*
X-2989Y72217D01*
X-2898Y72353D01*
X-2732Y72391D01*
X-2509D01*
X-2342Y72353D01*
X-2251Y72217D01*
X-2005Y72053D01*
X-1791Y72010D01*
X-1730Y71982D01*
X-1719Y71982D01*
X-1707Y71971D01*
X-1687Y71963D01*
X-1676Y71945D01*
X-1646Y71936D01*
X-1205Y71495D01*
X-973Y71341D01*
X-700Y71286D01*
X-233D01*
X-152Y71205D01*
X80Y71050D01*
X353Y70996D01*
X1907D01*
X2180Y71050D01*
X2380Y71184D01*
X2580Y71050D01*
X2853Y70996D01*
X4407D01*
X4680Y71050D01*
X4912Y71205D01*
X5493Y71786D01*
X23342D01*
X23587Y71443D01*
X23639Y71286D01*
X23582Y71000D01*
Y70346D01*
X23452Y70151D01*
X23382Y69800D01*
Y69613D01*
X23371Y69450D01*
X23375Y69437D01*
X23370Y69424D01*
X23367Y69253D01*
X23382Y69214D01*
Y67870D01*
X23368Y67865D01*
X23322Y67851D01*
X23250Y67835D01*
X23209Y67805D01*
X23186Y67801D01*
X23101Y67743D01*
X23041Y67719D01*
X23032Y67698D01*
X22826Y67560D01*
X22585Y67200D01*
X22501Y66775D01*
Y61066D01*
X22585Y60641D01*
X22826Y60281D01*
X23186Y60040D01*
X23611Y59956D01*
X24989D01*
X25414Y60040D01*
X25774Y60281D01*
X26015Y60641D01*
X26099Y61066D01*
Y66775D01*
X26015Y67200D01*
X25774Y67560D01*
X25568Y67698D01*
X25559Y67719D01*
X25499Y67743D01*
X25414Y67801D01*
X25391Y67805D01*
X25350Y67835D01*
X25278Y67851D01*
X25232Y67865D01*
X25218Y67870D01*
Y69082D01*
X25500D01*
X25851Y69152D01*
X26149Y69351D01*
X26348Y69649D01*
X26418Y70000D01*
Y71000D01*
X26361Y71286D01*
X26413Y71443D01*
X26658Y71786D01*
X32814D01*
X33087Y71841D01*
X33319Y71995D01*
X36510Y75186D01*
X45011D01*
X47837Y72360D01*
X47591Y71899D01*
X47500Y71918D01*
X47419D01*
X47417Y71918D01*
X47414Y71918D01*
X46911D01*
X46894Y71931D01*
X46794Y72026D01*
X46759Y72038D01*
X45149Y73649D01*
X44851Y73848D01*
X44500Y73918D01*
X42000D01*
X41649Y73848D01*
X41351Y73649D01*
X39741Y72038D01*
X39706Y72026D01*
X39606Y71931D01*
X39589Y71918D01*
X39086D01*
X39083Y71918D01*
X39081Y71918D01*
X39000D01*
X38649Y71848D01*
X38351Y71649D01*
X38152Y71351D01*
X38082Y71000D01*
Y70000D01*
X38152Y69649D01*
X38300Y69427D01*
X38321Y69364D01*
X38353Y69348D01*
X38356Y69344D01*
X38357Y69339D01*
X38359Y69337D01*
X38361Y69328D01*
X38364Y69308D01*
X38366Y69281D01*
X38367Y69235D01*
X38382Y69201D01*
Y67870D01*
X38368Y67865D01*
X38322Y67851D01*
X38250Y67835D01*
X38209Y67805D01*
X38186Y67801D01*
X38101Y67743D01*
X38041Y67719D01*
X38032Y67698D01*
X37826Y67560D01*
X37585Y67200D01*
X37501Y66775D01*
Y61066D01*
X37585Y60641D01*
X37826Y60281D01*
X38186Y60040D01*
X38611Y59956D01*
X39989D01*
X40414Y60040D01*
X40774Y60281D01*
X41015Y60641D01*
X41099Y61066D01*
Y66775D01*
X41015Y67200D01*
X40774Y67560D01*
X40568Y67698D01*
X40559Y67719D01*
X40499Y67743D01*
X40414Y67801D01*
X40391Y67805D01*
X40350Y67835D01*
X40278Y67851D01*
X40232Y67865D01*
X40218Y67870D01*
Y69101D01*
X40231Y69105D01*
X40289Y69119D01*
X40330Y69148D01*
X40351Y69152D01*
X40411Y69192D01*
X40475Y69213D01*
X40490Y69245D01*
X40649Y69351D01*
X40848Y69649D01*
X40918Y70000D01*
Y70081D01*
X40918Y70083D01*
X40918Y70086D01*
Y70589D01*
X40931Y70606D01*
X41026Y70706D01*
X41038Y70741D01*
X42380Y72082D01*
X44120D01*
X45462Y70741D01*
X45474Y70706D01*
X45569Y70606D01*
X45582Y70589D01*
Y70086D01*
X45581Y70083D01*
X45582Y70081D01*
Y70000D01*
X45652Y69649D01*
X45851Y69351D01*
X46149Y69152D01*
X46500Y69082D01*
X46581D01*
X46583Y69081D01*
X46586Y69082D01*
X47089D01*
X47106Y69069D01*
X47206Y68975D01*
X47241Y68962D01*
X47960Y68242D01*
X47978Y68211D01*
X48006Y68103D01*
X48009Y68072D01*
X47892Y67604D01*
X47826Y67560D01*
X47585Y67200D01*
X47501Y66775D01*
Y61066D01*
X47585Y60641D01*
X47826Y60281D01*
X48186Y60040D01*
X48611Y59956D01*
X49989D01*
X50414Y60040D01*
X50774Y60281D01*
X51015Y60641D01*
X51099Y61066D01*
Y66775D01*
X51015Y67200D01*
X50774Y67560D01*
X50568Y67698D01*
X50559Y67719D01*
X50499Y67743D01*
X50414Y67801D01*
X50391Y67805D01*
X50350Y67835D01*
X50278Y67851D01*
X50232Y67865D01*
X50218Y67870D01*
Y68200D01*
X50148Y68551D01*
X49949Y68849D01*
X48538Y70259D01*
X48526Y70294D01*
X48431Y70394D01*
X48418Y70411D01*
Y70915D01*
X48419Y70917D01*
X48418Y70919D01*
Y71000D01*
X48399Y71091D01*
X48860Y71337D01*
X50502Y69695D01*
X50734Y69541D01*
X51007Y69486D01*
X59804D01*
X62286Y67004D01*
Y28796D01*
X55695Y22205D01*
X55541Y21973D01*
X55486Y21700D01*
Y18996D01*
X54418Y17928D01*
X54376Y17912D01*
X54327Y17867D01*
X54291Y17839D01*
X54254Y17814D01*
X54215Y17793D01*
X54174Y17775D01*
X54130Y17761D01*
X54083Y17749D01*
X54031Y17740D01*
X53974Y17734D01*
X53899Y17733D01*
X53825Y17700D01*
X53641D01*
X53164Y17502D01*
X53034Y17372D01*
X52958Y17343D01*
X52904Y17291D01*
X52860Y17255D01*
X52817Y17224D01*
X52775Y17199D01*
X52734Y17179D01*
X52692Y17163D01*
X52650Y17150D01*
X52606Y17141D01*
X52560Y17135D01*
X52494Y17133D01*
X52453Y17114D01*
X46508D01*
X46235Y17059D01*
X46004Y16905D01*
X44995Y15896D01*
X44841Y15665D01*
X44786Y15392D01*
Y14596D01*
X44331Y14140D01*
X43831Y14347D01*
Y15618D01*
X43762Y15966D01*
X43564Y16261D01*
X43269Y16458D01*
X42921Y16528D01*
X42573Y16458D01*
X42278Y16261D01*
X42222Y16177D01*
X41652D01*
X41596Y16261D01*
X41301Y16458D01*
X40953Y16528D01*
X40605Y16458D01*
X40310Y16261D01*
X40254Y16177D01*
X39683D01*
X39627Y16261D01*
X39332Y16458D01*
X38984Y16528D01*
X38636Y16458D01*
X38341Y16261D01*
X38285Y16177D01*
X37715D01*
X37659Y16261D01*
X37364Y16458D01*
X37016Y16528D01*
X36668Y16458D01*
X36373Y16261D01*
X36317Y16177D01*
X35746D01*
X35690Y16261D01*
X35395Y16458D01*
X35047Y16528D01*
X34699Y16458D01*
X34404Y16261D01*
X34348Y16177D01*
X33778D01*
X33722Y16261D01*
X33427Y16458D01*
X33079Y16528D01*
X32731Y16458D01*
X32436Y16261D01*
X32238Y15966D01*
X32169Y15618D01*
Y15093D01*
X30773D01*
X30731Y15112D01*
X30664Y15114D01*
X30610Y15119D01*
X30555Y15127D01*
X30499Y15139D01*
X30441Y15155D01*
X30383Y15174D01*
X30327Y15196D01*
X30192Y15260D01*
X30124Y15299D01*
X30048Y15309D01*
X29708Y15450D01*
X29191D01*
X28713Y15252D01*
X28348Y14886D01*
X28298Y14767D01*
X27708Y14650D01*
X26072Y16286D01*
Y21334D01*
X26102Y21364D01*
X26300Y21841D01*
Y22359D01*
X26102Y22836D01*
X25736Y23202D01*
X25259Y23400D01*
X24741D01*
X24434Y23272D01*
X18600D01*
X18151Y23183D01*
X17771Y22929D01*
X15914Y21072D01*
X7901D01*
X7884Y21081D01*
X7862Y21083D01*
X7860Y21087D01*
X7846Y21130D01*
X7832Y21197D01*
X7822Y21288D01*
X7818Y21414D01*
X7802Y21449D01*
Y22150D01*
X7752Y22404D01*
X7608Y22619D01*
X7393Y22762D01*
X7140Y22813D01*
X6640D01*
X6386Y22762D01*
X6188Y22630D01*
X6168Y22619D01*
X5643D01*
X5623Y22630D01*
X5425Y22762D01*
X5171Y22813D01*
X4671D01*
X4418Y22762D01*
X4219Y22630D01*
X4199Y22619D01*
X3675D01*
X3655Y22630D01*
X3456Y22762D01*
X3203Y22813D01*
X2703D01*
X2449Y22762D01*
X2251Y22630D01*
X2231Y22619D01*
X1706D01*
X1686Y22630D01*
X1488Y22762D01*
X1234Y22813D01*
X734D01*
X481Y22762D01*
X283Y22630D01*
X262Y22619D01*
X-262D01*
X-282Y22630D01*
X-481Y22762D01*
X-734Y22813D01*
X-1234D01*
X-1488Y22762D01*
X-1703Y22619D01*
X-1846Y22404D01*
X-1897Y22150D01*
Y17650D01*
X-1846Y17396D01*
X-1703Y17181D01*
X-1647Y17144D01*
X-1646Y17143D01*
X-1644Y17142D01*
X-1548Y17078D01*
X-1443Y16825D01*
X-694Y16076D01*
X-885Y15614D01*
X-2553D01*
X-2594Y15633D01*
X-2660Y15635D01*
X-2706Y15641D01*
X-2750Y15650D01*
X-2792Y15663D01*
X-2834Y15679D01*
X-2875Y15699D01*
X-2917Y15724D01*
X-2960Y15755D01*
X-3004Y15791D01*
X-3058Y15843D01*
X-3134Y15872D01*
X-3264Y16002D01*
X-3741Y16200D01*
X-4259D01*
X-4736Y16002D01*
X-5102Y15636D01*
X-5106Y15627D01*
X-5125Y15614D01*
X-5162Y15560D01*
X-5187Y15530D01*
X-5211Y15506D01*
X-5235Y15487D01*
X-5259Y15472D01*
X-5284Y15459D01*
X-5313Y15449D01*
X-5347Y15441D01*
X-5387Y15435D01*
X-5453Y15433D01*
X-5493Y15414D01*
X-5537Y15421D01*
X-5546Y15414D01*
X-28304D01*
X-35669Y22778D01*
Y39769D01*
X-35650Y39810D01*
X-35648Y39875D01*
X-35642Y39921D01*
X-35633Y39965D01*
X-35620Y40007D01*
X-35604Y40049D01*
X-35583Y40091D01*
X-35558Y40132D01*
X-35528Y40175D01*
X-35492Y40219D01*
X-35440Y40273D01*
X-35410Y40349D01*
X-35281Y40479D01*
X-35083Y40957D01*
Y41474D01*
X-35281Y41952D01*
X-35342Y42013D01*
X-35358Y42068D01*
X-35408Y42129D01*
X-35444Y42181D01*
X-35474Y42231D01*
X-35500Y42280D01*
X-35521Y42328D01*
X-35538Y42375D01*
X-35550Y42423D01*
X-35559Y42471D01*
X-35565Y42520D01*
X-35567Y42586D01*
X-35586Y42627D01*
Y70253D01*
X-35567Y70294D01*
X-35565Y70360D01*
X-35559Y70406D01*
X-35550Y70450D01*
X-35537Y70492D01*
X-35521Y70534D01*
X-35501Y70575D01*
X-35476Y70617D01*
X-35445Y70660D01*
X-35409Y70704D01*
X-35357Y70758D01*
X-35328Y70834D01*
X-35198Y70964D01*
X-35000Y71441D01*
Y71959D01*
X-35198Y72436D01*
X-35564Y72802D01*
X-36041Y73000D01*
X-36559D01*
X-37036Y72802D01*
X-37402Y72436D01*
X-37600Y71959D01*
Y71441D01*
X-37402Y70964D01*
X-37273Y70834D01*
X-37243Y70758D01*
X-37191Y70704D01*
X-37155Y70660D01*
X-37124Y70617D01*
X-37099Y70575D01*
X-37079Y70534D01*
X-37062Y70492D01*
X-37050Y70450D01*
X-37041Y70406D01*
X-37035Y70360D01*
X-37033Y70294D01*
X-37014Y70253D01*
Y47159D01*
X-37514Y46952D01*
X-37664Y47102D01*
X-38141Y47300D01*
X-38659D01*
X-39136Y47102D01*
X-39502Y46736D01*
X-39700Y46259D01*
Y45741D01*
X-39502Y45264D01*
X-39373Y45134D01*
X-39343Y45058D01*
X-39291Y45004D01*
X-39255Y44960D01*
X-39224Y44917D01*
X-39199Y44875D01*
X-39179Y44834D01*
X-39162Y44792D01*
X-39150Y44750D01*
X-39141Y44706D01*
X-39135Y44660D01*
X-39133Y44594D01*
X-39114Y44553D01*
Y40694D01*
X-39133Y40653D01*
X-39135Y40587D01*
X-39141Y40541D01*
X-39150Y40497D01*
X-39162Y40455D01*
X-39179Y40413D01*
X-39199Y40372D01*
X-39224Y40330D01*
X-39255Y40287D01*
X-39291Y40244D01*
X-39343Y40189D01*
X-39373Y40113D01*
X-39502Y39984D01*
X-39700Y39506D01*
Y38989D01*
X-39502Y38511D01*
X-39373Y38381D01*
X-39343Y38306D01*
X-39291Y38251D01*
X-39255Y38207D01*
X-39224Y38164D01*
X-39199Y38122D01*
X-39179Y38081D01*
X-39162Y38039D01*
X-39150Y37997D01*
X-39141Y37953D01*
X-39135Y37907D01*
X-39133Y37842D01*
X-39114Y37801D01*
Y22000D01*
X-39059Y21727D01*
X-38905Y21495D01*
X-29705Y12295D01*
X-29473Y12141D01*
X-29200Y12086D01*
X-3347D01*
X-3306Y12067D01*
X-3240Y12065D01*
X-3194Y12059D01*
X-3150Y12050D01*
X-3108Y12037D01*
X-3066Y12021D01*
X-3025Y12001D01*
X-2983Y11976D01*
X-2940Y11945D01*
X-2896Y11909D01*
X-2842Y11857D01*
X-2766Y11828D01*
X-2636Y11698D01*
X-2159Y11500D01*
X-1641D01*
X-1164Y11698D01*
X-1034Y11828D01*
X-958Y11857D01*
X-904Y11909D01*
X-860Y11945D01*
X-817Y11976D01*
X-775Y12001D01*
X-734Y12021D01*
X-692Y12037D01*
X-650Y12050D01*
X-606Y12059D01*
X-560Y12065D01*
X-494Y12067D01*
X-453Y12086D01*
X10262D01*
X10536Y12141D01*
X10767Y12295D01*
X10858Y12386D01*
X22104D01*
X22698Y11792D01*
X22710Y11756D01*
X22719Y11751D01*
X22722Y11742D01*
X22767Y11693D01*
X22794Y11659D01*
X22816Y11624D01*
X22834Y11589D01*
X22849Y11552D01*
X22860Y11513D01*
X22869Y11471D01*
X22873Y11425D01*
X22875Y11374D01*
X22871Y11302D01*
X22900Y11221D01*
Y10941D01*
X23098Y10464D01*
X23464Y10098D01*
X23941Y9900D01*
X24459D01*
X24936Y10098D01*
X25302Y10464D01*
X25500Y10941D01*
Y11433D01*
X25571Y11497D01*
X25942Y11698D01*
X30145Y7495D01*
X30376Y7341D01*
X30649Y7286D01*
X31342D01*
X31587Y6943D01*
X31639Y6786D01*
X31582Y6500D01*
Y5500D01*
X31652Y5149D01*
X31851Y4851D01*
X32149Y4652D01*
X32500Y4582D01*
X33500D01*
X33851Y4652D01*
X34149Y4851D01*
X34245Y4995D01*
X34266Y5003D01*
X34291Y5063D01*
X34293Y5067D01*
X34312Y5067D01*
X34345Y5082D01*
X35155D01*
X35188Y5067D01*
X35207Y5067D01*
X35209Y5063D01*
X35234Y5003D01*
X35255Y4995D01*
X35351Y4851D01*
X35649Y4652D01*
X35765Y4629D01*
X35768Y4578D01*
X35786Y4538D01*
Y3900D01*
X35841Y3627D01*
X35995Y3395D01*
X37595Y1795D01*
X37827Y1641D01*
X38100Y1586D01*
X47500D01*
X47773Y1641D01*
X48005Y1795D01*
X49505Y3295D01*
X49659Y3527D01*
X49694Y3702D01*
X49983Y3864D01*
X50214Y3918D01*
X50476Y3743D01*
X51016Y3636D01*
X52984D01*
X53524Y3743D01*
X53982Y4049D01*
X54288Y4507D01*
X54396Y5047D01*
Y10953D01*
X54288Y11493D01*
X53982Y11951D01*
X53630Y12186D01*
X53733Y12686D01*
X56267D01*
X56370Y12186D01*
X56018Y11951D01*
X55712Y11493D01*
X55604Y10953D01*
Y5047D01*
X55712Y4507D01*
X56018Y4049D01*
X56476Y3743D01*
X57016Y3636D01*
X58984D01*
X59524Y3743D01*
X59982Y4049D01*
X60288Y4507D01*
X60396Y5047D01*
Y10953D01*
X60288Y11493D01*
X59982Y11951D01*
X59630Y12186D01*
X59733Y12686D01*
X60977D01*
X61250Y12741D01*
X61482Y12895D01*
X65505Y16918D01*
X65659Y17150D01*
X65714Y17423D01*
Y68128D01*
X65659Y68401D01*
X65505Y68633D01*
X59530Y74608D01*
X59298Y74762D01*
X59025Y74817D01*
X51862D01*
X44925Y81755D01*
X44693Y81909D01*
X44420Y81964D01*
X38952D01*
X38908Y81983D01*
X38892Y81983D01*
X38840Y81985D01*
X38794Y81991D01*
X38750Y82000D01*
X38708Y82012D01*
X38666Y82029D01*
X38625Y82049D01*
X38583Y82074D01*
X38540Y82105D01*
X38496Y82141D01*
X38442Y82193D01*
X38366Y82222D01*
X38236Y82352D01*
X37759Y82550D01*
X37590D01*
X37577Y82560D01*
X37570Y82567D01*
X37566Y82568D01*
X37560Y82573D01*
X37544Y82577D01*
X37529Y82585D01*
X37502Y82601D01*
X37473Y82622D01*
X37306Y82765D01*
X37245Y82825D01*
X37209Y82839D01*
X34529Y85519D01*
X34231Y85718D01*
X33880Y85788D01*
X2384D01*
X2350Y85803D01*
X2168Y85808D01*
X2009Y85823D01*
X1860Y85847D01*
X1721Y85881D01*
X1591Y85922D01*
X1470Y85973D01*
X1358Y86031D01*
X1252Y86098D01*
X1153Y86174D01*
X1046Y86273D01*
X974Y86299D01*
X751Y86448D01*
X400Y86518D01*
D02*
G37*
G36*
X54989Y67885D02*
X53611D01*
X53186Y67801D01*
X52826Y67560D01*
X52585Y67200D01*
X52501Y66775D01*
Y61066D01*
X52585Y60641D01*
X52826Y60281D01*
X53186Y60040D01*
X53611Y59956D01*
X54989D01*
X55414Y60040D01*
X55774Y60281D01*
X56015Y60641D01*
X56099Y61066D01*
Y66775D01*
X56015Y67200D01*
X55774Y67560D01*
X55414Y67801D01*
X54989Y67885D01*
D02*
G37*
G36*
X44759Y68300D02*
X44241D01*
X43764Y68102D01*
X43531Y67869D01*
X43186Y67801D01*
X42826Y67560D01*
X42585Y67200D01*
X42501Y66775D01*
Y61066D01*
X42585Y60641D01*
X42826Y60281D01*
X43186Y60040D01*
X43611Y59956D01*
X44989D01*
X45414Y60040D01*
X45774Y60281D01*
X46015Y60641D01*
X46099Y61066D01*
Y66775D01*
X46015Y67200D01*
X45774Y67560D01*
X45637Y67651D01*
X45602Y67736D01*
X45236Y68102D01*
X44759Y68300D01*
D02*
G37*
G36*
X34989Y67885D02*
X33611D01*
X33186Y67801D01*
X32826Y67560D01*
X32585Y67200D01*
X32501Y66775D01*
Y61066D01*
X32585Y60641D01*
X32826Y60281D01*
X33038Y60140D01*
X33139Y59660D01*
X33124Y59543D01*
X32731Y59149D01*
X29271D01*
X29116Y59597D01*
X29443Y59956D01*
X29989D01*
X30414Y60040D01*
X30774Y60281D01*
X31015Y60641D01*
X31099Y61066D01*
Y66775D01*
X31015Y67200D01*
X30774Y67560D01*
X30414Y67801D01*
X29989Y67885D01*
X28611D01*
X28186Y67801D01*
X27826Y67560D01*
X27585Y67200D01*
X27501Y66775D01*
Y61739D01*
X27198Y61436D01*
X27000Y60959D01*
Y60441D01*
X27198Y59964D01*
X27512Y59649D01*
X27477Y59408D01*
X27359Y59149D01*
X26869D01*
X26409Y58959D01*
X25675Y58225D01*
X25675Y58225D01*
X24649Y57198D01*
X24446Y57401D01*
X24326Y57451D01*
X24031Y57648D01*
X23563Y57741D01*
X23094Y57648D01*
X22799Y57451D01*
X22679Y57401D01*
X22679Y57401D01*
X22441Y56999D01*
X22432Y56986D01*
X22339Y56517D01*
X22432Y56049D01*
X22607Y55787D01*
X22675Y55601D01*
X22622Y55172D01*
X20841Y53391D01*
X20651Y52931D01*
Y39569D01*
X20841Y39109D01*
X23409Y36541D01*
X23869Y36351D01*
X24862D01*
X24898Y36336D01*
X24943Y36313D01*
X24994Y36283D01*
X25046Y36246D01*
X25182Y36131D01*
X25255Y36060D01*
X25332Y36029D01*
X25464Y35898D01*
X25941Y35700D01*
X26284D01*
X26428Y35563D01*
X26595Y35332D01*
X26630Y35238D01*
X26582Y35000D01*
Y34000D01*
X26652Y33649D01*
X26851Y33351D01*
X27149Y33152D01*
X27500Y33082D01*
X28500D01*
X28851Y33152D01*
X29149Y33351D01*
X29348Y33649D01*
X29388Y33851D01*
X29879D01*
X30070Y33389D01*
X28958Y32276D01*
X28851Y32348D01*
X28500Y32418D01*
X27500D01*
X27149Y32348D01*
X26851Y32149D01*
X26652Y31851D01*
X26582Y31500D01*
Y30500D01*
X26652Y30149D01*
X26851Y29851D01*
X27149Y29652D01*
X27500Y29582D01*
X28500D01*
X28851Y29652D01*
X29149Y29851D01*
X29348Y30149D01*
X29418Y30500D01*
Y30834D01*
X29419Y30836D01*
X29418Y30877D01*
X29419Y30901D01*
X31466Y32948D01*
X31957Y32921D01*
X32209Y32545D01*
X32228Y32451D01*
X32169Y32153D01*
Y30382D01*
X32238Y30034D01*
X32436Y29739D01*
X32731Y29542D01*
X33079Y29472D01*
X33427Y29542D01*
X33722Y29739D01*
X33778Y29822D01*
X34348D01*
X34404Y29739D01*
X34557Y29637D01*
X34571Y29607D01*
X34604Y29578D01*
X35005Y29177D01*
X34813Y28715D01*
X32088D01*
Y17285D01*
X43912D01*
Y27875D01*
X43998Y27903D01*
X44541Y27573D01*
X44739Y27278D01*
X44822Y27222D01*
Y26652D01*
X44739Y26596D01*
X44541Y26301D01*
X44472Y25953D01*
X44541Y25605D01*
X44739Y25310D01*
X44822Y25254D01*
Y24683D01*
X44739Y24627D01*
X44541Y24332D01*
X44472Y23984D01*
X44541Y23636D01*
X44739Y23341D01*
X44822Y23285D01*
Y22715D01*
X44739Y22659D01*
X44541Y22364D01*
X44472Y22016D01*
X44541Y21668D01*
X44739Y21373D01*
X44822Y21317D01*
Y20746D01*
X44739Y20690D01*
X44541Y20395D01*
X44472Y20047D01*
X44541Y19699D01*
X44739Y19404D01*
X45034Y19207D01*
X45382Y19138D01*
X47153D01*
X47502Y19207D01*
X47797Y19404D01*
X47994Y19699D01*
X48063Y20047D01*
X47994Y20395D01*
X47797Y20690D01*
X47713Y20746D01*
Y21317D01*
X47797Y21373D01*
X47994Y21668D01*
X48063Y22016D01*
X47994Y22364D01*
X47797Y22659D01*
X47713Y22715D01*
Y23285D01*
X47797Y23341D01*
X47994Y23636D01*
X48063Y23984D01*
X47994Y24332D01*
X47797Y24627D01*
X47713Y24683D01*
Y25254D01*
X47797Y25310D01*
X47994Y25605D01*
X48063Y25953D01*
X47994Y26301D01*
X47797Y26596D01*
X47982Y27069D01*
X48192Y27272D01*
X49582D01*
Y26500D01*
X49652Y26149D01*
X49851Y25851D01*
X50149Y25652D01*
X50500Y25582D01*
X51500D01*
X51851Y25652D01*
X52149Y25851D01*
X52245Y25995D01*
X52266Y26003D01*
X52291Y26063D01*
X52293Y26067D01*
X52312Y26067D01*
X52345Y26082D01*
X57200D01*
X57551Y26152D01*
X57849Y26351D01*
X59209Y27711D01*
X59245Y27725D01*
X59312Y27790D01*
X59366Y27840D01*
X59469Y27925D01*
X59502Y27949D01*
X59529Y27965D01*
X59544Y27973D01*
X59560Y27977D01*
X59566Y27982D01*
X59570Y27983D01*
X59577Y27990D01*
X59590Y28000D01*
X59759D01*
X60236Y28198D01*
X60602Y28564D01*
X60800Y29041D01*
Y29559D01*
X60602Y30036D01*
X60236Y30402D01*
X59759Y30600D01*
X59241D01*
X58764Y30402D01*
X58398Y30036D01*
X58200Y29559D01*
Y29390D01*
X58190Y29377D01*
X58183Y29370D01*
X58182Y29366D01*
X58177Y29360D01*
X58173Y29344D01*
X58165Y29329D01*
X58149Y29302D01*
X58128Y29273D01*
X57985Y29106D01*
X57925Y29045D01*
X57911Y29009D01*
X56820Y27918D01*
X52345D01*
X52312Y27933D01*
X52293Y27933D01*
X52291Y27937D01*
X52266Y27997D01*
X52245Y28005D01*
X52149Y28149D01*
X51851Y28348D01*
X51500Y28418D01*
X50500D01*
X50475Y28413D01*
X50473Y28413D01*
X50470Y28412D01*
X50465Y28411D01*
X50079Y28571D01*
X47807D01*
X47806Y28574D01*
X47746Y28598D01*
X47502Y28762D01*
X47153Y28831D01*
X46353D01*
X46351Y28832D01*
X46274Y28833D01*
X45548Y29559D01*
X45089Y29749D01*
X44127D01*
X43804Y30250D01*
X43831Y30382D01*
Y32153D01*
X43762Y32502D01*
X43564Y32797D01*
X43269Y32994D01*
X42921Y33063D01*
X42573Y32994D01*
X42278Y32797D01*
X42081Y32502D01*
X42012Y32153D01*
Y30382D01*
X42038Y30250D01*
X41715Y29749D01*
X40190D01*
X39867Y30250D01*
X39894Y30382D01*
Y32153D01*
X39825Y32502D01*
X39661Y32746D01*
X39636Y32806D01*
X39634Y32807D01*
Y33016D01*
X39443Y33475D01*
X37959Y34959D01*
X37500Y35149D01*
X29388D01*
X29348Y35351D01*
X29149Y35649D01*
X28898Y35816D01*
X28883Y36005D01*
X28949Y36338D01*
X29336Y36498D01*
X29702Y36864D01*
X29900Y37341D01*
Y37859D01*
X29702Y38336D01*
X29336Y38702D01*
X28859Y38900D01*
X28673D01*
X28596Y38933D01*
X28489Y38934D01*
X28401Y38939D01*
X28383Y38941D01*
X28272Y39073D01*
X28275Y39087D01*
X28370Y39341D01*
X28494Y39479D01*
X28604Y39516D01*
X28611Y39515D01*
X29989D01*
X30414Y39599D01*
X30774Y39840D01*
X31015Y40200D01*
X31099Y40625D01*
Y46334D01*
X31015Y46759D01*
X30774Y47119D01*
X30414Y47360D01*
X29989Y47444D01*
X28611D01*
X28186Y47360D01*
X27826Y47119D01*
X27585Y46759D01*
X27501Y46334D01*
Y40625D01*
X27585Y40200D01*
X27797Y39883D01*
X27826Y39840D01*
X27847Y39805D01*
X27598Y39367D01*
X27400Y39449D01*
X26069D01*
X25980Y39567D01*
X25847Y39949D01*
X26015Y40200D01*
X26099Y40625D01*
Y46334D01*
X26015Y46759D01*
X25774Y47119D01*
X25414Y47360D01*
X24989Y47444D01*
X23611D01*
X23249Y47372D01*
X23102Y47419D01*
X22749Y47669D01*
Y52331D01*
X25269Y54851D01*
X25662D01*
X25698Y54836D01*
X25743Y54813D01*
X25794Y54782D01*
X25846Y54746D01*
X25982Y54631D01*
X26055Y54560D01*
X26132Y54529D01*
X26264Y54398D01*
X26741Y54200D01*
X27259D01*
X27736Y54398D01*
X28102Y54764D01*
X28300Y55241D01*
Y55759D01*
X28102Y56236D01*
X27736Y56602D01*
X27259Y56800D01*
X26794D01*
X26685Y56935D01*
X26548Y57261D01*
X26594Y57306D01*
X26594Y57306D01*
X27138Y57851D01*
X33000D01*
X33459Y58041D01*
X34459Y59041D01*
X34649Y59500D01*
Y59956D01*
X34989D01*
X35414Y60040D01*
X35774Y60281D01*
X36015Y60641D01*
X36099Y61066D01*
Y66775D01*
X36015Y67200D01*
X35774Y67560D01*
X35414Y67801D01*
X34989Y67885D01*
D02*
G37*
G36*
X59989Y47444D02*
X58611D01*
X58186Y47360D01*
X57826Y47119D01*
X57585Y46759D01*
X57501Y46334D01*
Y40625D01*
X57585Y40200D01*
X57826Y39840D01*
X58186Y39599D01*
X58611Y39515D01*
X59989D01*
X60414Y39599D01*
X60774Y39840D01*
X61015Y40200D01*
X61099Y40625D01*
Y46334D01*
X61015Y46759D01*
X60774Y47119D01*
X60414Y47360D01*
X59989Y47444D01*
D02*
G37*
G36*
X54989D02*
X53611D01*
X53186Y47360D01*
X52826Y47119D01*
X52585Y46759D01*
X52501Y46334D01*
Y40625D01*
X52585Y40200D01*
X52826Y39840D01*
X53186Y39599D01*
X53611Y39515D01*
X54989D01*
X55414Y39599D01*
X55774Y39840D01*
X56015Y40200D01*
X56099Y40625D01*
Y46334D01*
X56015Y46759D01*
X55774Y47119D01*
X55414Y47360D01*
X54989Y47444D01*
D02*
G37*
G36*
X49989D02*
X48611D01*
X48186Y47360D01*
X47826Y47119D01*
X47585Y46759D01*
X47501Y46334D01*
Y40625D01*
X47585Y40200D01*
X47826Y39840D01*
X48186Y39599D01*
X48611Y39515D01*
X49989D01*
X50414Y39599D01*
X50774Y39840D01*
X51015Y40200D01*
X51099Y40625D01*
Y46334D01*
X51015Y46759D01*
X50774Y47119D01*
X50414Y47360D01*
X49989Y47444D01*
D02*
G37*
G36*
X45659Y47600D02*
X45141D01*
X44765Y47444D01*
X43611D01*
X43186Y47360D01*
X42826Y47119D01*
X42585Y46759D01*
X42501Y46334D01*
Y40625D01*
X42585Y40200D01*
X42826Y39840D01*
X43186Y39599D01*
X43611Y39515D01*
X44989D01*
X45414Y39599D01*
X45774Y39840D01*
X46015Y40200D01*
X46099Y40625D01*
Y45182D01*
X46136Y45198D01*
X46502Y45564D01*
X46700Y46041D01*
Y46559D01*
X46502Y47036D01*
X46136Y47402D01*
X45659Y47600D01*
D02*
G37*
G36*
X39989Y47444D02*
X38611D01*
X38186Y47360D01*
X37826Y47119D01*
X37585Y46759D01*
X37501Y46334D01*
Y40625D01*
X37585Y40200D01*
X37826Y39840D01*
X38186Y39599D01*
X38611Y39515D01*
X39989D01*
X40414Y39599D01*
X40774Y39840D01*
X41015Y40200D01*
X41099Y40625D01*
Y46334D01*
X41015Y46759D01*
X40774Y47119D01*
X40414Y47360D01*
X39989Y47444D01*
D02*
G37*
G36*
X34989D02*
X33611D01*
X33186Y47360D01*
X32826Y47119D01*
X32585Y46759D01*
X32501Y46334D01*
Y40625D01*
X32585Y40200D01*
X32826Y39840D01*
X33186Y39599D01*
X33611Y39515D01*
X34989D01*
X35414Y39599D01*
X35774Y39840D01*
X36015Y40200D01*
X36099Y40625D01*
Y44498D01*
X36200Y44741D01*
Y45259D01*
X36099Y45502D01*
Y46334D01*
X36015Y46759D01*
X35774Y47119D01*
X35414Y47360D01*
X34989Y47444D01*
D02*
G37*
G36*
X30618Y28831D02*
X28846D01*
X28498Y28762D01*
X28203Y28564D01*
X28006Y28269D01*
X27937Y27921D01*
X28006Y27573D01*
X28203Y27278D01*
X28287Y27222D01*
Y26652D01*
X28203Y26596D01*
X28006Y26301D01*
X27937Y25953D01*
X28006Y25605D01*
X28203Y25310D01*
X28287Y25254D01*
Y24683D01*
X28203Y24627D01*
X28006Y24332D01*
X27937Y23984D01*
X28006Y23636D01*
X28203Y23341D01*
X28287Y23285D01*
Y22715D01*
X28203Y22659D01*
X28006Y22364D01*
X27937Y22016D01*
X28006Y21668D01*
X28203Y21373D01*
X28287Y21317D01*
Y20746D01*
X28203Y20690D01*
X28006Y20395D01*
X27937Y20047D01*
X28006Y19699D01*
X28203Y19404D01*
X28498Y19207D01*
X28846Y19138D01*
X30618D01*
X30966Y19207D01*
X31261Y19404D01*
X31459Y19699D01*
X31528Y20047D01*
X31459Y20395D01*
X31261Y20690D01*
X31177Y20746D01*
Y21317D01*
X31261Y21373D01*
X31459Y21668D01*
X31528Y22016D01*
X31459Y22364D01*
X31261Y22659D01*
X31177Y22715D01*
Y23285D01*
X31261Y23341D01*
X31459Y23636D01*
X31528Y23984D01*
X31459Y24332D01*
X31261Y24627D01*
X31177Y24683D01*
Y25254D01*
X31261Y25310D01*
X31459Y25605D01*
X31528Y25953D01*
X31459Y26301D01*
X31261Y26596D01*
X31177Y26652D01*
Y27222D01*
X31261Y27278D01*
X31459Y27573D01*
X31528Y27921D01*
X31459Y28269D01*
X31261Y28564D01*
X30966Y28762D01*
X30618Y28831D01*
D02*
G37*
G36*
X13559Y5500D02*
X13041D01*
X12564Y5302D01*
X12198Y4936D01*
X12000Y4459D01*
Y3941D01*
X12198Y3464D01*
X12564Y3098D01*
X13041Y2900D01*
X13559D01*
X14036Y3098D01*
X14402Y3464D01*
X14600Y3941D01*
Y4459D01*
X14402Y4936D01*
X14036Y5302D01*
X13559Y5500D01*
D02*
G37*
G36*
X9159D02*
X8641D01*
X8164Y5302D01*
X7798Y4936D01*
X7600Y4459D01*
Y3941D01*
X7798Y3464D01*
X8164Y3098D01*
X8641Y2900D01*
X9159D01*
X9636Y3098D01*
X10002Y3464D01*
X10200Y3941D01*
Y4459D01*
X10002Y4936D01*
X9636Y5302D01*
X9159Y5500D01*
D02*
G37*
G36*
X-11241Y5200D02*
X-11759D01*
X-12236Y5002D01*
X-12602Y4636D01*
X-12800Y4159D01*
Y3641D01*
X-12602Y3164D01*
X-12236Y2798D01*
X-11759Y2600D01*
X-11241D01*
X-10764Y2798D01*
X-10398Y3164D01*
X-10200Y3641D01*
Y4159D01*
X-10398Y4636D01*
X-10764Y5002D01*
X-11241Y5200D01*
D02*
G37*
%LPD*%
G36*
X-31Y84642D02*
X27Y84530D01*
X78Y84409D01*
X119Y84279D01*
X153Y84140D01*
X170Y84035D01*
X55Y83872D01*
X33Y83850D01*
X-489Y83783D01*
X-735Y83947D01*
X-1026Y84005D01*
X-1715D01*
X-2005Y83947D01*
X-2251Y83783D01*
X-2416Y83536D01*
X-2474Y83246D01*
Y80785D01*
X-2416Y80495D01*
X-2251Y80249D01*
X-2005Y80084D01*
X-1715Y80026D01*
X-1026D01*
X-735Y80084D01*
X-489Y80249D01*
X-398Y80385D01*
X-232Y80423D01*
X-8D01*
X158Y80385D01*
X249Y80249D01*
X495Y80084D01*
X785Y80026D01*
X1474D01*
X1765Y80084D01*
X2011Y80249D01*
X2102Y80385D01*
X2268Y80423D01*
X2492D01*
X2658Y80385D01*
X2749Y80249D01*
X2995Y80084D01*
X3285Y80026D01*
X3974D01*
X4265Y80084D01*
X4511Y80249D01*
X4676Y80495D01*
X4733Y80785D01*
Y83246D01*
X4692Y83452D01*
X4859Y83772D01*
X4999Y83952D01*
X33500D01*
X35911Y81541D01*
X35925Y81505D01*
X35991Y81438D01*
X36040Y81384D01*
X36125Y81281D01*
X36149Y81248D01*
X36165Y81221D01*
X36173Y81206D01*
X36177Y81190D01*
X36182Y81184D01*
X36183Y81180D01*
X36190Y81173D01*
X36200Y81160D01*
Y80991D01*
X36398Y80514D01*
X36764Y80148D01*
X37241Y79950D01*
X37759D01*
X38236Y80148D01*
X38366Y80278D01*
X38442Y80307D01*
X38496Y80359D01*
X38540Y80395D01*
X38583Y80426D01*
X38625Y80451D01*
X38666Y80471D01*
X38708Y80488D01*
X38750Y80500D01*
X38794Y80509D01*
X38820Y80512D01*
X38922Y80518D01*
X38961Y80536D01*
X44124D01*
X46755Y77906D01*
X46436Y77517D01*
X46373Y77559D01*
X46100Y77614D01*
X35800D01*
X35527Y77559D01*
X35295Y77405D01*
X32104Y74214D01*
X10260D01*
X10108Y74714D01*
X10114Y74717D01*
X10278Y74963D01*
X10336Y75254D01*
Y75943D01*
X10278Y76233D01*
X10114Y76480D01*
X10053Y76520D01*
Y77078D01*
X10114Y77119D01*
X10278Y77365D01*
X10336Y77656D01*
Y78345D01*
X10278Y78635D01*
X10114Y78881D01*
X9867Y79046D01*
X9577Y79104D01*
X7116D01*
X6826Y79046D01*
X6579Y78881D01*
X6415Y78635D01*
X6357Y78345D01*
Y77656D01*
X6415Y77365D01*
X6488Y77255D01*
X6329Y76795D01*
X6105Y76705D01*
X4305Y78505D01*
X4073Y78659D01*
X3800Y78714D01*
X-6468D01*
X-6472Y78720D01*
X-6497Y78780D01*
X-6518Y78789D01*
X-6579Y78881D01*
X-6640Y78922D01*
Y79480D01*
X-6579Y79520D01*
X-6415Y79767D01*
X-6357Y80057D01*
Y80746D01*
X-6415Y81037D01*
X-6579Y81283D01*
X-6826Y81447D01*
X-7098Y81502D01*
X-7161Y81574D01*
X-7399Y81933D01*
X-7410Y82002D01*
X-7409Y82027D01*
X-7396Y82160D01*
X-7389Y82199D01*
X-7382Y82231D01*
X-7377Y82247D01*
X-7369Y82260D01*
X-7368Y82268D01*
X-7366Y82272D01*
X-7366Y82282D01*
X-7363Y82298D01*
X-7244Y82417D01*
X-7046Y82895D01*
Y83063D01*
X-7036Y83077D01*
X-7030Y83083D01*
X-7028Y83088D01*
X-7024Y83094D01*
X-7020Y83109D01*
X-7012Y83124D01*
X-6995Y83152D01*
X-6974Y83181D01*
X-6832Y83347D01*
X-6772Y83409D01*
X-6758Y83445D01*
X-5520Y84682D01*
X-57D01*
X-31Y84642D01*
D02*
G37*
G36*
X874Y85843D02*
X1004Y85743D01*
X1141Y85656D01*
X1287Y85580D01*
X1441Y85516D01*
X1604Y85463D01*
X1774Y85423D01*
X1954Y85393D01*
X2141Y85376D01*
X2337Y85370D01*
X2630Y84370D01*
X2440Y84360D01*
X2270Y84330D01*
X2120Y84280D01*
X1990Y84210D01*
X1880Y84120D01*
X1790Y84010D01*
X1720Y83880D01*
X1670Y83730D01*
X1649Y83612D01*
X1651Y83603D01*
X1660Y83570D01*
X1671Y83542D01*
X1684Y83518D01*
X1698Y83499D01*
X1714Y83486D01*
X1636D01*
X1630Y83370D01*
X1235Y83486D01*
X546D01*
X562Y83499D01*
X576Y83518D01*
X589Y83542D01*
X600Y83570D01*
X609Y83603D01*
X617Y83641D01*
X622Y83684D01*
X627Y83756D01*
X624Y83859D01*
X607Y84046D01*
X577Y84225D01*
X537Y84396D01*
X484Y84559D01*
X420Y84713D01*
X344Y84859D01*
X256Y84996D01*
X157Y85126D01*
X46Y85246D01*
X753Y85953D01*
X874Y85843D01*
D02*
G37*
G36*
X-7082Y83711D02*
X-7152Y83640D01*
X-7316Y83447D01*
X-7356Y83391D01*
X-7389Y83338D01*
X-7414Y83288D01*
X-7433Y83243D01*
X-7443Y83201D01*
X-7446Y83162D01*
X-8337Y84053D01*
X-8299Y84057D01*
X-8257Y84067D01*
X-8212Y84086D01*
X-8162Y84111D01*
X-8109Y84144D01*
X-8053Y84184D01*
X-7928Y84286D01*
X-7861Y84348D01*
X-7789Y84418D01*
X-7082Y83711D01*
D02*
G37*
G36*
X-7741Y82481D02*
X-7763Y82444D01*
X-7783Y82399D01*
X-7800Y82346D01*
X-7814Y82286D01*
X-7826Y82217D01*
X-7841Y82057D01*
X-7845Y81965D01*
X-7846Y81865D01*
X-8846D01*
X-8848Y81965D01*
X-8867Y82217D01*
X-8879Y82286D01*
X-8893Y82346D01*
X-8910Y82399D01*
X-8930Y82444D01*
X-8952Y82481D01*
X-8976Y82511D01*
X-7717D01*
X-7741Y82481D01*
D02*
G37*
G36*
X38208Y81817D02*
X38276Y81761D01*
X38346Y81712D01*
X38417Y81669D01*
X38491Y81633D01*
X38566Y81603D01*
X38644Y81580D01*
X38724Y81563D01*
X38805Y81553D01*
X38879Y81550D01*
X38900Y81550D01*
Y80950D01*
X38783Y80944D01*
X38724Y80937D01*
X38644Y80920D01*
X38566Y80897D01*
X38491Y80867D01*
X38417Y80831D01*
X38346Y80788D01*
X38276Y80739D01*
X38208Y80683D01*
X38143Y80620D01*
Y80911D01*
X37853Y80896D01*
Y81604D01*
X37874Y81594D01*
X37912Y81584D01*
X37970Y81576D01*
X38142Y81563D01*
X38143Y81563D01*
Y81880D01*
X38208Y81817D01*
D02*
G37*
G36*
X37014Y82445D02*
X37206Y82280D01*
X37263Y82240D01*
X37316Y82207D01*
X37365Y82182D01*
X37411Y82164D01*
X37453Y82153D01*
X37491Y82150D01*
X36600Y81259D01*
X36597Y81297D01*
X36586Y81339D01*
X36568Y81385D01*
X36543Y81434D01*
X36510Y81487D01*
X36470Y81544D01*
X36367Y81668D01*
X36305Y81736D01*
X36235Y81807D01*
X36943Y82515D01*
X37014Y82445D01*
D02*
G37*
G36*
X-7841Y81326D02*
X-7826Y81273D01*
X-7801Y81226D01*
X-7767Y81185D01*
X-7722Y81151D01*
X-7666Y81123D01*
X-7602Y81101D01*
X-7526Y81085D01*
X-7441Y81076D01*
X-7346Y81073D01*
X-9347D01*
X-9251Y81076D01*
X-9166Y81085D01*
X-9092Y81101D01*
X-9026Y81123D01*
X-8971Y81151D01*
X-8926Y81185D01*
X-8891Y81226D01*
X-8867Y81273D01*
X-8851Y81326D01*
X-8846Y81385D01*
X-7846D01*
X-7841Y81326D01*
D02*
G37*
G36*
X2958Y81016D02*
X2955Y81111D01*
X2946Y81196D01*
X2930Y81271D01*
X2908Y81336D01*
X2880Y81391D01*
X2846Y81436D01*
X2806Y81471D01*
X2759Y81496D01*
X2706Y81511D01*
X2646Y81516D01*
Y82516D01*
X2706Y82521D01*
X2759Y82536D01*
X2806Y82561D01*
X2846Y82596D01*
X2880Y82641D01*
X2908Y82696D01*
X2930Y82761D01*
X2946Y82836D01*
X2955Y82921D01*
X2958Y83016D01*
Y81016D01*
D02*
G37*
G36*
X1805Y82921D02*
X1814Y82836D01*
X1829Y82761D01*
X1851Y82696D01*
X1879Y82641D01*
X1914Y82596D01*
X1954Y82561D01*
X2001Y82536D01*
X2054Y82521D01*
X2113Y82516D01*
Y81516D01*
X2054Y81511D01*
X2001Y81496D01*
X1954Y81471D01*
X1914Y81436D01*
X1879Y81391D01*
X1851Y81336D01*
X1829Y81271D01*
X1814Y81196D01*
X1805Y81111D01*
X1801Y81016D01*
Y83016D01*
X1805Y82921D01*
D02*
G37*
G36*
X-6795Y78441D02*
X-6784Y78412D01*
X-6770Y78385D01*
X-6753Y78363D01*
X-6734Y78344D01*
X-6712Y78328D01*
X-6688Y78316D01*
X-6660Y78307D01*
X-6630Y78302D01*
X-6597Y78300D01*
Y77700D01*
X-6630Y77698D01*
X-6660Y77693D01*
X-6688Y77684D01*
X-6712Y77672D01*
X-6734Y77656D01*
X-6753Y77637D01*
X-6770Y77615D01*
X-6784Y77588D01*
X-6795Y77559D01*
X-6803Y77526D01*
Y78474D01*
X-6795Y78441D01*
D02*
G37*
G36*
X-7616Y74927D02*
X-7749Y74926D01*
X-7988Y74909D01*
X-8094Y74893D01*
X-8191Y74873D01*
X-8278Y74849D01*
X-8356Y74819D01*
X-8425Y74785D01*
X-8485Y74746D01*
X-8535Y74703D01*
X-9753Y74898D01*
X-9707Y74941D01*
X-7616Y74927D01*
D02*
G37*
G36*
X-8881Y73935D02*
X-9919D01*
X-9915Y73943D01*
X-9912Y73962D01*
X-9909Y73991D01*
X-9903Y74141D01*
X-9900Y74488D01*
X-8900D01*
X-8881Y73935D01*
D02*
G37*
G36*
X-785Y72513D02*
X-782Y72509D01*
X-767Y72493D01*
X-661Y72385D01*
X-1412Y72288D01*
X-1438Y72312D01*
X-1465Y72334D01*
X-1493Y72353D01*
X-1521Y72369D01*
X-1551Y72383D01*
X-1582Y72395D01*
X-1614Y72404D01*
X-1646Y72410D01*
X-1680Y72414D01*
X-1715Y72415D01*
X-786Y72514D01*
X-785Y72513D01*
D02*
G37*
G36*
X40710Y71003D02*
X40605Y70890D01*
X40518Y70783D01*
X40449Y70680D01*
X40399Y70581D01*
X40368Y70487D01*
X40355Y70397D01*
X40360Y70312D01*
X40383Y70231D01*
X40425Y70155D01*
X40486Y70083D01*
X39083Y71486D01*
X39155Y71425D01*
X39231Y71383D01*
X39312Y71360D01*
X39397Y71355D01*
X39487Y71368D01*
X39581Y71399D01*
X39680Y71449D01*
X39783Y71518D01*
X39891Y71605D01*
X40003Y71710D01*
X40710Y71003D01*
D02*
G37*
G36*
X-35733Y70992D02*
X-35789Y70924D01*
X-35838Y70854D01*
X-35881Y70783D01*
X-35917Y70709D01*
X-35947Y70634D01*
X-35970Y70556D01*
X-35987Y70476D01*
X-35997Y70395D01*
X-36000Y70311D01*
X-36600D01*
X-36603Y70395D01*
X-36613Y70476D01*
X-36630Y70556D01*
X-36653Y70634D01*
X-36683Y70709D01*
X-36719Y70783D01*
X-36762Y70854D01*
X-36811Y70924D01*
X-36867Y70992D01*
X-36930Y71057D01*
X-35670D01*
X-35733Y70992D01*
D02*
G37*
G36*
X46610Y71605D02*
X46717Y71518D01*
X46820Y71449D01*
X46919Y71399D01*
X47013Y71368D01*
X47103Y71355D01*
X47188Y71360D01*
X47269Y71383D01*
X47345Y71425D01*
X47417Y71486D01*
X46014Y70083D01*
X46075Y70155D01*
X46117Y70231D01*
X46140Y70312D01*
X46145Y70397D01*
X46132Y70487D01*
X46101Y70581D01*
X46051Y70680D01*
X45982Y70783D01*
X45895Y70890D01*
X45790Y71003D01*
X46497Y71710D01*
X46610Y71605D01*
D02*
G37*
G36*
X23954Y69902D02*
X23995Y69869D01*
X24040Y69810D01*
X25300Y69514D01*
X25205Y69532D01*
X25120Y69539D01*
X25045Y69536D01*
X24980Y69521D01*
X24925Y69495D01*
X24880Y69458D01*
X24845Y69411D01*
X24820Y69352D01*
X24805Y69283D01*
X24800Y69202D01*
X23800Y69247D01*
X23802Y69418D01*
X23822Y69685D01*
X23839Y69780D01*
X23860Y69849D01*
X23887Y69892D01*
X23918Y69910D01*
X23954Y69902D01*
D02*
G37*
G36*
X47925Y70845D02*
X47883Y70769D01*
X47860Y70688D01*
X47855Y70603D01*
X47868Y70513D01*
X47899Y70419D01*
X47949Y70320D01*
X48018Y70217D01*
X48105Y70109D01*
X48210Y69997D01*
X47503Y69290D01*
X47390Y69396D01*
X47283Y69482D01*
X47180Y69551D01*
X47081Y69601D01*
X46987Y69632D01*
X46897Y69645D01*
X46812Y69640D01*
X46731Y69617D01*
X46655Y69575D01*
X46583Y69514D01*
X47986Y70917D01*
X47925Y70845D01*
D02*
G37*
G36*
X40190Y69540D02*
X40116Y69523D01*
X40050Y69502D01*
X39991Y69477D01*
X39941Y69449D01*
X39898Y69417D01*
X39862Y69381D01*
X39835Y69342D01*
X39816Y69299D01*
X39804Y69253D01*
X39800Y69202D01*
X38800Y69247D01*
X38798Y69305D01*
X38794Y69359D01*
X38786Y69409D01*
X38776Y69455D01*
X38762Y69497D01*
X38745Y69535D01*
X38726Y69569D01*
X38703Y69600D01*
X38677Y69626D01*
X38648Y69648D01*
X40190Y69540D01*
D02*
G37*
G36*
X49804Y67714D02*
X49818Y67667D01*
X49841Y67623D01*
X49872Y67583D01*
X49913Y67546D01*
X49963Y67512D01*
X50022Y67482D01*
X50090Y67455D01*
X50167Y67432D01*
X50253Y67413D01*
X48347D01*
X48433Y67432D01*
X48510Y67455D01*
X48578Y67482D01*
X48637Y67512D01*
X48687Y67546D01*
X48728Y67583D01*
X48759Y67623D01*
X48782Y67667D01*
X48796Y67714D01*
X48800Y67765D01*
X49800D01*
X49804Y67714D01*
D02*
G37*
G36*
X39805D02*
X39818Y67667D01*
X39841Y67623D01*
X39873Y67583D01*
X39913Y67546D01*
X39963Y67512D01*
X40022Y67482D01*
X40090Y67455D01*
X40167Y67432D01*
X40253Y67413D01*
X38347D01*
X38433Y67432D01*
X38510Y67455D01*
X38578Y67482D01*
X38637Y67512D01*
X38687Y67546D01*
X38728Y67583D01*
X38759Y67623D01*
X38782Y67667D01*
X38796Y67714D01*
X38800Y67765D01*
X39800D01*
X39805Y67714D01*
D02*
G37*
G36*
X24804D02*
X24818Y67667D01*
X24841Y67623D01*
X24872Y67583D01*
X24913Y67546D01*
X24963Y67512D01*
X25022Y67482D01*
X25090Y67455D01*
X25167Y67432D01*
X25253Y67413D01*
X23347D01*
X23433Y67432D01*
X23510Y67455D01*
X23578Y67482D01*
X23637Y67512D01*
X23687Y67546D01*
X23728Y67583D01*
X23759Y67623D01*
X23782Y67667D01*
X23796Y67714D01*
X23800Y67765D01*
X24800D01*
X24804Y67714D01*
D02*
G37*
G36*
X-37833Y45292D02*
X-37889Y45224D01*
X-37938Y45154D01*
X-37981Y45083D01*
X-38017Y45009D01*
X-38047Y44934D01*
X-38070Y44856D01*
X-38087Y44776D01*
X-38097Y44695D01*
X-38100Y44611D01*
X-38700D01*
X-38703Y44695D01*
X-38713Y44776D01*
X-38730Y44856D01*
X-38753Y44934D01*
X-38783Y45009D01*
X-38819Y45083D01*
X-38862Y45154D01*
X-38911Y45224D01*
X-38967Y45292D01*
X-39030Y45357D01*
X-37770D01*
X-37833Y45292D01*
D02*
G37*
G36*
X-36000Y42570D02*
X-35997Y42487D01*
X-35988Y42406D01*
X-35973Y42326D01*
X-35951Y42247D01*
X-35924Y42169D01*
X-35891Y42093D01*
X-35851Y42017D01*
X-35806Y41943D01*
X-35754Y41869D01*
X-35696Y41797D01*
X-36951Y41913D01*
X-36884Y41972D01*
X-36825Y42033D01*
X-36772Y42098D01*
X-36726Y42165D01*
X-36688Y42235D01*
X-36656Y42308D01*
X-36632Y42384D01*
X-36614Y42463D01*
X-36604Y42544D01*
X-36600Y42629D01*
X-36000Y42570D01*
D02*
G37*
G36*
X-38097Y40552D02*
X-38087Y40471D01*
X-38070Y40391D01*
X-38047Y40314D01*
X-38017Y40238D01*
X-37981Y40165D01*
X-37938Y40093D01*
X-37889Y40023D01*
X-37833Y39956D01*
X-37770Y39890D01*
X-39030D01*
X-38967Y39956D01*
X-38911Y40023D01*
X-38862Y40093D01*
X-38819Y40165D01*
X-38783Y40238D01*
X-38753Y40314D01*
X-38730Y40391D01*
X-38713Y40471D01*
X-38703Y40552D01*
X-38700Y40636D01*
X-38100D01*
X-38097Y40552D01*
D02*
G37*
G36*
X-35816Y40507D02*
X-35872Y40439D01*
X-35921Y40369D01*
X-35964Y40298D01*
X-36000Y40224D01*
X-36030Y40149D01*
X-36053Y40071D01*
X-36070Y39992D01*
X-36079Y39910D01*
X-36083Y39827D01*
X-36683D01*
X-36686Y39910D01*
X-36696Y39992D01*
X-36713Y40071D01*
X-36736Y40149D01*
X-36765Y40224D01*
X-36802Y40298D01*
X-36845Y40369D01*
X-36894Y40439D01*
X-36950Y40507D01*
X-37013Y40573D01*
X-35753D01*
X-35816Y40507D01*
D02*
G37*
G36*
X-37833Y38539D02*
X-37889Y38471D01*
X-37938Y38401D01*
X-37981Y38330D01*
X-38017Y38256D01*
X-38047Y38181D01*
X-38070Y38103D01*
X-38087Y38024D01*
X-38097Y37942D01*
X-38100Y37859D01*
X-38700D01*
X-38703Y37942D01*
X-38713Y38024D01*
X-38730Y38103D01*
X-38753Y38181D01*
X-38783Y38256D01*
X-38819Y38330D01*
X-38862Y38401D01*
X-38911Y38471D01*
X-38967Y38539D01*
X-39030Y38605D01*
X-37770D01*
X-37833Y38539D01*
D02*
G37*
G36*
X62494Y24770D02*
X62437Y24708D01*
X62387Y24644D01*
X62342Y24576D01*
X62304Y24505D01*
X62271Y24430D01*
X62245Y24352D01*
X62225Y24272D01*
X62210Y24187D01*
X62202Y24100D01*
X62200Y24009D01*
X61309Y24900D01*
X61400Y24902D01*
X61487Y24910D01*
X61572Y24925D01*
X61652Y24945D01*
X61730Y24971D01*
X61805Y25004D01*
X61876Y25042D01*
X61944Y25087D01*
X62008Y25137D01*
X62070Y25194D01*
X62494Y24770D01*
D02*
G37*
G36*
X61291Y23100D02*
X61200Y23098D01*
X61113Y23090D01*
X61028Y23076D01*
X60948Y23055D01*
X60870Y23029D01*
X60795Y22996D01*
X60724Y22958D01*
X60656Y22913D01*
X60592Y22863D01*
X60530Y22806D01*
X60106Y23230D01*
X60163Y23292D01*
X60213Y23356D01*
X60258Y23424D01*
X60296Y23495D01*
X60329Y23570D01*
X60355Y23648D01*
X60375Y23729D01*
X60390Y23813D01*
X60398Y23900D01*
X60400Y23991D01*
X61291Y23100D01*
D02*
G37*
G36*
X4426Y18900D02*
X4423Y18995D01*
X4413Y19080D01*
X4398Y19155D01*
X4376Y19220D01*
X4348Y19275D01*
X4313Y19320D01*
X4273Y19355D01*
X4243Y19371D01*
X4022Y19385D01*
X3682Y19389D01*
X3648Y19380D01*
X3601Y19355D01*
X3561Y19320D01*
X3526Y19275D01*
X3498Y19220D01*
X3477Y19155D01*
X3461Y19080D01*
X3452Y18995D01*
X3448Y18900D01*
Y19393D01*
X2953Y19400D01*
Y20400D01*
X3448Y20421D01*
Y20900D01*
X3452Y20805D01*
X3461Y20720D01*
X3477Y20645D01*
X3498Y20580D01*
X3526Y20525D01*
X3561Y20480D01*
X3601Y20445D01*
X3632Y20428D01*
X4285Y20456D01*
X4313Y20480D01*
X4348Y20525D01*
X4376Y20580D01*
X4398Y20645D01*
X4413Y20720D01*
X4423Y20805D01*
X4426Y20900D01*
Y18900D01*
D02*
G37*
G36*
X7390Y21258D02*
X7404Y21130D01*
X7427Y21017D01*
X7459Y20920D01*
X7501Y20838D01*
X7552Y20770D01*
X7612Y20718D01*
X7681Y20680D01*
X7760Y20658D01*
X7847Y20650D01*
Y19150D01*
X7760Y19142D01*
X7681Y19120D01*
X7612Y19083D01*
X7552Y19030D01*
X7501Y18962D01*
X7459Y18880D01*
X7427Y18782D01*
X7404Y18670D01*
X7390Y18542D01*
X7385Y18400D01*
Y21400D01*
X7390Y21258D01*
D02*
G37*
G36*
X6394Y18400D02*
X6390Y18542D01*
X6376Y18670D01*
X6353Y18782D01*
X6320Y18880D01*
X6279Y18962D01*
X6228Y19030D01*
X6168Y19083D01*
X6098Y19120D01*
X6020Y19142D01*
X5932Y19150D01*
Y20650D01*
X6020Y20658D01*
X6098Y20680D01*
X6168Y20718D01*
X6228Y20770D01*
X6279Y20838D01*
X6320Y20920D01*
X6353Y21017D01*
X6376Y21130D01*
X6390Y21258D01*
X6394Y21400D01*
Y18400D01*
D02*
G37*
G36*
X5421Y21258D02*
X5435Y21130D01*
X5458Y21017D01*
X5491Y20920D01*
X5532Y20838D01*
X5583Y20770D01*
X5643Y20718D01*
X5713Y20680D01*
X5791Y20658D01*
X5879Y20650D01*
Y19150D01*
X5791Y19142D01*
X5713Y19120D01*
X5643Y19083D01*
X5583Y19030D01*
X5532Y18962D01*
X5491Y18880D01*
X5458Y18782D01*
X5435Y18670D01*
X5421Y18542D01*
X5417Y18400D01*
Y21400D01*
X5421Y21258D01*
D02*
G37*
G36*
X-658Y17448D02*
X-684Y17443D01*
X-708Y17435D01*
X-728Y17423D01*
X-745Y17408D01*
X-759Y17390D01*
X-770Y17368D01*
X-778Y17344D01*
X-783Y17316D01*
X-784Y17284D01*
X-1184D01*
X-1186Y17316D01*
X-1190Y17344D01*
X-1198Y17368D01*
X-1209Y17390D01*
X-1223Y17408D01*
X-1240Y17423D01*
X-1261Y17435D01*
X-1284Y17443D01*
X-1311Y17448D01*
X-1340Y17449D01*
X-628D01*
X-658Y17448D01*
D02*
G37*
G36*
X1343Y17464D02*
X1309Y17458D01*
X1280Y17448D01*
X1255Y17435D01*
X1233Y17417D01*
X1216Y17396D01*
X1202Y17371D01*
X1192Y17342D01*
X1186Y17309D01*
X1184Y17272D01*
X784D01*
X782Y17309D01*
X777Y17342D01*
X767Y17371D01*
X753Y17396D01*
X735Y17417D01*
X714Y17435D01*
X689Y17448D01*
X659Y17458D01*
X626Y17464D01*
X589Y17466D01*
X1380D01*
X1343Y17464D01*
D02*
G37*
G36*
X58103Y17805D02*
X58113Y17724D01*
X58130Y17644D01*
X58153Y17567D01*
X58183Y17491D01*
X58219Y17417D01*
X58262Y17346D01*
X58311Y17276D01*
X58367Y17208D01*
X58430Y17143D01*
X57170D01*
X57233Y17208D01*
X57289Y17276D01*
X57338Y17346D01*
X57381Y17417D01*
X57418Y17491D01*
X57447Y17567D01*
X57470Y17644D01*
X57487Y17724D01*
X57497Y17805D01*
X57500Y17888D01*
X58100D01*
X58103Y17805D01*
D02*
G37*
G36*
X14446Y16636D02*
X14345Y16663D01*
X14248Y16681D01*
X14156Y16690D01*
X14069Y16691D01*
X13987Y16683D01*
X13910Y16666D01*
X13838Y16641D01*
X13770Y16607D01*
X13708Y16565D01*
X13651Y16514D01*
X13450Y16880D01*
X13491Y16925D01*
X13531Y16979D01*
X13570Y17042D01*
X13609Y17115D01*
X13647Y17196D01*
X13723Y17385D01*
X13796Y17610D01*
X13832Y17737D01*
X14446Y16636D01*
D02*
G37*
G36*
X10446D02*
X10345Y16663D01*
X10248Y16681D01*
X10156Y16690D01*
X10069Y16691D01*
X9987Y16683D01*
X9910Y16666D01*
X9838Y16641D01*
X9770Y16607D01*
X9708Y16565D01*
X9651Y16514D01*
X9450Y16880D01*
X9491Y16925D01*
X9531Y16979D01*
X9570Y17042D01*
X9609Y17115D01*
X9647Y17196D01*
X9723Y17385D01*
X9796Y17610D01*
X9832Y17737D01*
X10446Y16636D01*
D02*
G37*
G36*
X55094Y17170D02*
X55037Y17108D01*
X54987Y17044D01*
X54942Y16976D01*
X54904Y16905D01*
X54871Y16830D01*
X54845Y16752D01*
X54825Y16671D01*
X54810Y16587D01*
X54802Y16500D01*
X54800Y16409D01*
X53909Y17300D01*
X54000Y17302D01*
X54087Y17310D01*
X54172Y17324D01*
X54252Y17345D01*
X54330Y17371D01*
X54405Y17404D01*
X54476Y17442D01*
X54544Y17487D01*
X54608Y17537D01*
X54670Y17594D01*
X55094Y17170D01*
D02*
G37*
G36*
X53257Y15770D02*
X53192Y15833D01*
X53124Y15889D01*
X53054Y15938D01*
X52983Y15981D01*
X52909Y16017D01*
X52833Y16047D01*
X52756Y16070D01*
X52676Y16087D01*
X52595Y16097D01*
X52512Y16100D01*
Y16700D01*
X52595Y16703D01*
X52676Y16713D01*
X52756Y16730D01*
X52833Y16753D01*
X52909Y16782D01*
X52983Y16819D01*
X53054Y16862D01*
X53124Y16911D01*
X53192Y16967D01*
X53257Y17030D01*
Y15770D01*
D02*
G37*
G36*
X64286Y25324D02*
Y17719D01*
X60681Y14114D01*
X50600D01*
X50327Y14059D01*
X50095Y13905D01*
X48495Y12305D01*
X48341Y12073D01*
X48286Y11800D01*
Y4096D01*
X47204Y3014D01*
X38396D01*
X37256Y4153D01*
X37329Y4648D01*
X37351Y4652D01*
X37649Y4851D01*
X37848Y5149D01*
X37918Y5500D01*
Y6500D01*
X37848Y6851D01*
X37715Y7049D01*
X37966Y7492D01*
X37995Y7495D01*
X38227Y7341D01*
X38500Y7286D01*
X41400D01*
X41673Y7341D01*
X41905Y7495D01*
X43105Y8695D01*
X43259Y8927D01*
X43314Y9200D01*
Y11104D01*
X46005Y13795D01*
X46159Y14027D01*
X46214Y14300D01*
Y15096D01*
X46804Y15686D01*
X52453D01*
X52494Y15667D01*
X52560Y15665D01*
X52606Y15659D01*
X52650Y15650D01*
X52692Y15638D01*
X52734Y15621D01*
X52775Y15601D01*
X52817Y15576D01*
X52860Y15545D01*
X52904Y15509D01*
X52958Y15457D01*
X53034Y15428D01*
X53164Y15298D01*
X53641Y15100D01*
X54159D01*
X54636Y15298D01*
X55002Y15664D01*
X55200Y16141D01*
Y16325D01*
X55233Y16399D01*
X55235Y16475D01*
X55240Y16531D01*
X55249Y16583D01*
X55260Y16630D01*
X55275Y16674D01*
X55293Y16715D01*
X55314Y16754D01*
X55339Y16791D01*
X55367Y16827D01*
X55412Y16876D01*
X55428Y16918D01*
X56340Y17831D01*
X56457Y17855D01*
X56486Y17858D01*
X56507Y17857D01*
X56886Y17670D01*
X56890Y17644D01*
X56857Y17442D01*
X56827Y17366D01*
X56698Y17236D01*
X56500Y16759D01*
Y16241D01*
X56698Y15764D01*
X57064Y15398D01*
X57541Y15200D01*
X58059D01*
X58536Y15398D01*
X58902Y15764D01*
X59100Y16241D01*
Y16759D01*
X58902Y17236D01*
X58772Y17366D01*
X58743Y17442D01*
X58691Y17496D01*
X58655Y17540D01*
X58624Y17583D01*
X58599Y17625D01*
X58579Y17666D01*
X58562Y17708D01*
X58550Y17750D01*
X58541Y17794D01*
X58535Y17840D01*
X58533Y17906D01*
X58514Y17947D01*
Y20204D01*
X60782Y22472D01*
X60824Y22488D01*
X60873Y22533D01*
X60909Y22561D01*
X60946Y22586D01*
X60985Y22607D01*
X61026Y22625D01*
X61070Y22639D01*
X61117Y22651D01*
X61169Y22660D01*
X61225Y22666D01*
X61301Y22667D01*
X61375Y22700D01*
X61559D01*
X62036Y22898D01*
X62402Y23264D01*
X62600Y23741D01*
Y23925D01*
X62633Y23999D01*
X62635Y24074D01*
X62640Y24131D01*
X62649Y24183D01*
X62660Y24230D01*
X62675Y24274D01*
X62693Y24315D01*
X62714Y24354D01*
X62739Y24391D01*
X62767Y24428D01*
X62812Y24476D01*
X62828Y24518D01*
X63824Y25515D01*
X64286Y25324D01*
D02*
G37*
G36*
X-3292Y15467D02*
X-3224Y15411D01*
X-3154Y15362D01*
X-3083Y15319D01*
X-3009Y15282D01*
X-2933Y15253D01*
X-2856Y15230D01*
X-2777Y15213D01*
X-2695Y15203D01*
X-2612Y15200D01*
Y14600D01*
X-2695Y14597D01*
X-2777Y14587D01*
X-2856Y14570D01*
X-2933Y14547D01*
X-3009Y14517D01*
X-3083Y14481D01*
X-3154Y14438D01*
X-3224Y14389D01*
X-3292Y14333D01*
X-3357Y14270D01*
Y15530D01*
X-3292Y15467D01*
D02*
G37*
G36*
X-4487Y14143D02*
X-4567Y14192D01*
X-4727Y14274D01*
X-4807Y14308D01*
X-4887Y14336D01*
X-4967Y14359D01*
X-5047Y14377D01*
X-5128Y14390D01*
X-5208Y14397D01*
X-5288Y14400D01*
X-5434Y15000D01*
X-5349Y15004D01*
X-5267Y15015D01*
X-5190Y15033D01*
X-5117Y15059D01*
X-5048Y15093D01*
X-4983Y15134D01*
X-4923Y15182D01*
X-4866Y15238D01*
X-4814Y15301D01*
X-4767Y15371D01*
X-4487Y14143D01*
D02*
G37*
G36*
X32614Y13781D02*
X32612Y13838D01*
X32605Y13889D01*
X32594Y13933D01*
X32580Y13972D01*
X32561Y14005D01*
X32539Y14031D01*
X32513Y14052D01*
X32482Y14067D01*
X32448Y14076D01*
X32409Y14079D01*
Y14679D01*
X32446Y14682D01*
X32479Y14691D01*
X32509Y14706D01*
X32534Y14727D01*
X32555Y14754D01*
X32572Y14787D01*
X32585Y14826D01*
X32595Y14871D01*
X32600Y14922D01*
X32601Y14979D01*
X32614Y13781D01*
D02*
G37*
G36*
X29992Y14876D02*
X30155Y14798D01*
X30236Y14767D01*
X30316Y14740D01*
X30397Y14718D01*
X30477Y14701D01*
X30558Y14689D01*
X30637Y14682D01*
X30717Y14679D01*
X30887Y14079D01*
X30801Y14075D01*
X30719Y14064D01*
X30642Y14045D01*
X30570Y14019D01*
X30502Y13985D01*
X30439Y13944D01*
X30380Y13895D01*
X30326Y13839D01*
X30277Y13776D01*
X30232Y13704D01*
X29910Y14923D01*
X29992Y14876D01*
D02*
G37*
G36*
X41290Y13493D02*
X41282Y13482D01*
X41275Y13468D01*
X41269Y13452D01*
X41264Y13432D01*
X41260Y13410D01*
X41257Y13384D01*
X41253Y13324D01*
X41253Y13289D01*
X40653D01*
X40652Y13324D01*
X40645Y13410D01*
X40641Y13432D01*
X40636Y13452D01*
X40630Y13468D01*
X40623Y13482D01*
X40615Y13493D01*
X40607Y13500D01*
X41299D01*
X41290Y13493D01*
D02*
G37*
G36*
X35385D02*
X35377Y13482D01*
X35370Y13468D01*
X35364Y13452D01*
X35359Y13432D01*
X35355Y13410D01*
X35351Y13384D01*
X35348Y13324D01*
X35347Y13289D01*
X34747D01*
X34747Y13324D01*
X34740Y13410D01*
X34736Y13432D01*
X34731Y13452D01*
X34725Y13468D01*
X34718Y13482D01*
X34710Y13493D01*
X34701Y13500D01*
X35393D01*
X35385Y13493D01*
D02*
G37*
G36*
X33416D02*
X33408Y13482D01*
X33401Y13468D01*
X33395Y13452D01*
X33390Y13432D01*
X33386Y13410D01*
X33383Y13384D01*
X33379Y13324D01*
X33379Y13289D01*
X32779D01*
X32778Y13324D01*
X32771Y13410D01*
X32767Y13432D01*
X32762Y13452D01*
X32756Y13468D01*
X32749Y13482D01*
X32741Y13493D01*
X32733Y13500D01*
X33425D01*
X33416Y13493D01*
D02*
G37*
G36*
X-1192Y13367D02*
X-1124Y13311D01*
X-1054Y13262D01*
X-983Y13219D01*
X-909Y13183D01*
X-833Y13153D01*
X-756Y13130D01*
X-676Y13113D01*
X-595Y13103D01*
X-512Y13100D01*
Y12500D01*
X-595Y12497D01*
X-676Y12487D01*
X-756Y12470D01*
X-833Y12447D01*
X-909Y12417D01*
X-983Y12381D01*
X-1054Y12338D01*
X-1124Y12289D01*
X-1192Y12233D01*
X-1257Y12170D01*
X-1900Y12800D01*
X-1257Y13430D01*
X-1192Y13367D01*
D02*
G37*
G36*
X-1900Y12800D02*
X-2543Y12170D01*
X-2608Y12233D01*
X-2676Y12289D01*
X-2746Y12338D01*
X-2817Y12381D01*
X-2891Y12417D01*
X-2967Y12447D01*
X-3044Y12470D01*
X-3124Y12487D01*
X-3205Y12497D01*
X-3289Y12500D01*
Y13100D01*
X-3205Y13103D01*
X-3124Y13113D01*
X-3044Y13130D01*
X-2967Y13153D01*
X-2891Y13183D01*
X-2817Y13219D01*
X-2746Y13262D01*
X-2676Y13311D01*
X-2608Y13367D01*
X-2543Y13430D01*
X-1900Y12800D01*
D02*
G37*
G36*
X23561Y12368D02*
X23625Y12317D01*
X23692Y12271D01*
X23763Y12231D01*
X23838Y12195D01*
X23915Y12166D01*
X23997Y12141D01*
X24082Y12121D01*
X24170Y12107D01*
X24262Y12098D01*
X23303Y11280D01*
X23308Y11369D01*
X23306Y11455D01*
X23297Y11538D01*
X23281Y11618D01*
X23258Y11695D01*
X23228Y11769D01*
X23192Y11840D01*
X23148Y11908D01*
X23098Y11973D01*
X23041Y12035D01*
X23500Y12424D01*
X23561Y12368D01*
D02*
G37*
G36*
X41113Y10688D02*
X41089Y10664D01*
X41049Y10618D01*
X41033Y10597D01*
X41020Y10578D01*
X41010Y10560D01*
X41003Y10543D01*
X40998Y10527D01*
X40997Y10513D01*
X40998Y10500D01*
X40500Y10998D01*
X40513Y10996D01*
X40527Y10998D01*
X40543Y11003D01*
X40560Y11010D01*
X40578Y11020D01*
X40597Y11033D01*
X40618Y11049D01*
X40664Y11089D01*
X40688Y11113D01*
X41113Y10688D01*
D02*
G37*
G36*
X33382Y11136D02*
X33391Y11098D01*
X33406Y11065D01*
X33426Y11036D01*
X33453Y11011D01*
X33486Y10990D01*
X33525Y10974D01*
X33569Y10962D01*
X33620Y10954D01*
X33676Y10950D01*
X32481Y10982D01*
X32538Y10982D01*
X32588Y10987D01*
X32633Y10996D01*
X32672Y11009D01*
X32704Y11027D01*
X32731Y11048D01*
X32752Y11074D01*
X32767Y11105D01*
X32776Y11139D01*
X32779Y11178D01*
X33379D01*
X33382Y11136D01*
D02*
G37*
G36*
X35836Y11089D02*
X35882Y11049D01*
X35903Y11033D01*
X35922Y11020D01*
X35941Y11010D01*
X35957Y11003D01*
X35973Y10998D01*
X35987Y10996D01*
X36000Y10998D01*
X35502Y10500D01*
X35504Y10513D01*
X35502Y10527D01*
X35497Y10543D01*
X35490Y10560D01*
X35480Y10578D01*
X35467Y10597D01*
X35451Y10618D01*
X35411Y10664D01*
X35387Y10688D01*
X35812Y11113D01*
X35836Y11089D01*
D02*
G37*
G36*
X36000Y9002D02*
X35987Y9003D01*
X35973Y9002D01*
X35957Y8997D01*
X35941Y8990D01*
X35922Y8980D01*
X35903Y8967D01*
X35882Y8951D01*
X35836Y8911D01*
X35812Y8887D01*
X35387Y9312D01*
X35411Y9336D01*
X35451Y9382D01*
X35467Y9403D01*
X35480Y9422D01*
X35490Y9441D01*
X35497Y9457D01*
X35502Y9473D01*
X35504Y9487D01*
X35502Y9500D01*
X36000Y9002D01*
D02*
G37*
G36*
X37497Y9487D02*
X37498Y9473D01*
X37503Y9457D01*
X37510Y9441D01*
X37520Y9422D01*
X37533Y9403D01*
X37549Y9382D01*
X37589Y9336D01*
X37613Y9312D01*
X37188Y8887D01*
X37164Y8911D01*
X37118Y8951D01*
X37097Y8967D01*
X37078Y8980D01*
X37060Y8990D01*
X37043Y8997D01*
X37027Y9002D01*
X37013Y9003D01*
X37000Y9002D01*
X37498Y9500D01*
X37497Y9487D01*
D02*
G37*
G36*
X35540Y5310D02*
X35530Y5346D01*
X35515Y5378D01*
X35494Y5407D01*
X35468Y5432D01*
X35437Y5452D01*
X35401Y5469D01*
X35359Y5483D01*
X35312Y5492D01*
X35260Y5498D01*
X35202Y5500D01*
Y6500D01*
X35260Y6502D01*
X35312Y6508D01*
X35359Y6517D01*
X35401Y6531D01*
X35437Y6548D01*
X35468Y6569D01*
X35494Y6593D01*
X35515Y6622D01*
X35530Y6654D01*
X35540Y6690D01*
Y5310D01*
D02*
G37*
G36*
X33970Y6654D02*
X33985Y6622D01*
X34006Y6593D01*
X34032Y6569D01*
X34063Y6548D01*
X34100Y6531D01*
X34141Y6517D01*
X34188Y6508D01*
X34240Y6502D01*
X34298Y6500D01*
Y5500D01*
X34240Y5498D01*
X34188Y5492D01*
X34141Y5483D01*
X34100Y5469D01*
X34063Y5452D01*
X34032Y5432D01*
X34006Y5407D01*
X33985Y5378D01*
X33970Y5346D01*
X33960Y5310D01*
Y6690D01*
X33970Y6654D01*
D02*
G37*
G36*
X36844Y5627D02*
X36834Y5588D01*
X36826Y5530D01*
X36813Y5358D01*
X36808Y5034D01*
X37098D01*
X37041Y5032D01*
X36990Y5026D01*
X36946Y5015D01*
X36907Y5000D01*
X36874Y4981D01*
X36848Y4958D01*
X36827Y4930D01*
X36812Y4899D01*
X36805Y4870D01*
X36800Y4600D01*
X36200D01*
X36184Y4907D01*
X36173Y4930D01*
X36152Y4958D01*
X36126Y4981D01*
X36093Y5000D01*
X36054Y5015D01*
X36009Y5026D01*
X35959Y5032D01*
X35902Y5034D01*
X36178D01*
X36146Y5647D01*
X36854D01*
X36844Y5627D01*
D02*
G37*
G36*
X34400Y60388D02*
X34362Y60387D01*
X34328Y60383D01*
X34298Y60376D01*
X34272Y60367D01*
X34250Y60355D01*
X34232Y60341D01*
X34218Y60323D01*
X34208Y60304D01*
X34202Y60281D01*
X34200Y60256D01*
X33800D01*
X33798Y60281D01*
X33792Y60304D01*
X33782Y60324D01*
X33768Y60341D01*
X33751Y60356D01*
X33729Y60368D01*
X33703Y60378D01*
X33674Y60384D01*
X33640Y60388D01*
X33602Y60390D01*
X34400Y60388D01*
D02*
G37*
G36*
X26357Y54870D02*
X26274Y54952D01*
X26111Y55089D01*
X26031Y55145D01*
X25953Y55193D01*
X25876Y55231D01*
X25801Y55261D01*
X25727Y55283D01*
X25654Y55296D01*
X25583Y55300D01*
Y55700D01*
X25654Y55704D01*
X25727Y55717D01*
X25801Y55739D01*
X25876Y55769D01*
X25953Y55808D01*
X26031Y55855D01*
X26111Y55911D01*
X26191Y55975D01*
X26274Y56048D01*
X26357Y56130D01*
Y54870D01*
D02*
G37*
G36*
X27793Y38696D02*
X27853Y38654D01*
X27921Y38617D01*
X27995Y38585D01*
X28077Y38558D01*
X28166Y38536D01*
X28262Y38519D01*
X28364Y38508D01*
X28474Y38501D01*
X28591Y38500D01*
X27700Y37609D01*
X27699Y37726D01*
X27681Y37938D01*
X27664Y38034D01*
X27642Y38123D01*
X27615Y38205D01*
X27583Y38279D01*
X27546Y38347D01*
X27504Y38407D01*
X27456Y38461D01*
X27739Y38744D01*
X27793Y38696D01*
D02*
G37*
G36*
X25557Y36370D02*
X25474Y36452D01*
X25311Y36589D01*
X25231Y36645D01*
X25153Y36693D01*
X25076Y36731D01*
X25001Y36761D01*
X24927Y36783D01*
X24854Y36796D01*
X24782Y36800D01*
Y37200D01*
X24854Y37204D01*
X24927Y37217D01*
X25001Y37239D01*
X25076Y37269D01*
X25153Y37308D01*
X25231Y37355D01*
X25311Y37411D01*
X25391Y37475D01*
X25474Y37548D01*
X25557Y37630D01*
Y36370D01*
D02*
G37*
G36*
X28987Y34862D02*
X28991Y34828D01*
X28997Y34798D01*
X29007Y34772D01*
X29019Y34750D01*
X29033Y34732D01*
X29050Y34718D01*
X29070Y34708D01*
X29092Y34702D01*
X29118Y34700D01*
Y34300D01*
X29092Y34298D01*
X29070Y34292D01*
X29050Y34282D01*
X29033Y34268D01*
X29019Y34250D01*
X29007Y34228D01*
X28997Y34202D01*
X28991Y34172D01*
X28987Y34138D01*
X28986Y34100D01*
Y34900D01*
X28987Y34862D01*
D02*
G37*
G36*
X39186Y32694D02*
X39190Y32670D01*
X39197Y32647D01*
X39208Y32625D01*
X39221Y32603D01*
X39237Y32581D01*
X39256Y32560D01*
X39278Y32540D01*
X39303Y32520D01*
X39330Y32500D01*
X38638D01*
X38666Y32520D01*
X38691Y32540D01*
X38713Y32560D01*
X38732Y32581D01*
X38748Y32603D01*
X38761Y32625D01*
X38771Y32647D01*
X38778Y32670D01*
X38783Y32694D01*
X38784Y32717D01*
X39184D01*
X39186Y32694D01*
D02*
G37*
G36*
X34808Y32678D02*
X34827Y32664D01*
X34849Y32653D01*
X34872Y32645D01*
X34897Y32639D01*
X34923Y32635D01*
X34952Y32633D01*
X34982Y32634D01*
X35014Y32637D01*
X35047Y32643D01*
X34558Y32153D01*
X34563Y32187D01*
X34567Y32219D01*
X34568Y32249D01*
X34566Y32277D01*
X34562Y32304D01*
X34556Y32329D01*
X34547Y32352D01*
X34536Y32373D01*
X34523Y32393D01*
X34507Y32411D01*
X34790Y32694D01*
X34808Y32678D01*
D02*
G37*
G36*
X29082Y31200D02*
X29063Y31177D01*
X29045Y31151D01*
X29030Y31122D01*
X29017Y31090D01*
X29006Y31055D01*
X28997Y31017D01*
X28991Y30975D01*
X28987Y30931D01*
X28985Y30883D01*
X28986Y30832D01*
X28960Y31690D01*
X28962Y31684D01*
X28966Y31679D01*
X28971Y31678D01*
X28978Y31678D01*
X28987Y31682D01*
X28997Y31687D01*
X29008Y31696D01*
X29022Y31706D01*
X29052Y31735D01*
X29082Y31200D01*
D02*
G37*
G36*
X35442Y30167D02*
X35414Y30148D01*
X35392Y30127D01*
X35379Y30105D01*
X35372Y30081D01*
X35373Y30054D01*
X35381Y30027D01*
X35397Y29997D01*
X35420Y29965D01*
X35451Y29932D01*
X35124Y29693D01*
X34860Y29930D01*
X35478Y30184D01*
X35442Y30167D01*
D02*
G37*
G36*
X45998Y28476D02*
X46024Y28459D01*
X46053Y28443D01*
X46085Y28431D01*
X46120Y28420D01*
X46158Y28411D01*
X46200Y28405D01*
X46245Y28400D01*
X46344Y28399D01*
X45243Y28371D01*
X45296Y28374D01*
X45341Y28378D01*
X45378Y28385D01*
X45407Y28394D01*
X45427Y28406D01*
X45440Y28419D01*
X45445Y28435D01*
X45441Y28453D01*
X45430Y28473D01*
X45410Y28496D01*
X45976D01*
X45998Y28476D01*
D02*
G37*
G36*
X59491Y28400D02*
X59453Y28397D01*
X59411Y28386D01*
X59365Y28368D01*
X59316Y28343D01*
X59263Y28310D01*
X59206Y28270D01*
X59082Y28167D01*
X59014Y28105D01*
X58943Y28036D01*
X58236Y28743D01*
X58305Y28814D01*
X58470Y29006D01*
X58510Y29063D01*
X58543Y29116D01*
X58568Y29165D01*
X58586Y29211D01*
X58597Y29253D01*
X58600Y29291D01*
X59491Y28400D01*
D02*
G37*
G36*
X47519Y28240D02*
X47540Y28215D01*
X47560Y28193D01*
X47581Y28174D01*
X47603Y28158D01*
X47625Y28145D01*
X47647Y28134D01*
X47670Y28127D01*
X47694Y28123D01*
X47717Y28121D01*
Y27721D01*
X47694Y27720D01*
X47670Y27715D01*
X47647Y27708D01*
X47625Y27698D01*
X47603Y27685D01*
X47581Y27669D01*
X47560Y27650D01*
X47540Y27628D01*
X47519Y27603D01*
X47500Y27575D01*
Y28267D01*
X47519Y28240D01*
D02*
G37*
G36*
X50247Y28037D02*
X50266Y28019D01*
X50294Y27995D01*
X50321Y27977D01*
X50347Y27963D01*
X50371Y27954D01*
X50394Y27950D01*
X50416Y27950D01*
X50437Y27955D01*
X50456Y27965D01*
X50473Y27980D01*
X50394Y27900D01*
X50612Y27710D01*
X50696Y27648D01*
X50775Y27597D01*
X50848Y27557D01*
X50915Y27527D01*
X50976Y27508D01*
X51032Y27499D01*
X50501Y26968D01*
X50492Y27024D01*
X50473Y27086D01*
X50443Y27152D01*
X50403Y27225D01*
X50352Y27303D01*
X50290Y27387D01*
X50135Y27572D01*
X50101Y27608D01*
X50020Y27527D01*
X50035Y27544D01*
X50045Y27563D01*
X50050Y27584D01*
X50050Y27606D01*
X50046Y27629D01*
X50037Y27653D01*
X50023Y27679D01*
X50005Y27706D01*
X49984Y27731D01*
X49937Y27780D01*
X50220Y28063D01*
X50247Y28037D01*
D02*
G37*
G36*
X51970Y27654D02*
X51985Y27622D01*
X52006Y27593D01*
X52032Y27569D01*
X52063Y27548D01*
X52100Y27531D01*
X52141Y27517D01*
X52188Y27508D01*
X52240Y27502D01*
X52298Y27500D01*
Y26500D01*
X52240Y26498D01*
X52188Y26492D01*
X52141Y26483D01*
X52100Y26469D01*
X52063Y26452D01*
X52032Y26432D01*
X52006Y26407D01*
X51985Y26378D01*
X51970Y26346D01*
X51960Y26310D01*
Y27690D01*
X51970Y27654D01*
D02*
G37*
D10*
X49300Y63920D02*
Y68200D01*
X47000Y70500D02*
X49300Y68200D01*
X44500Y73000D02*
X47000Y70500D01*
X42000Y73000D02*
X44500D01*
X39500Y70500D02*
X42000Y73000D01*
X39300Y63920D02*
Y70300D01*
X24300Y69800D02*
X25000Y70500D01*
X24300Y63920D02*
Y69800D01*
X2953Y19900D02*
X4921D01*
X33880Y84870D02*
X37500Y81250D01*
X1130Y84870D02*
X33880D01*
X57200Y27000D02*
X59500Y29300D01*
X51000Y27000D02*
X57200D01*
X33000Y6000D02*
X36500D01*
X1130Y82016D02*
X3630D01*
X1130D02*
Y84870D01*
X400Y85600D02*
X1130Y84870D01*
X-5900Y85600D02*
X400D01*
X-8347Y83153D02*
X-5900Y85600D01*
X-8347Y80402D02*
Y83153D01*
X-9400Y73200D02*
Y74545D01*
X-8347Y75598D01*
D18*
X51000Y23000D02*
D03*
Y27000D02*
D03*
X40000Y6000D02*
D03*
Y10000D02*
D03*
X33000D02*
D03*
Y6000D02*
D03*
X36500Y10000D02*
D03*
Y6000D02*
D03*
D20*
X39500Y70500D02*
D03*
X35500D02*
D03*
X29000D02*
D03*
X25000D02*
D03*
X43000D02*
D03*
X47000D02*
D03*
X28000Y31000D02*
D03*
X24000D02*
D03*
X28000Y34500D02*
D03*
X24000D02*
D03*
D32*
X24224Y56704D02*
G03*
X25073Y56704I424J424D01*
G01*
X23987Y56942D02*
G03*
X23138Y56942I-424J-424D01*
G01*
X23138Y56942D02*
G03*
X23138Y56093I424J-424D01*
G01*
X23376Y55007D02*
G03*
X23376Y55856I-424J424D01*
G01*
X500Y15800D02*
X12653D01*
X-984Y17284D02*
X500Y15800D01*
X12653D02*
X14353Y17500D01*
X1644Y16600D02*
X9453D01*
X10353Y17500D01*
X10700D01*
X14353D02*
X14700D01*
X984Y17259D02*
X1644Y16600D01*
X25073Y56704D02*
X26134Y57766D01*
X23987Y56942D02*
X24224Y56704D01*
X23987Y56942D02*
X23987Y56942D01*
X23138Y56942D02*
X23138Y56942D01*
X23138Y56093D02*
X23138Y56093D01*
X23376Y55856D01*
X23376Y55856D02*
X23376Y55856D01*
X23234Y54866D02*
X23376Y55007D01*
X26134Y57766D02*
X26869Y58500D01*
X21300Y52931D02*
X23234Y54866D01*
X25000Y55500D02*
X27000D01*
X22100Y52600D02*
X25000Y55500D01*
X26869Y58500D02*
X33000D01*
X21300Y39569D02*
Y52931D01*
X23869Y37000D02*
X26200D01*
X21300Y39569D02*
X23869Y37000D01*
X22100Y39900D02*
Y52600D01*
Y39900D02*
X23200Y38800D01*
X27400D01*
X28600Y37600D01*
X34000Y63621D02*
X34300Y63920D01*
X34000Y59500D02*
Y63621D01*
X33000Y58500D02*
X34000Y59500D01*
X984Y17259D02*
Y19900D01*
X28000Y34500D02*
X37500D01*
X38984Y33016D01*
Y31268D02*
Y33016D01*
X50079Y27921D02*
X51000Y27000D01*
X46268Y27921D02*
X50079D01*
X45089Y29100D02*
X46268Y27921D01*
X36000Y29100D02*
X45089D01*
X35047Y30053D02*
X36000Y29100D01*
X35047Y30053D02*
Y31268D01*
Y32153D01*
X31200Y33600D02*
X33600D01*
X35047Y32153D01*
X28600Y31000D02*
X31200Y33600D01*
X28000Y31000D02*
X28600D01*
X-984Y17284D02*
Y19900D01*
D33*
X-4200Y14700D02*
X-4000Y14900D01*
X23749D02*
X30649Y8000D01*
X-28600Y14700D02*
X-4200D01*
X-4000Y14900D02*
X23749D01*
X-36383Y22483D02*
X-28600Y14700D01*
X-29200Y12800D02*
X10262D01*
X10562Y13100D02*
X22400D01*
X-38400Y22000D02*
X-29200Y12800D01*
X10262D02*
X10562Y13100D01*
X-38400Y22000D02*
Y39247D01*
X22400Y13100D02*
X24200Y11300D01*
Y11200D02*
Y11300D01*
X-38400Y39247D02*
Y46000D01*
X-36383Y22483D02*
Y41132D01*
X-36300Y41215D01*
Y71700D01*
X30649Y8000D02*
X34500D01*
X32901Y14379D02*
X33079Y14557D01*
X29679Y14379D02*
X32901D01*
X33079Y14557D02*
Y14732D01*
X29450Y14150D02*
X29679Y14379D01*
X32814Y72500D02*
X36214Y75900D01*
X5198Y72500D02*
X32814D01*
X6709Y73500D02*
X32400D01*
X5600Y74609D02*
X6709Y73500D01*
X4407Y71709D02*
X5198Y72500D01*
X32400Y73500D02*
X35800Y76900D01*
X5600Y74609D02*
Y76200D01*
X1907Y71709D02*
X2198Y72000D01*
X62D02*
X353Y71709D01*
X1907D01*
X2562Y72000D02*
X2853Y71709D01*
X2198Y72000D02*
X2562D01*
X-1370Y72670D02*
X-700Y72000D01*
X2853Y71709D02*
X4407D01*
X-700Y72000D02*
X62D01*
X36214Y75900D02*
X45307D01*
X51007Y70200D02*
X60100D01*
X35800Y76900D02*
X46100D01*
X51800Y71200D02*
X60514D01*
X46100Y76900D02*
X51800Y71200D01*
X45307Y75900D02*
X51007Y70200D01*
X60100D02*
X63000Y67300D01*
X44420Y81250D02*
X51567Y74103D01*
X60514Y71200D02*
X64000Y67714D01*
X59025Y74103D02*
X65000Y68128D01*
X51567Y74103D02*
X59025D01*
X37500Y81250D02*
X44420D01*
X64000Y26700D02*
Y67714D01*
X3800Y78000D02*
X5600Y76200D01*
X-8347Y78000D02*
X3800D01*
X-1370Y72670D02*
Y73984D01*
X61300Y24000D02*
X64000Y26700D01*
X57800Y20500D02*
X61300Y24000D01*
X65000Y17423D02*
Y68128D01*
X63000Y28500D02*
Y67300D01*
X60977Y13400D02*
X65000Y17423D01*
X50600Y13400D02*
X60977D01*
X45500Y15392D02*
X46508Y16400D01*
X53900D01*
X42600Y11400D02*
X45500Y14300D01*
Y15392D01*
X53900Y16400D02*
X56200Y18700D01*
Y21700D02*
X63000Y28500D01*
X56200Y18700D02*
Y21700D01*
X57800Y16500D02*
Y20500D01*
X49000Y3800D02*
Y11800D01*
X50600Y13400D01*
X47500Y2300D02*
X49000Y3800D01*
X38100Y2300D02*
X47500D01*
X36500Y3900D02*
X38100Y2300D01*
X36500Y3900D02*
Y6000D01*
X40953Y10953D02*
Y14732D01*
X40000Y10000D02*
X40953Y10953D01*
X42600Y9200D02*
Y11400D01*
X41400Y8000D02*
X42600Y9200D01*
X38500Y8000D02*
X41400D01*
X36500Y10000D02*
X38500Y8000D01*
X34500D02*
X36500Y10000D01*
X33079Y10079D02*
Y14732D01*
X35047Y11453D02*
X36500Y10000D01*
X35047Y11453D02*
Y14732D01*
D34*
X55118Y82677D02*
D03*
X-31496D02*
D03*
D35*
X-8311Y3709D02*
D03*
X-3200Y4200D02*
D03*
X-4000Y14900D02*
D03*
X-1900Y12800D02*
D03*
X24200Y11200D02*
D03*
X-36383Y41215D02*
D03*
X-38400Y39247D02*
D03*
X-36300Y71700D02*
D03*
X-38400Y46000D02*
D03*
X14500Y66500D02*
D03*
X17500D02*
D03*
X20500D02*
D03*
X-55100Y9177D02*
D03*
X30100Y11600D02*
D03*
X29450Y14150D02*
D03*
X25000Y22100D02*
D03*
X500Y4200D02*
D03*
X4700D02*
D03*
X14700Y17500D02*
D03*
X10700D02*
D03*
X-23500Y5000D02*
D03*
X-11500Y3900D02*
D03*
X-55500Y5000D02*
D03*
X41500D02*
D03*
X36500Y58000D02*
D03*
X28300Y60700D02*
D03*
X27000Y55500D02*
D03*
X64700Y10000D02*
D03*
X30500Y56000D02*
D03*
X33500D02*
D03*
X13300Y4200D02*
D03*
X8900D02*
D03*
X44500Y67000D02*
D03*
X52000Y58000D02*
D03*
X31000Y36500D02*
D03*
X58500Y37000D02*
D03*
X56000Y34000D02*
D03*
X53500Y37000D02*
D03*
X56500Y52000D02*
D03*
X52000Y53500D02*
D03*
X49000Y56500D02*
D03*
X44500Y58031D02*
D03*
X39500Y58000D02*
D03*
X39300Y43000D02*
D03*
X34900Y45000D02*
D03*
X58000Y11100D02*
D03*
X52000Y11000D02*
D03*
X28600Y37600D02*
D03*
X26200Y37000D02*
D03*
X54400Y46000D02*
D03*
X59400Y41400D02*
D03*
X45400Y46300D02*
D03*
X49300Y41600D02*
D03*
X47300Y13200D02*
D03*
X60200Y19100D02*
D03*
X29400Y4900D02*
D03*
X26100D02*
D03*
X61300Y24000D02*
D03*
X49500Y24600D02*
D03*
X52400Y24500D02*
D03*
X49200Y14700D02*
D03*
X59500Y29300D02*
D03*
X40900Y32800D02*
D03*
X36900D02*
D03*
X-10000Y21500D02*
D03*
X49000Y30000D02*
D03*
X46000Y5500D02*
D03*
X-29500Y3700D02*
D03*
X20024Y19800D02*
D03*
X20000Y17500D02*
D03*
X22000Y30500D02*
D03*
Y33000D02*
D03*
X24900Y34500D02*
D03*
X46500Y30500D02*
D03*
X39500Y73500D02*
D03*
X37000Y73000D02*
D03*
X34000Y79500D02*
D03*
X31000D02*
D03*
X24000D02*
D03*
X-8000Y68000D02*
D03*
X-11500D02*
D03*
X8500Y82000D02*
D03*
X17000Y76500D02*
D03*
X13000D02*
D03*
X11500Y66500D02*
D03*
X8500D02*
D03*
X37500Y81250D02*
D03*
X-8347Y83153D02*
D03*
X-9400Y73200D02*
D03*
X57800Y16500D02*
D03*
X53900Y16400D02*
D03*
D36*
X29732Y18079D02*
D03*
Y20047D02*
D03*
Y22016D02*
D03*
Y23984D02*
D03*
Y25953D02*
D03*
Y27921D02*
D03*
X46268D02*
D03*
Y25953D02*
D03*
Y23984D02*
D03*
Y22016D02*
D03*
Y20047D02*
D03*
Y18079D02*
D03*
D37*
X33079Y31268D02*
D03*
X35047D02*
D03*
X37016D02*
D03*
X38984D02*
D03*
X40953D02*
D03*
X42921D02*
D03*
Y14732D02*
D03*
X40953D02*
D03*
X38984D02*
D03*
X37016D02*
D03*
X35047D02*
D03*
X33079D02*
D03*
D38*
X38000Y23000D02*
D03*
D39*
X64000Y8000D02*
D03*
X52000D02*
D03*
X58000D02*
D03*
X46000D02*
D03*
D40*
X-18563Y7500D02*
D03*
X18563D02*
D03*
D41*
X24300Y43479D02*
D03*
X39300Y63920D02*
D03*
X24300D02*
D03*
X59300Y43479D02*
D03*
X54300D02*
D03*
X49300D02*
D03*
X44300D02*
D03*
X39300D02*
D03*
X34300D02*
D03*
X29300D02*
D03*
X59300Y63920D02*
D03*
X54300D02*
D03*
X49300D02*
D03*
X44300D02*
D03*
X34300D02*
D03*
X29300D02*
D03*
D42*
X-6890Y19900D02*
D03*
X-4921D02*
D03*
X-2953D02*
D03*
X-984D02*
D03*
X984D02*
D03*
X2953D02*
D03*
X4921D02*
D03*
X6890D02*
D03*
D43*
X-8347Y80402D02*
D03*
Y78000D02*
D03*
Y75598D02*
D03*
X8347D02*
D03*
Y78000D02*
D03*
Y80402D02*
D03*
D44*
X-3870Y73984D02*
D03*
X-1370D02*
D03*
X1130D02*
D03*
X3630D02*
D03*
Y82016D02*
D03*
X1130D02*
D03*
X-1370D02*
D03*
D45*
X24900Y15800D02*
Y21919D01*
X25000Y22019D02*
Y22100D01*
X24900Y21919D02*
X25000Y22019D01*
X30043Y11657D02*
X30100Y11600D01*
X24900Y15800D02*
X29043Y11657D01*
X30043D01*
X18600Y22100D02*
X25000D01*
X16400Y19900D02*
X18600Y22100D01*
X6890Y19900D02*
X16400D01*
X4921D02*
X6890D01*
M02*
