G04*
G04 #@! TF.GenerationSoftware,Altium Limited,Altium Designer,21.9.2 (33)*
G04*
G04 Layer_Color=128*
%FSLAX25Y25*%
%MOIN*%
G70*
G04*
G04 #@! TF.SameCoordinates,B52B6F2A-F109-4CFC-BBC7-116F5347FAE1*
G04*
G04*
G04 #@! TF.FilePolarity,Positive*
G04*
G01*
G75*
%ADD10C,0.00600*%
%ADD11C,0.00200*%
D10*
X-67431Y1969D02*
G03*
X-64961Y-501I2470J0D01*
G01*
X64961D02*
G03*
X67181Y1719I0J2220D01*
G01*
Y89851D02*
G03*
X62181Y94851I-5000J0D01*
G01*
X-62431D02*
G03*
X-67431Y89851I0J-5000D01*
G01*
X-67352Y19955D02*
G03*
X-67431Y19685I422J-270D01*
G01*
X-67352Y19955D02*
G03*
X-67431Y19685I422J-270D01*
G01*
X-64961Y-501D02*
X64961D01*
X67181Y1719D02*
Y89851D01*
X-62431Y94851D02*
X62181D01*
X-67431Y1969D02*
Y89851D01*
D11*
X50984Y82677D02*
X59252D01*
X55118Y78543D02*
Y86811D01*
X-35630Y82677D02*
X-27362D01*
X-31496Y78543D02*
Y86811D01*
X23700Y11200D02*
X24700D01*
X24200Y10700D02*
Y11700D01*
X-36883Y41215D02*
X-35883D01*
X-36383Y40715D02*
Y41715D01*
X-38900Y39247D02*
X-37900D01*
X-38400Y38747D02*
Y39747D01*
X-36800Y71700D02*
X-35800D01*
X-36300Y71200D02*
Y72200D01*
X-38900Y46000D02*
X-37900D01*
X-38400Y45500D02*
Y46500D01*
X14000Y66500D02*
X15000D01*
X14500Y66000D02*
Y67000D01*
X17000Y66500D02*
X18000D01*
X17500Y66000D02*
Y67000D01*
X20000Y66500D02*
X21000D01*
X20500Y66000D02*
Y67000D01*
X-55600Y9177D02*
X-54600D01*
X-55100Y8677D02*
Y9677D01*
X29600Y11600D02*
X30600D01*
X30100Y11100D02*
Y12100D01*
X28950Y14150D02*
X29950D01*
X29450Y13650D02*
Y14650D01*
X24500Y22100D02*
X25500D01*
X25000Y21600D02*
Y22600D01*
X-3700Y4200D02*
X-2700D01*
X-3200Y3700D02*
Y4700D01*
X0Y4200D02*
X1000D01*
X500Y3700D02*
Y4700D01*
X4200Y4200D02*
X5200D01*
X4700Y3700D02*
Y4700D01*
X14200Y17500D02*
X15200D01*
X14700Y17000D02*
Y18000D01*
X10200Y17500D02*
X11200D01*
X10700Y17000D02*
Y18000D01*
X-24000Y5000D02*
X-23000D01*
X-23500Y4500D02*
Y5500D01*
X-16700Y13100D02*
X-15700D01*
X-16200Y12600D02*
Y13600D01*
X-20000Y14700D02*
X-19000D01*
X-19500Y14200D02*
Y15200D01*
X-12000Y3900D02*
X-11000D01*
X-11500Y3400D02*
Y4400D01*
X-56000Y5000D02*
X-55000D01*
X-55500Y4500D02*
Y5500D01*
X41000Y5000D02*
X42000D01*
X41500Y4500D02*
Y5500D01*
X36000Y58000D02*
X37000D01*
X36500Y57500D02*
Y58500D01*
X27800Y60700D02*
X28800D01*
X28300Y60200D02*
Y61200D01*
X26500Y55500D02*
X27500D01*
X27000Y55000D02*
Y56000D01*
X64200Y10000D02*
X65200D01*
X64700Y9500D02*
Y10500D01*
X30000Y56000D02*
X31000D01*
X30500Y55500D02*
Y56500D01*
X33000Y56000D02*
X34000D01*
X33500Y55500D02*
Y56500D01*
X12800Y4200D02*
X13800D01*
X13300Y3700D02*
Y4700D01*
X8400Y4200D02*
X9400D01*
X8900Y3700D02*
Y4700D01*
X44000Y67000D02*
X45000D01*
X44500Y66500D02*
Y67500D01*
X51500Y58000D02*
X52500D01*
X52000Y57500D02*
Y58500D01*
X30500Y36500D02*
X31500D01*
X31000Y36000D02*
Y37000D01*
X58000D02*
X59000D01*
X58500Y36500D02*
Y37500D01*
X55500Y34000D02*
X56500D01*
X56000Y33500D02*
Y34500D01*
X53000Y37000D02*
X54000D01*
X53500Y36500D02*
Y37500D01*
X56000Y52000D02*
X57000D01*
X56500Y51500D02*
Y52500D01*
X51500Y53500D02*
X52500D01*
X52000Y53000D02*
Y54000D01*
X48500Y56500D02*
X49500D01*
X49000Y56000D02*
Y57000D01*
X44000Y58031D02*
X45000D01*
X44500Y57531D02*
Y58531D01*
X39000Y58000D02*
X40000D01*
X39500Y57500D02*
Y58500D01*
X38800Y43000D02*
X39800D01*
X39300Y42500D02*
Y43500D01*
X34400Y45000D02*
X35400D01*
X34900Y44500D02*
Y45500D01*
X57500Y11100D02*
X58500D01*
X58000Y10600D02*
Y11600D01*
X51500Y11000D02*
X52500D01*
X52000Y10500D02*
Y11500D01*
X28100Y37600D02*
X29100D01*
X28600Y37100D02*
Y38100D01*
X25700Y37000D02*
X26700D01*
X26200Y36500D02*
Y37500D01*
X53900Y46000D02*
X54900D01*
X54400Y45500D02*
Y46500D01*
X58900Y41400D02*
X59900D01*
X59400Y40900D02*
Y41900D01*
X44900Y46300D02*
X45900D01*
X45400Y45800D02*
Y46800D01*
X48800Y41600D02*
X49800D01*
X49300Y41100D02*
Y42100D01*
X46800Y13200D02*
X47800D01*
X47300Y12700D02*
Y13700D01*
X59700Y19100D02*
X60700D01*
X60200Y18600D02*
Y19600D01*
X28900Y4900D02*
X29900D01*
X29400Y4400D02*
Y5400D01*
X25600Y4900D02*
X26600D01*
X26100Y4400D02*
Y5400D01*
X60800Y24000D02*
X61800D01*
X61300Y23500D02*
Y24500D01*
X49000Y24600D02*
X50000D01*
X49500Y24100D02*
Y25100D01*
X51900Y24500D02*
X52900D01*
X52400Y24000D02*
Y25000D01*
X48700Y14700D02*
X49700D01*
X49200Y14200D02*
Y15200D01*
X59000Y29300D02*
X60000D01*
X59500Y28800D02*
Y29800D01*
X40400Y32800D02*
X41400D01*
X40900Y32300D02*
Y33300D01*
X36400Y32800D02*
X37400D01*
X36900Y32300D02*
Y33300D01*
X-10500Y21500D02*
X-9500D01*
X-10000Y21000D02*
Y22000D01*
X48500Y30000D02*
X49500D01*
X49000Y29500D02*
Y30500D01*
X45500Y5500D02*
X46500D01*
X46000Y5000D02*
Y6000D01*
X-8000Y4000D02*
X-7000D01*
X-7500Y3500D02*
Y4500D01*
X-30000Y3700D02*
X-29000D01*
X-29500Y3200D02*
Y4200D01*
X19524Y19800D02*
X20524D01*
X20024Y19300D02*
Y20300D01*
X19500Y17500D02*
X20500D01*
X20000Y17000D02*
Y18000D01*
X21500Y30500D02*
X22500D01*
X22000Y30000D02*
Y31000D01*
X21500Y33000D02*
X22500D01*
X22000Y32500D02*
Y33500D01*
X24400Y34500D02*
X25400D01*
X24900Y34000D02*
Y35000D01*
X46000Y30500D02*
X47000D01*
X46500Y30000D02*
Y31000D01*
X39000Y73500D02*
X40000D01*
X39500Y73000D02*
Y74000D01*
X36500Y73000D02*
X37500D01*
X37000Y72500D02*
Y73500D01*
X33500Y79500D02*
X34500D01*
X34000Y79000D02*
Y80000D01*
X30500Y79500D02*
X31500D01*
X31000Y79000D02*
Y80000D01*
X23500Y79500D02*
X24500D01*
X24000Y79000D02*
Y80000D01*
X-8500Y68000D02*
X-7500D01*
X-8000Y67500D02*
Y68500D01*
X-12000Y68000D02*
X-11000D01*
X-11500Y67500D02*
Y68500D01*
X8000Y82000D02*
X9000D01*
X8500Y81500D02*
Y82500D01*
X16500Y76500D02*
X17500D01*
X17000Y76000D02*
Y77000D01*
X12500Y76500D02*
X13500D01*
X13000Y76000D02*
Y77000D01*
X11000Y66500D02*
X12000D01*
X11500Y66000D02*
Y67000D01*
X8000Y66500D02*
X9000D01*
X8500Y66000D02*
Y67000D01*
X37000Y81250D02*
X38000D01*
X37500Y80750D02*
Y81750D01*
X-8846Y83153D02*
X-7846D01*
X-8347Y82653D02*
Y83653D01*
X-9900Y73200D02*
X-8900D01*
X-9400Y72700D02*
Y73700D01*
X57300Y16500D02*
X58300D01*
X57800Y16000D02*
Y17000D01*
X53400Y16400D02*
X54400D01*
X53900Y15900D02*
Y16900D01*
M02*
