G04*
G04 #@! TF.GenerationSoftware,Altium Limited,Altium Designer,21.9.2 (33)*
G04*
G04 Layer_Color=65535*
%FSLAX25Y25*%
%MOIN*%
G70*
G04*
G04 #@! TF.SameCoordinates,DD328E7E-2EBA-422F-A0F1-C1AB4A82772B*
G04*
G04*
G04 #@! TF.FilePolarity,Positive*
G04*
G01*
G75*
%ADD10C,0.01000*%
%ADD11C,0.00100*%
%ADD12C,0.00787*%
G36*
X18400Y80800D02*
X16600D01*
Y81150D01*
X18400D01*
Y80800D01*
D02*
G37*
G36*
X15400D02*
X13600D01*
Y81150D01*
X15400D01*
Y80800D01*
D02*
G37*
G36*
X18400Y79850D02*
X16600D01*
Y80200D01*
X18400D01*
Y79850D01*
D02*
G37*
G36*
X15400D02*
X13600D01*
Y80200D01*
X15400D01*
Y79850D01*
D02*
G37*
G36*
X-4350Y72600D02*
X-5650D01*
X-5650Y72950D01*
X-4350D01*
X-4350Y72600D01*
D02*
G37*
G36*
X3150Y71100D02*
X2800D01*
Y72900D01*
X3150D01*
Y71100D01*
D02*
G37*
G36*
X2200D02*
X1850D01*
Y72900D01*
X2200D01*
Y71100D01*
D02*
G37*
G36*
X-4350Y71050D02*
X-5650D01*
Y71400D01*
X-4350D01*
Y71050D01*
D02*
G37*
G36*
X3150Y67600D02*
X2800D01*
Y69400D01*
X3150D01*
Y67600D01*
D02*
G37*
G36*
X2200D02*
X1850D01*
Y69400D01*
X2200D01*
Y67600D01*
D02*
G37*
G36*
X40150Y82100D02*
X39800D01*
Y83900D01*
X40150D01*
Y82100D01*
D02*
G37*
G36*
X39200D02*
X38850D01*
Y83900D01*
X39200D01*
Y82100D01*
D02*
G37*
G36*
X40150Y78600D02*
X39800D01*
Y80400D01*
X40150D01*
Y78600D01*
D02*
G37*
G36*
X39200D02*
X38850D01*
Y80400D01*
X39200D01*
Y78600D01*
D02*
G37*
G36*
X40150Y75100D02*
X39800D01*
Y76900D01*
X40150D01*
Y75100D01*
D02*
G37*
G36*
X39200D02*
X38850D01*
Y76900D01*
X39200D01*
Y75100D01*
D02*
G37*
G36*
X47400Y70300D02*
X45600D01*
Y70650D01*
X47400D01*
Y70300D01*
D02*
G37*
G36*
Y69350D02*
X45600D01*
Y69700D01*
X47400D01*
Y69350D01*
D02*
G37*
G36*
X44450D02*
X44100D01*
Y70650D01*
X44450D01*
Y69350D01*
D02*
G37*
G36*
X42900Y70650D02*
Y69350D01*
X42550Y69350D01*
Y70650D01*
X42900Y70650D01*
D02*
G37*
D10*
X-42649Y47515D02*
G03*
X-42649Y47515I-394J0D01*
G01*
X-42478Y81348D02*
G03*
X-42478Y81348I-394J0D01*
G01*
X15052Y47615D02*
G03*
X15052Y47615I-394J0D01*
G01*
X-10554Y22328D02*
G03*
X-10554Y22328I-394J0D01*
G01*
X-13548Y47515D02*
G03*
X-13548Y47515I-394J0D01*
G01*
X-48751Y27633D02*
X-44800D01*
Y37747D01*
X-65483Y27633D02*
X-58790D01*
X-65483D02*
Y56767D01*
X-44814Y46653D02*
Y56767D01*
X-48751D02*
X-44814D01*
X-65483D02*
X-58790D01*
X-48581Y61466D02*
X-44629D01*
Y71579D01*
X-65312Y61466D02*
X-58620D01*
X-65312D02*
Y90600D01*
X-44643Y80486D02*
Y90600D01*
X-48580D02*
X-44643D01*
X-65312D02*
X-58620D01*
X8949Y27733D02*
X12900D01*
Y37847D01*
X-7783Y27733D02*
X-1090D01*
X-7783D02*
Y56867D01*
X12886Y46753D02*
Y56867D01*
X8949D02*
X12886D01*
X-7783D02*
X-1090D01*
X8934Y16620D02*
Y20571D01*
X-1179D02*
X8934D01*
Y-112D02*
Y6580D01*
X-20200Y-112D02*
X8934D01*
X-20200Y20557D02*
X-10086D01*
X-20200Y16620D02*
Y20557D01*
Y-112D02*
Y6580D01*
X-19651Y27633D02*
X-15700D01*
Y37747D01*
X-36383Y27633D02*
X-29690D01*
X-36383D02*
Y56767D01*
X-15714Y46653D02*
Y56767D01*
X-19651D02*
X-15714D01*
X-36383D02*
X-29690D01*
X41000Y27437D02*
X44500D01*
Y27500D02*
Y64500D01*
X24500Y27437D02*
Y33437D01*
Y27437D02*
X30000D01*
X24500Y58563D02*
Y64563D01*
X30000D01*
X41000D02*
X44500D01*
D11*
X44450Y69350D02*
Y70650D01*
X44100Y69350D02*
X44450D01*
X44100D02*
Y70650D01*
X44450D01*
X42550Y69350D02*
X42900Y69350D01*
Y70650D01*
X42550Y70650D02*
X42900Y70650D01*
X42550Y69350D02*
Y70650D01*
X47400Y70300D02*
Y70650D01*
X45600Y70300D02*
Y70650D01*
Y70300D02*
X47400D01*
X45600Y70650D02*
X47400D01*
X45600Y69350D02*
X47400D01*
X45600Y69700D02*
X47400D01*
Y69350D02*
Y69700D01*
X45600Y69350D02*
Y69700D01*
X-5650Y72950D02*
X-4350D01*
X-4350Y72600D02*
X-4350Y72950D01*
X-5650Y72600D02*
X-4350D01*
X-5650Y72950D02*
X-5650Y72600D01*
X-4350Y71050D02*
Y71400D01*
X-5650D02*
X-4350D01*
X-5650Y71050D02*
Y71400D01*
Y71050D02*
X-4350D01*
X1850Y72900D02*
X2200D01*
X1850Y71100D02*
X2200D01*
Y72900D01*
X1850Y71100D02*
Y72900D01*
X3150Y71100D02*
Y72900D01*
X2800Y71100D02*
Y72900D01*
X3150D01*
X2800Y71100D02*
X3150D01*
X1850Y69400D02*
X2200D01*
X1850Y67600D02*
X2200D01*
Y69400D01*
X1850Y67600D02*
Y69400D01*
X3150Y67600D02*
Y69400D01*
X2800Y67600D02*
Y69400D01*
X3150D01*
X2800Y67600D02*
X3150D01*
X38850Y83900D02*
X39200D01*
X38850Y82100D02*
X39200D01*
Y83900D01*
X38850Y82100D02*
Y83900D01*
X40150Y82100D02*
Y83900D01*
X39800Y82100D02*
Y83900D01*
X40150D01*
X39800Y82100D02*
X40150D01*
X38850Y80400D02*
X39200D01*
X38850Y78600D02*
X39200D01*
Y80400D01*
X38850Y78600D02*
Y80400D01*
X40150Y78600D02*
Y80400D01*
X39800Y78600D02*
Y80400D01*
X40150D01*
X39800Y78600D02*
X40150D01*
X18400Y80800D02*
Y81150D01*
X16600Y80800D02*
Y81150D01*
Y80800D02*
X18400D01*
X16600Y81150D02*
X18400D01*
X16600Y79850D02*
X18400D01*
X16600Y80200D02*
X18400D01*
Y79850D02*
Y80200D01*
X16600Y79850D02*
Y80200D01*
X15400Y80800D02*
Y81150D01*
X13600Y80800D02*
Y81150D01*
Y80800D02*
X15400D01*
X13600Y81150D02*
X15400D01*
X13600Y79850D02*
X15400D01*
X13600Y80200D02*
X15400D01*
Y79850D02*
Y80200D01*
X13600Y79850D02*
Y80200D01*
X38850Y76900D02*
X39200D01*
X38850Y75100D02*
X39200D01*
Y76900D01*
X38850Y75100D02*
Y76900D01*
X40150Y75100D02*
Y76900D01*
X39800Y75100D02*
Y76900D01*
X40150D01*
X39800Y75100D02*
X40150D01*
D12*
X31543Y73398D02*
Y76744D01*
X27213Y73398D02*
X31543D01*
Y82256D02*
Y85602D01*
X27213D02*
X31543D01*
M02*
