G04*
G04 #@! TF.GenerationSoftware,Altium Limited,Altium Designer,21.9.2 (33)*
G04*
G04 Layer_Physical_Order=2*
G04 Layer_Color=16711680*
%FSLAX25Y25*%
%MOIN*%
G70*
G04*
G04 #@! TF.SameCoordinates,6337DD35-F76D-4253-AB87-260676900378*
G04*
G04*
G04 #@! TF.FilePolarity,Positive*
G04*
G01*
G75*
%ADD10C,0.01000*%
G04:AMPARAMS|DCode=18|XSize=20mil|YSize=20mil|CornerRadius=5mil|HoleSize=0mil|Usage=FLASHONLY|Rotation=0.000|XOffset=0mil|YOffset=0mil|HoleType=Round|Shape=RoundedRectangle|*
%AMROUNDEDRECTD18*
21,1,0.02000,0.01000,0,0,0.0*
21,1,0.01000,0.02000,0,0,0.0*
1,1,0.01000,0.00500,-0.00500*
1,1,0.01000,-0.00500,-0.00500*
1,1,0.01000,-0.00500,0.00500*
1,1,0.01000,0.00500,0.00500*
%
%ADD18ROUNDEDRECTD18*%
G04:AMPARAMS|DCode=20|XSize=20mil|YSize=20mil|CornerRadius=5mil|HoleSize=0mil|Usage=FLASHONLY|Rotation=270.000|XOffset=0mil|YOffset=0mil|HoleType=Round|Shape=RoundedRectangle|*
%AMROUNDEDRECTD20*
21,1,0.02000,0.01000,0,0,270.0*
21,1,0.01000,0.02000,0,0,270.0*
1,1,0.01000,-0.00500,-0.00500*
1,1,0.01000,-0.00500,0.00500*
1,1,0.01000,0.00500,0.00500*
1,1,0.01000,0.00500,-0.00500*
%
%ADD20ROUNDEDRECTD20*%
%ADD32C,0.00400*%
%ADD33C,0.00600*%
%ADD34C,0.15748*%
%ADD35C,0.01800*%
%ADD36O,0.02756X0.00984*%
%ADD37O,0.00984X0.02756*%
%ADD38R,0.11024X0.10630*%
G04:AMPARAMS|DCode=39|XSize=39.37mil|YSize=78.74mil|CornerRadius=9.84mil|HoleSize=0mil|Usage=FLASHONLY|Rotation=0.000|XOffset=0mil|YOffset=0mil|HoleType=Round|Shape=RoundedRectangle|*
%AMROUNDEDRECTD39*
21,1,0.03937,0.05906,0,0,0.0*
21,1,0.01968,0.07874,0,0,0.0*
1,1,0.01968,0.00984,-0.02953*
1,1,0.01968,-0.00984,-0.02953*
1,1,0.01968,-0.00984,0.02953*
1,1,0.01968,0.00984,0.02953*
%
%ADD39ROUNDEDRECTD39*%
G04:AMPARAMS|DCode=40|XSize=86mil|YSize=72mil|CornerRadius=18mil|HoleSize=0mil|Usage=FLASHONLY|Rotation=270.000|XOffset=0mil|YOffset=0mil|HoleType=Round|Shape=RoundedRectangle|*
%AMROUNDEDRECTD40*
21,1,0.08600,0.03600,0,0,270.0*
21,1,0.05000,0.07200,0,0,270.0*
1,1,0.03600,-0.01800,-0.02500*
1,1,0.03600,-0.01800,0.02500*
1,1,0.03600,0.01800,0.02500*
1,1,0.03600,0.01800,-0.02500*
%
%ADD40ROUNDEDRECTD40*%
G04:AMPARAMS|DCode=41|XSize=70.87mil|YSize=27.56mil|CornerRadius=6.89mil|HoleSize=0mil|Usage=FLASHONLY|Rotation=90.000|XOffset=0mil|YOffset=0mil|HoleType=Round|Shape=RoundedRectangle|*
%AMROUNDEDRECTD41*
21,1,0.07087,0.01378,0,0,90.0*
21,1,0.05709,0.02756,0,0,90.0*
1,1,0.01378,0.00689,0.02854*
1,1,0.01378,0.00689,-0.02854*
1,1,0.01378,-0.00689,-0.02854*
1,1,0.01378,-0.00689,0.02854*
%
%ADD41ROUNDEDRECTD41*%
G04:AMPARAMS|DCode=42|XSize=50mil|YSize=10mil|CornerRadius=2.5mil|HoleSize=0mil|Usage=FLASHONLY|Rotation=90.000|XOffset=0mil|YOffset=0mil|HoleType=Round|Shape=RoundedRectangle|*
%AMROUNDEDRECTD42*
21,1,0.05000,0.00500,0,0,90.0*
21,1,0.04500,0.01000,0,0,90.0*
1,1,0.00500,0.00250,0.02250*
1,1,0.00500,0.00250,-0.02250*
1,1,0.00500,-0.00250,-0.02250*
1,1,0.00500,-0.00250,0.02250*
%
%ADD42ROUNDEDRECTD42*%
G04:AMPARAMS|DCode=43|XSize=13.78mil|YSize=31.5mil|CornerRadius=3.45mil|HoleSize=0mil|Usage=FLASHONLY|Rotation=270.000|XOffset=0mil|YOffset=0mil|HoleType=Round|Shape=RoundedRectangle|*
%AMROUNDEDRECTD43*
21,1,0.01378,0.02461,0,0,270.0*
21,1,0.00689,0.03150,0,0,270.0*
1,1,0.00689,-0.01230,-0.00345*
1,1,0.00689,-0.01230,0.00345*
1,1,0.00689,0.01230,0.00345*
1,1,0.00689,0.01230,-0.00345*
%
%ADD43ROUNDEDRECTD43*%
G04:AMPARAMS|DCode=44|XSize=13.78mil|YSize=31.5mil|CornerRadius=3.45mil|HoleSize=0mil|Usage=FLASHONLY|Rotation=180.000|XOffset=0mil|YOffset=0mil|HoleType=Round|Shape=RoundedRectangle|*
%AMROUNDEDRECTD44*
21,1,0.01378,0.02461,0,0,180.0*
21,1,0.00689,0.03150,0,0,180.0*
1,1,0.00689,-0.00345,0.01230*
1,1,0.00689,0.00345,0.01230*
1,1,0.00689,0.00345,-0.01230*
1,1,0.00689,-0.00345,-0.01230*
%
%ADD44ROUNDEDRECTD44*%
%ADD45C,0.01500*%
G36*
X62181Y94189D02*
X63303Y94041D01*
X64349Y93607D01*
X65247Y92918D01*
X65937Y92020D01*
X66370Y90974D01*
X66518Y89851D01*
X66518D01*
Y86681D01*
Y12049D01*
X66018Y11897D01*
X65982Y11951D01*
X65524Y12257D01*
X64984Y12364D01*
X63016D01*
X62476Y12257D01*
X62018Y11951D01*
X61712Y11493D01*
X61604Y10953D01*
Y5047D01*
X61712Y4507D01*
X62018Y4049D01*
X62476Y3743D01*
X63016Y3636D01*
X64984D01*
X65524Y3743D01*
X65982Y4049D01*
X66018Y4103D01*
X66518Y3951D01*
Y1719D01*
X66510D01*
X66392Y1125D01*
X66057Y623D01*
X65554Y287D01*
X64961Y169D01*
Y161D01*
X-64961D01*
Y164D01*
X-65651Y301D01*
X-66237Y692D01*
X-66628Y1278D01*
X-66765Y1969D01*
X-66768D01*
Y19088D01*
X-66768Y19090D01*
X-66753Y19223D01*
X-66660Y19685D01*
X-66660D01*
X-66638Y19955D01*
X-66692Y20229D01*
X-66768Y20342D01*
Y87468D01*
Y89851D01*
X-66768D01*
X-66620Y90974D01*
X-66187Y92020D01*
X-65497Y92918D01*
X-64599Y93607D01*
X-63553Y94041D01*
X-62431Y94189D01*
Y94189D01*
X62181D01*
Y94189D01*
D02*
G37*
%LPC*%
G36*
X400Y86518D02*
X-5900D01*
X-6251Y86448D01*
X-6549Y86249D01*
X-8344Y84453D01*
X-8605D01*
X-9083Y84256D01*
X-9449Y83890D01*
X-9646Y83412D01*
Y82895D01*
X-9449Y82417D01*
X-9264Y82233D01*
Y81505D01*
X-9577D01*
X-9867Y81447D01*
X-10114Y81283D01*
X-10278Y81037D01*
X-10336Y80746D01*
Y80057D01*
X-10278Y79767D01*
X-10114Y79520D01*
X-10053Y79480D01*
Y78922D01*
X-10114Y78881D01*
X-10278Y78635D01*
X-10336Y78345D01*
Y77656D01*
X-10278Y77365D01*
X-10114Y77119D01*
X-10053Y77078D01*
Y76520D01*
X-10114Y76480D01*
X-10278Y76233D01*
X-10336Y75943D01*
Y75254D01*
X-10278Y74963D01*
X-10240Y74907D01*
X-10248Y74896D01*
X-10318Y74545D01*
Y74121D01*
X-10502Y73936D01*
X-10700Y73459D01*
Y72941D01*
X-10502Y72464D01*
X-10136Y72098D01*
X-9659Y71900D01*
X-9141D01*
X-8664Y72098D01*
X-8298Y72464D01*
X-8100Y72941D01*
Y73459D01*
X-8298Y73936D01*
X-8482Y74121D01*
Y74165D01*
X-8152Y74495D01*
X-7116D01*
X-6826Y74553D01*
X-6579Y74717D01*
X-6415Y74963D01*
X-6357Y75254D01*
Y75943D01*
X-6415Y76233D01*
X-6579Y76480D01*
X-6532Y76970D01*
X-6226Y77286D01*
X3504D01*
X4429Y76362D01*
X4143Y75940D01*
X3974Y75974D01*
X3285D01*
X2995Y75916D01*
X2749Y75751D01*
X2584Y75505D01*
X2526Y75215D01*
Y72754D01*
X2493Y72714D01*
X2198D01*
X1925Y72659D01*
X1693Y72505D01*
X1611Y72423D01*
X648D01*
X567Y72505D01*
X335Y72659D01*
X62Y72714D01*
X-234D01*
X-267Y72754D01*
Y75215D01*
X-324Y75505D01*
X-489Y75751D01*
X-735Y75916D01*
X-1026Y75974D01*
X-1715D01*
X-2005Y75916D01*
X-2251Y75751D01*
X-2342Y75615D01*
X-2509Y75577D01*
X-2732D01*
X-2898Y75615D01*
X-2989Y75751D01*
X-3235Y75916D01*
X-3526Y75974D01*
X-4215D01*
X-4505Y75916D01*
X-4751Y75751D01*
X-4916Y75505D01*
X-4974Y75215D01*
Y72754D01*
X-4916Y72464D01*
X-4751Y72217D01*
X-4505Y72053D01*
X-4215Y71995D01*
X-3526D01*
X-3235Y72053D01*
X-2989Y72217D01*
X-2898Y72353D01*
X-2732Y72391D01*
X-2509D01*
X-2342Y72353D01*
X-2251Y72217D01*
X-2005Y72053D01*
X-1715Y71995D01*
X-1704D01*
X-1205Y71495D01*
X-973Y71341D01*
X-700Y71286D01*
X-233D01*
X-152Y71205D01*
X80Y71050D01*
X353Y70996D01*
X1907D01*
X2180Y71050D01*
X2380Y71184D01*
X2580Y71050D01*
X2853Y70996D01*
X4407D01*
X4680Y71050D01*
X4912Y71205D01*
X5493Y71786D01*
X23342D01*
X23587Y71443D01*
X23639Y71286D01*
X23582Y71000D01*
Y70346D01*
X23452Y70151D01*
X23382Y69800D01*
Y67840D01*
X23186Y67801D01*
X22826Y67560D01*
X22585Y67200D01*
X22501Y66775D01*
Y61066D01*
X22585Y60641D01*
X22826Y60281D01*
X23186Y60040D01*
X23611Y59956D01*
X24989D01*
X25414Y60040D01*
X25774Y60281D01*
X26015Y60641D01*
X26099Y61066D01*
Y66775D01*
X26015Y67200D01*
X25774Y67560D01*
X25414Y67801D01*
X25218Y67840D01*
Y69082D01*
X25500D01*
X25851Y69152D01*
X26149Y69351D01*
X26348Y69649D01*
X26418Y70000D01*
Y71000D01*
X26361Y71286D01*
X26413Y71443D01*
X26658Y71786D01*
X32814D01*
X33087Y71841D01*
X33319Y71995D01*
X36510Y75186D01*
X45011D01*
X47837Y72360D01*
X47591Y71899D01*
X47500Y71918D01*
X46880D01*
X45149Y73649D01*
X44851Y73848D01*
X44500Y73918D01*
X42000D01*
X41649Y73848D01*
X41351Y73649D01*
X39620Y71918D01*
X39000D01*
X38649Y71848D01*
X38351Y71649D01*
X38152Y71351D01*
X38082Y71000D01*
Y70000D01*
X38152Y69649D01*
X38351Y69351D01*
X38382Y69330D01*
Y67840D01*
X38186Y67801D01*
X37826Y67560D01*
X37585Y67200D01*
X37501Y66775D01*
Y61066D01*
X37585Y60641D01*
X37826Y60281D01*
X38186Y60040D01*
X38611Y59956D01*
X39989D01*
X40414Y60040D01*
X40774Y60281D01*
X41015Y60641D01*
X41099Y61066D01*
Y66775D01*
X41015Y67200D01*
X40774Y67560D01*
X40414Y67801D01*
X40218Y67840D01*
Y69126D01*
X40351Y69152D01*
X40649Y69351D01*
X40848Y69649D01*
X40918Y70000D01*
Y70620D01*
X42380Y72082D01*
X44120D01*
X45582Y70620D01*
Y70000D01*
X45652Y69649D01*
X45851Y69351D01*
X46149Y69152D01*
X46500Y69082D01*
X47120D01*
X47973Y68229D01*
X47892Y67604D01*
X47826Y67560D01*
X47585Y67200D01*
X47501Y66775D01*
Y61066D01*
X47585Y60641D01*
X47826Y60281D01*
X48186Y60040D01*
X48611Y59956D01*
X49989D01*
X50414Y60040D01*
X50774Y60281D01*
X51015Y60641D01*
X51099Y61066D01*
Y66775D01*
X51015Y67200D01*
X50774Y67560D01*
X50414Y67801D01*
X50218Y67840D01*
Y68200D01*
X50148Y68551D01*
X49949Y68849D01*
X48418Y70380D01*
Y71000D01*
X48399Y71091D01*
X48860Y71337D01*
X50502Y69695D01*
X50734Y69541D01*
X51007Y69486D01*
X59804D01*
X62286Y67004D01*
Y28796D01*
X55695Y22205D01*
X55541Y21973D01*
X55486Y21700D01*
Y18996D01*
X54181Y17691D01*
X54159Y17700D01*
X53641D01*
X53164Y17502D01*
X52798Y17136D01*
X52789Y17114D01*
X46508D01*
X46235Y17059D01*
X46004Y16905D01*
X44995Y15896D01*
X44841Y15665D01*
X44786Y15392D01*
Y14596D01*
X44331Y14140D01*
X43831Y14347D01*
Y15618D01*
X43762Y15966D01*
X43564Y16261D01*
X43269Y16458D01*
X42921Y16528D01*
X42573Y16458D01*
X42278Y16261D01*
X42222Y16177D01*
X41652D01*
X41596Y16261D01*
X41301Y16458D01*
X40953Y16528D01*
X40605Y16458D01*
X40310Y16261D01*
X40254Y16177D01*
X39683D01*
X39627Y16261D01*
X39332Y16458D01*
X38984Y16528D01*
X38636Y16458D01*
X38341Y16261D01*
X38285Y16177D01*
X37715D01*
X37659Y16261D01*
X37364Y16458D01*
X37016Y16528D01*
X36668Y16458D01*
X36373Y16261D01*
X36317Y16177D01*
X35746D01*
X35690Y16261D01*
X35395Y16458D01*
X35047Y16528D01*
X34699Y16458D01*
X34404Y16261D01*
X34348Y16177D01*
X33778D01*
X33722Y16261D01*
X33427Y16458D01*
X33079Y16528D01*
X32731Y16458D01*
X32436Y16261D01*
X32238Y15966D01*
X32169Y15618D01*
Y15093D01*
X30345D01*
X30186Y15252D01*
X29708Y15450D01*
X29191D01*
X28713Y15252D01*
X28348Y14886D01*
X28298Y14767D01*
X27708Y14650D01*
X26072Y16286D01*
Y21334D01*
X26102Y21364D01*
X26300Y21841D01*
Y22359D01*
X26102Y22836D01*
X25736Y23202D01*
X25259Y23400D01*
X24741D01*
X24434Y23272D01*
X18600D01*
X18151Y23183D01*
X17771Y22929D01*
X15914Y21072D01*
X7802D01*
Y22150D01*
X7752Y22404D01*
X7608Y22619D01*
X7393Y22762D01*
X7140Y22813D01*
X6640D01*
X6386Y22762D01*
X6188Y22630D01*
X6168Y22619D01*
X5643D01*
X5623Y22630D01*
X5425Y22762D01*
X5171Y22813D01*
X4671D01*
X4418Y22762D01*
X4219Y22630D01*
X4199Y22619D01*
X3675D01*
X3655Y22630D01*
X3456Y22762D01*
X3203Y22813D01*
X2703D01*
X2449Y22762D01*
X2251Y22630D01*
X2231Y22619D01*
X1706D01*
X1686Y22630D01*
X1488Y22762D01*
X1234Y22813D01*
X734D01*
X481Y22762D01*
X283Y22630D01*
X262Y22619D01*
X-262D01*
X-282Y22630D01*
X-481Y22762D01*
X-734Y22813D01*
X-1234D01*
X-1488Y22762D01*
X-1703Y22619D01*
X-1846Y22404D01*
X-1897Y22150D01*
Y17650D01*
X-1846Y17396D01*
X-1703Y17181D01*
X-1548Y17078D01*
X-1443Y16825D01*
X-494Y15876D01*
X-685Y15414D01*
X-18388D01*
X-18398Y15436D01*
X-18764Y15802D01*
X-19241Y16000D01*
X-19759D01*
X-20236Y15802D01*
X-20602Y15436D01*
X-20612Y15414D01*
X-28304D01*
X-35669Y22778D01*
Y40104D01*
X-35646Y40113D01*
X-35281Y40479D01*
X-35083Y40957D01*
Y41474D01*
X-35281Y41952D01*
X-35586Y42257D01*
Y70588D01*
X-35564Y70598D01*
X-35198Y70964D01*
X-35000Y71441D01*
Y71959D01*
X-35198Y72436D01*
X-35564Y72802D01*
X-36041Y73000D01*
X-36559D01*
X-37036Y72802D01*
X-37402Y72436D01*
X-37600Y71959D01*
Y71441D01*
X-37402Y70964D01*
X-37036Y70598D01*
X-37014Y70588D01*
Y47159D01*
X-37514Y46952D01*
X-37664Y47102D01*
X-38141Y47300D01*
X-38659D01*
X-39136Y47102D01*
X-39502Y46736D01*
X-39700Y46259D01*
Y45741D01*
X-39502Y45264D01*
X-39136Y44898D01*
X-39114Y44888D01*
Y40359D01*
X-39136Y40349D01*
X-39502Y39984D01*
X-39700Y39506D01*
Y38989D01*
X-39502Y38511D01*
X-39136Y38145D01*
X-39114Y38136D01*
Y22000D01*
X-39059Y21727D01*
X-38905Y21495D01*
X-30005Y12595D01*
X-29773Y12441D01*
X-29500Y12386D01*
X-17312D01*
X-17302Y12364D01*
X-16936Y11998D01*
X-16459Y11800D01*
X-15941D01*
X-15464Y11998D01*
X-15098Y12364D01*
X-15089Y12386D01*
X22104D01*
X22939Y11552D01*
X22900Y11459D01*
Y10941D01*
X23098Y10464D01*
X23464Y10098D01*
X23941Y9900D01*
X24459D01*
X24936Y10098D01*
X25302Y10464D01*
X25500Y10941D01*
Y11433D01*
X25571Y11497D01*
X25942Y11698D01*
X30145Y7495D01*
X30376Y7341D01*
X30649Y7286D01*
X31342D01*
X31587Y6943D01*
X31639Y6786D01*
X31582Y6500D01*
Y5500D01*
X31652Y5149D01*
X31851Y4851D01*
X32149Y4652D01*
X32500Y4582D01*
X33500D01*
X33851Y4652D01*
X34149Y4851D01*
X34303Y5082D01*
X35197D01*
X35351Y4851D01*
X35649Y4652D01*
X35786Y4625D01*
Y3900D01*
X35841Y3627D01*
X35995Y3395D01*
X37595Y1795D01*
X37827Y1641D01*
X38100Y1586D01*
X47500D01*
X47773Y1641D01*
X48005Y1795D01*
X49505Y3295D01*
X49659Y3527D01*
X49694Y3702D01*
X49983Y3864D01*
X50214Y3918D01*
X50476Y3743D01*
X51016Y3636D01*
X52984D01*
X53524Y3743D01*
X53982Y4049D01*
X54288Y4507D01*
X54396Y5047D01*
Y10953D01*
X54288Y11493D01*
X53982Y11951D01*
X53630Y12186D01*
X53733Y12686D01*
X56267D01*
X56370Y12186D01*
X56018Y11951D01*
X55712Y11493D01*
X55604Y10953D01*
Y5047D01*
X55712Y4507D01*
X56018Y4049D01*
X56476Y3743D01*
X57016Y3636D01*
X58984D01*
X59524Y3743D01*
X59982Y4049D01*
X60288Y4507D01*
X60396Y5047D01*
Y10953D01*
X60288Y11493D01*
X59982Y11951D01*
X59630Y12186D01*
X59733Y12686D01*
X60977D01*
X61250Y12741D01*
X61482Y12895D01*
X65505Y16918D01*
X65659Y17150D01*
X65714Y17423D01*
Y68128D01*
X65659Y68401D01*
X65505Y68633D01*
X59530Y74608D01*
X59298Y74762D01*
X59025Y74817D01*
X51862D01*
X44925Y81755D01*
X44693Y81909D01*
X44420Y81964D01*
X38612D01*
X38602Y81986D01*
X38236Y82352D01*
X37759Y82550D01*
X37498D01*
X34529Y85519D01*
X34231Y85718D01*
X33880Y85788D01*
X1510D01*
X1049Y86249D01*
X751Y86448D01*
X400Y86518D01*
D02*
G37*
G36*
X54989Y67885D02*
X53611D01*
X53186Y67801D01*
X52826Y67560D01*
X52585Y67200D01*
X52501Y66775D01*
Y61066D01*
X52585Y60641D01*
X52826Y60281D01*
X53186Y60040D01*
X53611Y59956D01*
X54989D01*
X55414Y60040D01*
X55774Y60281D01*
X56015Y60641D01*
X56099Y61066D01*
Y66775D01*
X56015Y67200D01*
X55774Y67560D01*
X55414Y67801D01*
X54989Y67885D01*
D02*
G37*
G36*
X44759Y68300D02*
X44241D01*
X43764Y68102D01*
X43531Y67869D01*
X43186Y67801D01*
X42826Y67560D01*
X42585Y67200D01*
X42501Y66775D01*
Y61066D01*
X42585Y60641D01*
X42826Y60281D01*
X43186Y60040D01*
X43611Y59956D01*
X44989D01*
X45414Y60040D01*
X45774Y60281D01*
X46015Y60641D01*
X46099Y61066D01*
Y66775D01*
X46015Y67200D01*
X45774Y67560D01*
X45637Y67651D01*
X45602Y67736D01*
X45236Y68102D01*
X44759Y68300D01*
D02*
G37*
G36*
X34989Y67885D02*
X33611D01*
X33186Y67801D01*
X32826Y67560D01*
X32585Y67200D01*
X32501Y66775D01*
Y61066D01*
X32585Y60641D01*
X32826Y60281D01*
X33038Y60140D01*
X33139Y59660D01*
X33124Y59543D01*
X32731Y59149D01*
X29271D01*
X29116Y59597D01*
X29443Y59956D01*
X29989D01*
X30414Y60040D01*
X30774Y60281D01*
X31015Y60641D01*
X31099Y61066D01*
Y66775D01*
X31015Y67200D01*
X30774Y67560D01*
X30414Y67801D01*
X29989Y67885D01*
X28611D01*
X28186Y67801D01*
X27826Y67560D01*
X27585Y67200D01*
X27501Y66775D01*
Y61739D01*
X27198Y61436D01*
X27000Y60959D01*
Y60441D01*
X27198Y59964D01*
X27512Y59649D01*
X27477Y59408D01*
X27359Y59149D01*
X26869D01*
X26409Y58959D01*
X25675Y58225D01*
X25675Y58225D01*
X24649Y57198D01*
X24446Y57401D01*
X24326Y57451D01*
X24031Y57648D01*
X23563Y57741D01*
X23094Y57648D01*
X22799Y57451D01*
X22679Y57401D01*
X22679Y57401D01*
X22441Y56999D01*
X22432Y56986D01*
X22339Y56517D01*
X22432Y56049D01*
X22607Y55787D01*
X22675Y55601D01*
X22622Y55172D01*
X20841Y53391D01*
X20651Y52931D01*
Y39569D01*
X20841Y39109D01*
X23409Y36541D01*
X23869Y36351D01*
X25062D01*
X25098Y36264D01*
X25464Y35898D01*
X25941Y35700D01*
X26284D01*
X26428Y35563D01*
X26595Y35332D01*
X26630Y35238D01*
X26582Y35000D01*
Y34000D01*
X26652Y33649D01*
X26851Y33351D01*
X27149Y33152D01*
X27500Y33082D01*
X28500D01*
X28851Y33152D01*
X29149Y33351D01*
X29348Y33649D01*
X29388Y33851D01*
X29879D01*
X30070Y33389D01*
X28958Y32276D01*
X28851Y32348D01*
X28500Y32418D01*
X27500D01*
X27149Y32348D01*
X26851Y32149D01*
X26652Y31851D01*
X26582Y31500D01*
Y30500D01*
X26652Y30149D01*
X26851Y29851D01*
X27149Y29652D01*
X27500Y29582D01*
X28500D01*
X28851Y29652D01*
X29149Y29851D01*
X29348Y30149D01*
X29418Y30500D01*
Y30899D01*
X31466Y32948D01*
X31957Y32921D01*
X32209Y32545D01*
X32228Y32451D01*
X32169Y32153D01*
Y30382D01*
X32238Y30034D01*
X32436Y29739D01*
X32731Y29542D01*
X33079Y29472D01*
X33427Y29542D01*
X33722Y29739D01*
X33778Y29822D01*
X34348D01*
X34404Y29739D01*
X34575Y29624D01*
X34588Y29594D01*
X35005Y29177D01*
X34813Y28715D01*
X32088D01*
Y17285D01*
X43912D01*
Y27875D01*
X43998Y27903D01*
X44541Y27573D01*
X44739Y27278D01*
X44822Y27222D01*
Y26652D01*
X44739Y26596D01*
X44541Y26301D01*
X44472Y25953D01*
X44541Y25605D01*
X44739Y25310D01*
X44822Y25254D01*
Y24683D01*
X44739Y24627D01*
X44541Y24332D01*
X44472Y23984D01*
X44541Y23636D01*
X44739Y23341D01*
X44822Y23285D01*
Y22715D01*
X44739Y22659D01*
X44541Y22364D01*
X44472Y22016D01*
X44541Y21668D01*
X44739Y21373D01*
X44822Y21317D01*
Y20746D01*
X44739Y20690D01*
X44541Y20395D01*
X44472Y20047D01*
X44541Y19699D01*
X44739Y19404D01*
X45034Y19207D01*
X45382Y19138D01*
X47153D01*
X47502Y19207D01*
X47797Y19404D01*
X47994Y19699D01*
X48063Y20047D01*
X47994Y20395D01*
X47797Y20690D01*
X47713Y20746D01*
Y21317D01*
X47797Y21373D01*
X47994Y21668D01*
X48063Y22016D01*
X47994Y22364D01*
X47797Y22659D01*
X47713Y22715D01*
Y23285D01*
X47797Y23341D01*
X47994Y23636D01*
X48063Y23984D01*
X47994Y24332D01*
X47797Y24627D01*
X47713Y24683D01*
Y25254D01*
X47797Y25310D01*
X47994Y25605D01*
X48063Y25953D01*
X47994Y26301D01*
X47797Y26596D01*
X47985Y27069D01*
X48192Y27272D01*
X49582D01*
Y26500D01*
X49652Y26149D01*
X49851Y25851D01*
X50149Y25652D01*
X50500Y25582D01*
X51500D01*
X51851Y25652D01*
X52149Y25851D01*
X52303Y26082D01*
X57200D01*
X57551Y26152D01*
X57849Y26351D01*
X59498Y28000D01*
X59759D01*
X60236Y28198D01*
X60602Y28564D01*
X60800Y29041D01*
Y29559D01*
X60602Y30036D01*
X60236Y30402D01*
X59759Y30600D01*
X59241D01*
X58764Y30402D01*
X58398Y30036D01*
X58200Y29559D01*
Y29298D01*
X56820Y27918D01*
X52303D01*
X52149Y28149D01*
X51851Y28348D01*
X51500Y28418D01*
X50500D01*
X50465Y28411D01*
X50079Y28571D01*
X47787D01*
X47502Y28762D01*
X47153Y28831D01*
X46277D01*
X45548Y29559D01*
X45089Y29749D01*
X44127D01*
X43804Y30250D01*
X43831Y30382D01*
Y32153D01*
X43762Y32502D01*
X43564Y32797D01*
X43269Y32994D01*
X42921Y33063D01*
X42573Y32994D01*
X42278Y32797D01*
X42081Y32502D01*
X42012Y32153D01*
Y30382D01*
X42038Y30250D01*
X41715Y29749D01*
X40190D01*
X39867Y30250D01*
X39894Y30382D01*
Y32153D01*
X39825Y32502D01*
X39634Y32787D01*
Y33016D01*
X39443Y33475D01*
X37959Y34959D01*
X37500Y35149D01*
X29388D01*
X29348Y35351D01*
X29149Y35649D01*
X28898Y35816D01*
X28883Y36005D01*
X28949Y36338D01*
X29336Y36498D01*
X29702Y36864D01*
X29900Y37341D01*
Y37859D01*
X29702Y38336D01*
X29336Y38702D01*
X28859Y38900D01*
X28341D01*
X28337Y38898D01*
X28124Y39102D01*
X28365Y39564D01*
X28611Y39515D01*
X29989D01*
X30414Y39599D01*
X30774Y39840D01*
X31015Y40200D01*
X31099Y40625D01*
Y46334D01*
X31015Y46759D01*
X30774Y47119D01*
X30414Y47360D01*
X29989Y47444D01*
X28611D01*
X28186Y47360D01*
X27826Y47119D01*
X27585Y46759D01*
X27501Y46334D01*
Y40625D01*
X27585Y40200D01*
X27797Y39883D01*
X27826Y39840D01*
X27847Y39805D01*
X27600Y39371D01*
X27533Y39394D01*
X27400Y39449D01*
X26069D01*
X25980Y39567D01*
X25847Y39949D01*
X26015Y40200D01*
X26099Y40625D01*
Y46334D01*
X26015Y46759D01*
X25774Y47119D01*
X25414Y47360D01*
X24989Y47444D01*
X23611D01*
X23249Y47372D01*
X23102Y47419D01*
X22749Y47669D01*
Y52331D01*
X25269Y54851D01*
X25862D01*
X25898Y54764D01*
X26264Y54398D01*
X26741Y54200D01*
X27259D01*
X27736Y54398D01*
X28102Y54764D01*
X28300Y55241D01*
Y55759D01*
X28102Y56236D01*
X27736Y56602D01*
X27259Y56800D01*
X26794D01*
X26685Y56935D01*
X26548Y57261D01*
X26594Y57306D01*
X26594Y57306D01*
X27138Y57851D01*
X33000D01*
X33459Y58041D01*
X34459Y59041D01*
X34649Y59500D01*
Y59956D01*
X34989D01*
X35414Y60040D01*
X35774Y60281D01*
X36015Y60641D01*
X36099Y61066D01*
Y66775D01*
X36015Y67200D01*
X35774Y67560D01*
X35414Y67801D01*
X34989Y67885D01*
D02*
G37*
G36*
X59989Y47444D02*
X58611D01*
X58186Y47360D01*
X57826Y47119D01*
X57585Y46759D01*
X57501Y46334D01*
Y40625D01*
X57585Y40200D01*
X57826Y39840D01*
X58186Y39599D01*
X58611Y39515D01*
X59989D01*
X60414Y39599D01*
X60774Y39840D01*
X61015Y40200D01*
X61099Y40625D01*
Y46334D01*
X61015Y46759D01*
X60774Y47119D01*
X60414Y47360D01*
X59989Y47444D01*
D02*
G37*
G36*
X54989D02*
X53611D01*
X53186Y47360D01*
X52826Y47119D01*
X52585Y46759D01*
X52501Y46334D01*
Y40625D01*
X52585Y40200D01*
X52826Y39840D01*
X53186Y39599D01*
X53611Y39515D01*
X54989D01*
X55414Y39599D01*
X55774Y39840D01*
X56015Y40200D01*
X56099Y40625D01*
Y46334D01*
X56015Y46759D01*
X55774Y47119D01*
X55414Y47360D01*
X54989Y47444D01*
D02*
G37*
G36*
X49989D02*
X48611D01*
X48186Y47360D01*
X47826Y47119D01*
X47585Y46759D01*
X47501Y46334D01*
Y40625D01*
X47585Y40200D01*
X47826Y39840D01*
X48186Y39599D01*
X48611Y39515D01*
X49989D01*
X50414Y39599D01*
X50774Y39840D01*
X51015Y40200D01*
X51099Y40625D01*
Y46334D01*
X51015Y46759D01*
X50774Y47119D01*
X50414Y47360D01*
X49989Y47444D01*
D02*
G37*
G36*
X45659Y47600D02*
X45141D01*
X44765Y47444D01*
X43611D01*
X43186Y47360D01*
X42826Y47119D01*
X42585Y46759D01*
X42501Y46334D01*
Y40625D01*
X42585Y40200D01*
X42826Y39840D01*
X43186Y39599D01*
X43611Y39515D01*
X44989D01*
X45414Y39599D01*
X45774Y39840D01*
X46015Y40200D01*
X46099Y40625D01*
Y45182D01*
X46136Y45198D01*
X46502Y45564D01*
X46700Y46041D01*
Y46559D01*
X46502Y47036D01*
X46136Y47402D01*
X45659Y47600D01*
D02*
G37*
G36*
X39989Y47444D02*
X38611D01*
X38186Y47360D01*
X37826Y47119D01*
X37585Y46759D01*
X37501Y46334D01*
Y40625D01*
X37585Y40200D01*
X37826Y39840D01*
X38186Y39599D01*
X38611Y39515D01*
X39989D01*
X40414Y39599D01*
X40774Y39840D01*
X41015Y40200D01*
X41099Y40625D01*
Y46334D01*
X41015Y46759D01*
X40774Y47119D01*
X40414Y47360D01*
X39989Y47444D01*
D02*
G37*
G36*
X34989D02*
X33611D01*
X33186Y47360D01*
X32826Y47119D01*
X32585Y46759D01*
X32501Y46334D01*
Y40625D01*
X32585Y40200D01*
X32826Y39840D01*
X33186Y39599D01*
X33611Y39515D01*
X34989D01*
X35414Y39599D01*
X35774Y39840D01*
X36015Y40200D01*
X36099Y40625D01*
Y44498D01*
X36200Y44741D01*
Y45259D01*
X36099Y45502D01*
Y46334D01*
X36015Y46759D01*
X35774Y47119D01*
X35414Y47360D01*
X34989Y47444D01*
D02*
G37*
G36*
X30618Y28831D02*
X28846D01*
X28498Y28762D01*
X28203Y28564D01*
X28006Y28269D01*
X27937Y27921D01*
X28006Y27573D01*
X28203Y27278D01*
X28287Y27222D01*
Y26652D01*
X28203Y26596D01*
X28006Y26301D01*
X27937Y25953D01*
X28006Y25605D01*
X28203Y25310D01*
X28287Y25254D01*
Y24683D01*
X28203Y24627D01*
X28006Y24332D01*
X27937Y23984D01*
X28006Y23636D01*
X28203Y23341D01*
X28287Y23285D01*
Y22715D01*
X28203Y22659D01*
X28006Y22364D01*
X27937Y22016D01*
X28006Y21668D01*
X28203Y21373D01*
X28287Y21317D01*
Y20746D01*
X28203Y20690D01*
X28006Y20395D01*
X27937Y20047D01*
X28006Y19699D01*
X28203Y19404D01*
X28498Y19207D01*
X28846Y19138D01*
X30618D01*
X30966Y19207D01*
X31261Y19404D01*
X31459Y19699D01*
X31528Y20047D01*
X31459Y20395D01*
X31261Y20690D01*
X31177Y20746D01*
Y21317D01*
X31261Y21373D01*
X31459Y21668D01*
X31528Y22016D01*
X31459Y22364D01*
X31261Y22659D01*
X31177Y22715D01*
Y23285D01*
X31261Y23341D01*
X31459Y23636D01*
X31528Y23984D01*
X31459Y24332D01*
X31261Y24627D01*
X31177Y24683D01*
Y25254D01*
X31261Y25310D01*
X31459Y25605D01*
X31528Y25953D01*
X31459Y26301D01*
X31261Y26596D01*
X31177Y26652D01*
Y27222D01*
X31261Y27278D01*
X31459Y27573D01*
X31528Y27921D01*
X31459Y28269D01*
X31261Y28564D01*
X30966Y28762D01*
X30618Y28831D01*
D02*
G37*
G36*
X13559Y5500D02*
X13041D01*
X12564Y5302D01*
X12198Y4936D01*
X12000Y4459D01*
Y3941D01*
X12198Y3464D01*
X12564Y3098D01*
X13041Y2900D01*
X13559D01*
X14036Y3098D01*
X14402Y3464D01*
X14600Y3941D01*
Y4459D01*
X14402Y4936D01*
X14036Y5302D01*
X13559Y5500D01*
D02*
G37*
G36*
X9159D02*
X8641D01*
X8164Y5302D01*
X7798Y4936D01*
X7600Y4459D01*
Y3941D01*
X7798Y3464D01*
X8164Y3098D01*
X8641Y2900D01*
X9159D01*
X9636Y3098D01*
X10002Y3464D01*
X10200Y3941D01*
Y4459D01*
X10002Y4936D01*
X9636Y5302D01*
X9159Y5500D01*
D02*
G37*
G36*
X-11241Y5200D02*
X-11759D01*
X-12236Y5002D01*
X-12602Y4636D01*
X-12800Y4159D01*
Y3641D01*
X-12602Y3164D01*
X-12236Y2798D01*
X-11759Y2600D01*
X-11241D01*
X-10764Y2798D01*
X-10398Y3164D01*
X-10200Y3641D01*
Y4159D01*
X-10398Y4636D01*
X-10764Y5002D01*
X-11241Y5200D01*
D02*
G37*
%LPD*%
G36*
X212Y84490D02*
Y83754D01*
X-239Y83610D01*
X-398Y83647D01*
X-489Y83783D01*
X-735Y83947D01*
X-1026Y84005D01*
X-1715D01*
X-2005Y83947D01*
X-2251Y83783D01*
X-2416Y83536D01*
X-2474Y83246D01*
Y80785D01*
X-2416Y80495D01*
X-2251Y80249D01*
X-2005Y80084D01*
X-1715Y80026D01*
X-1026D01*
X-735Y80084D01*
X-489Y80249D01*
X-398Y80385D01*
X-232Y80423D01*
X-8D01*
X158Y80385D01*
X249Y80249D01*
X495Y80084D01*
X785Y80026D01*
X1474D01*
X1765Y80084D01*
X2011Y80249D01*
X2102Y80385D01*
X2268Y80423D01*
X2492D01*
X2658Y80385D01*
X2749Y80249D01*
X2995Y80084D01*
X3285Y80026D01*
X3974D01*
X4265Y80084D01*
X4511Y80249D01*
X4676Y80495D01*
X4733Y80785D01*
Y83246D01*
X4692Y83452D01*
X4859Y83772D01*
X4999Y83952D01*
X33500D01*
X36200Y81252D01*
Y80991D01*
X36398Y80514D01*
X36764Y80148D01*
X37241Y79950D01*
X37759D01*
X38236Y80148D01*
X38602Y80514D01*
X38612Y80536D01*
X44124D01*
X46755Y77906D01*
X46436Y77517D01*
X46373Y77559D01*
X46100Y77614D01*
X35800D01*
X35527Y77559D01*
X35295Y77405D01*
X32104Y74214D01*
X10260D01*
X10108Y74714D01*
X10114Y74717D01*
X10278Y74963D01*
X10336Y75254D01*
Y75943D01*
X10278Y76233D01*
X10114Y76480D01*
X10053Y76520D01*
Y77078D01*
X10114Y77119D01*
X10278Y77365D01*
X10336Y77656D01*
Y78345D01*
X10278Y78635D01*
X10114Y78881D01*
X9867Y79046D01*
X9577Y79104D01*
X7116D01*
X6826Y79046D01*
X6579Y78881D01*
X6415Y78635D01*
X6357Y78345D01*
Y77656D01*
X6415Y77365D01*
X6488Y77255D01*
X6329Y76795D01*
X6105Y76705D01*
X4305Y78505D01*
X4073Y78659D01*
X3800Y78714D01*
X-6468D01*
X-6579Y78881D01*
X-6640Y78922D01*
Y79480D01*
X-6579Y79520D01*
X-6415Y79767D01*
X-6357Y80057D01*
Y80746D01*
X-6415Y81037D01*
X-6579Y81283D01*
X-6826Y81447D01*
X-7116Y81505D01*
X-7429D01*
Y82233D01*
X-7244Y82417D01*
X-7046Y82895D01*
Y83156D01*
X-5520Y84682D01*
X20D01*
X212Y84490D01*
D02*
G37*
G36*
X64286Y25324D02*
Y17719D01*
X60681Y14114D01*
X50600D01*
X50327Y14059D01*
X50095Y13905D01*
X48495Y12305D01*
X48341Y12073D01*
X48286Y11800D01*
Y4096D01*
X47204Y3014D01*
X38396D01*
X37266Y4143D01*
X37329Y4648D01*
X37351Y4652D01*
X37649Y4851D01*
X37848Y5149D01*
X37918Y5500D01*
Y6500D01*
X37848Y6851D01*
X37715Y7049D01*
X37966Y7492D01*
X37995Y7495D01*
X38227Y7341D01*
X38500Y7286D01*
X41400D01*
X41673Y7341D01*
X41905Y7495D01*
X43105Y8695D01*
X43259Y8927D01*
X43314Y9200D01*
Y11104D01*
X46005Y13795D01*
X46159Y14027D01*
X46214Y14300D01*
Y15096D01*
X46804Y15686D01*
X52789D01*
X52798Y15664D01*
X53164Y15298D01*
X53641Y15100D01*
X54159D01*
X54636Y15298D01*
X55002Y15664D01*
X55200Y16141D01*
Y16659D01*
X55191Y16681D01*
X56338Y17829D01*
X56874Y17657D01*
X56909Y17447D01*
X56698Y17236D01*
X56500Y16759D01*
Y16241D01*
X56698Y15764D01*
X57064Y15398D01*
X57541Y15200D01*
X58059D01*
X58536Y15398D01*
X58902Y15764D01*
X59100Y16241D01*
Y16759D01*
X58902Y17236D01*
X58536Y17602D01*
X58514Y17612D01*
Y20204D01*
X61019Y22709D01*
X61041Y22700D01*
X61559D01*
X62036Y22898D01*
X62402Y23264D01*
X62600Y23741D01*
Y24259D01*
X62591Y24281D01*
X63824Y25515D01*
X64286Y25324D01*
D02*
G37*
D10*
X49300Y63920D02*
Y68200D01*
X47000Y70500D02*
X49300Y68200D01*
X44500Y73000D02*
X47000Y70500D01*
X42000Y73000D02*
X44500D01*
X39500Y70500D02*
X42000Y73000D01*
X39300Y63920D02*
Y70300D01*
X24300Y69800D02*
X25000Y70500D01*
X24300Y63920D02*
Y69800D01*
X2953Y19900D02*
X4921D01*
X33880Y84870D02*
X37500Y81250D01*
X1130Y84870D02*
X33880D01*
X57200Y27000D02*
X59500Y29300D01*
X51000Y27000D02*
X57200D01*
X33000Y6000D02*
X36500D01*
X1130Y82016D02*
X3630D01*
X1130D02*
Y84870D01*
X400Y85600D02*
X1130Y84870D01*
X-5900Y85600D02*
X400D01*
X-8347Y83153D02*
X-5900Y85600D01*
X-8347Y80402D02*
Y83153D01*
X-9400Y73200D02*
Y74545D01*
X-8347Y75598D01*
D18*
X51000Y23000D02*
D03*
Y27000D02*
D03*
X40000Y6000D02*
D03*
Y10000D02*
D03*
X33000D02*
D03*
Y6000D02*
D03*
X36500Y10000D02*
D03*
Y6000D02*
D03*
D20*
X39500Y70500D02*
D03*
X35500D02*
D03*
X29000D02*
D03*
X25000D02*
D03*
X43000D02*
D03*
X47000D02*
D03*
X28000Y31000D02*
D03*
X24000D02*
D03*
X28000Y34500D02*
D03*
X24000D02*
D03*
D32*
X24224Y56704D02*
G03*
X25073Y56704I424J424D01*
G01*
X23987Y56942D02*
G03*
X23138Y56942I-424J-424D01*
G01*
X23138Y56942D02*
G03*
X23138Y56093I424J-424D01*
G01*
X23376Y55007D02*
G03*
X23376Y55856I-424J424D01*
G01*
X-984Y17284D02*
X700Y15600D01*
X984Y17259D02*
X1844Y16400D01*
X12800Y15600D02*
X14700Y17500D01*
X9600Y16400D02*
X10700Y17500D01*
X700Y15600D02*
X12800D01*
X1844Y16400D02*
X9600D01*
X25073Y56704D02*
X26134Y57766D01*
X23987Y56942D02*
X24224Y56704D01*
X23987Y56942D02*
X23987Y56942D01*
X23138Y56942D02*
X23138Y56942D01*
X23138Y56093D02*
X23138Y56093D01*
X23376Y55856D01*
X23376Y55856D02*
X23376Y55856D01*
X23234Y54866D02*
X23376Y55007D01*
X26134Y57766D02*
X26869Y58500D01*
X21300Y52931D02*
X23234Y54866D01*
X25000Y55500D02*
X27000D01*
X22100Y52600D02*
X25000Y55500D01*
X26869Y58500D02*
X33000D01*
X21300Y39569D02*
Y52931D01*
X23869Y37000D02*
X26200D01*
X21300Y39569D02*
X23869Y37000D01*
X22100Y39900D02*
Y52600D01*
Y39900D02*
X23200Y38800D01*
X27400D01*
X28600Y37600D01*
X34000Y63621D02*
X34300Y63920D01*
X34000Y59500D02*
Y63621D01*
X33000Y58500D02*
X34000Y59500D01*
X984Y17259D02*
Y19900D01*
X28000Y34500D02*
X37500D01*
X38984Y33016D01*
Y31268D02*
Y33016D01*
X50079Y27921D02*
X51000Y27000D01*
X46268Y27921D02*
X50079D01*
X45089Y29100D02*
X46268Y27921D01*
X36000Y29100D02*
X45089D01*
X35047Y30053D02*
X36000Y29100D01*
X35047Y30053D02*
Y31268D01*
Y32153D01*
X31200Y33600D02*
X33600D01*
X35047Y32153D01*
X28600Y31000D02*
X31200Y33600D01*
X28000Y31000D02*
X28600D01*
X-984Y17284D02*
Y19900D01*
D33*
X24200Y11200D02*
Y11300D01*
X22400Y13100D02*
X24200Y11300D01*
X-16200Y13100D02*
X22400D01*
X-29500D02*
X-16200D01*
X23949Y14700D02*
X25175Y13475D01*
X-19500Y14700D02*
X23949D01*
X-28600D02*
X-19500D01*
X25175Y13475D02*
X30649Y8000D01*
X-36383Y22483D02*
X-28600Y14700D01*
X-38400Y22000D02*
X-29500Y13100D01*
X-38400Y39247D02*
Y46000D01*
Y22000D02*
Y39247D01*
X-36383Y22483D02*
Y41132D01*
X-36300Y41215D01*
Y71700D01*
X30649Y8000D02*
X34500D01*
X32901Y14379D02*
X33079Y14557D01*
X29679Y14379D02*
X32901D01*
X33079Y14557D02*
Y14732D01*
X29450Y14150D02*
X29679Y14379D01*
X32814Y72500D02*
X36214Y75900D01*
X5198Y72500D02*
X32814D01*
X6709Y73500D02*
X32400D01*
X5600Y74609D02*
X6709Y73500D01*
X4407Y71709D02*
X5198Y72500D01*
X32400Y73500D02*
X35800Y76900D01*
X5600Y74609D02*
Y76200D01*
X1907Y71709D02*
X2198Y72000D01*
X62D02*
X353Y71709D01*
X1907D01*
X2562Y72000D02*
X2853Y71709D01*
X2198Y72000D02*
X2562D01*
X-1370Y72670D02*
X-700Y72000D01*
X2853Y71709D02*
X4407D01*
X-700Y72000D02*
X62D01*
X36214Y75900D02*
X45307D01*
X51007Y70200D02*
X60100D01*
X35800Y76900D02*
X46100D01*
X51800Y71200D02*
X60514D01*
X46100Y76900D02*
X51800Y71200D01*
X45307Y75900D02*
X51007Y70200D01*
X60100D02*
X63000Y67300D01*
X44420Y81250D02*
X51567Y74103D01*
X60514Y71200D02*
X64000Y67714D01*
X59025Y74103D02*
X65000Y68128D01*
X51567Y74103D02*
X59025D01*
X37500Y81250D02*
X44420D01*
X64000Y26700D02*
Y67714D01*
X3800Y78000D02*
X5600Y76200D01*
X-8347Y78000D02*
X3800D01*
X-1370Y72670D02*
Y73984D01*
X61300Y24000D02*
X64000Y26700D01*
X57800Y20500D02*
X61300Y24000D01*
X65000Y17423D02*
Y68128D01*
X63000Y28500D02*
Y67300D01*
X60977Y13400D02*
X65000Y17423D01*
X50600Y13400D02*
X60977D01*
X45500Y15392D02*
X46508Y16400D01*
X53900D01*
X42600Y11400D02*
X45500Y14300D01*
Y15392D01*
X53900Y16400D02*
X56200Y18700D01*
Y21700D02*
X63000Y28500D01*
X56200Y18700D02*
Y21700D01*
X57800Y16500D02*
Y20500D01*
X49000Y3800D02*
Y11800D01*
X50600Y13400D01*
X47500Y2300D02*
X49000Y3800D01*
X38100Y2300D02*
X47500D01*
X36500Y3900D02*
X38100Y2300D01*
X36500Y3900D02*
Y6000D01*
X40953Y10953D02*
Y14732D01*
X40000Y10000D02*
X40953Y10953D01*
X42600Y9200D02*
Y11400D01*
X41400Y8000D02*
X42600Y9200D01*
X38500Y8000D02*
X41400D01*
X36500Y10000D02*
X38500Y8000D01*
X34500D02*
X36500Y10000D01*
X33079Y10079D02*
Y14732D01*
X35047Y11453D02*
X36500Y10000D01*
X35047Y11453D02*
Y14732D01*
D34*
X55118Y82677D02*
D03*
X-31496D02*
D03*
D35*
X24200Y11200D02*
D03*
X-36383Y41215D02*
D03*
X-38400Y39247D02*
D03*
X-36300Y71700D02*
D03*
X-38400Y46000D02*
D03*
X14500Y66500D02*
D03*
X17500D02*
D03*
X20500D02*
D03*
X-55100Y9177D02*
D03*
X30100Y11600D02*
D03*
X29450Y14150D02*
D03*
X25000Y22100D02*
D03*
X-3200Y4200D02*
D03*
X500D02*
D03*
X4700D02*
D03*
X14700Y17500D02*
D03*
X10700D02*
D03*
X-23500Y5000D02*
D03*
X-16200Y13100D02*
D03*
X-19500Y14700D02*
D03*
X-11500Y3900D02*
D03*
X-55500Y5000D02*
D03*
X41500D02*
D03*
X36500Y58000D02*
D03*
X28300Y60700D02*
D03*
X27000Y55500D02*
D03*
X64700Y10000D02*
D03*
X30500Y56000D02*
D03*
X33500D02*
D03*
X13300Y4200D02*
D03*
X8900D02*
D03*
X44500Y67000D02*
D03*
X52000Y58000D02*
D03*
X31000Y36500D02*
D03*
X58500Y37000D02*
D03*
X56000Y34000D02*
D03*
X53500Y37000D02*
D03*
X56500Y52000D02*
D03*
X52000Y53500D02*
D03*
X49000Y56500D02*
D03*
X44500Y58031D02*
D03*
X39500Y58000D02*
D03*
X39300Y43000D02*
D03*
X34900Y45000D02*
D03*
X58000Y11100D02*
D03*
X52000Y11000D02*
D03*
X28600Y37600D02*
D03*
X26200Y37000D02*
D03*
X54400Y46000D02*
D03*
X59400Y41400D02*
D03*
X45400Y46300D02*
D03*
X49300Y41600D02*
D03*
X47300Y13200D02*
D03*
X60200Y19100D02*
D03*
X29400Y4900D02*
D03*
X26100D02*
D03*
X61300Y24000D02*
D03*
X49500Y24600D02*
D03*
X52400Y24500D02*
D03*
X49200Y14700D02*
D03*
X59500Y29300D02*
D03*
X40900Y32800D02*
D03*
X36900D02*
D03*
X-10000Y21500D02*
D03*
X49000Y30000D02*
D03*
X46000Y5500D02*
D03*
X-7500Y4000D02*
D03*
X-29500Y3700D02*
D03*
X20024Y19800D02*
D03*
X20000Y17500D02*
D03*
X22000Y30500D02*
D03*
Y33000D02*
D03*
X24900Y34500D02*
D03*
X46500Y30500D02*
D03*
X39500Y73500D02*
D03*
X37000Y73000D02*
D03*
X34000Y79500D02*
D03*
X31000D02*
D03*
X24000D02*
D03*
X-8000Y68000D02*
D03*
X-11500D02*
D03*
X8500Y82000D02*
D03*
X17000Y76500D02*
D03*
X13000D02*
D03*
X11500Y66500D02*
D03*
X8500D02*
D03*
X37500Y81250D02*
D03*
X-8347Y83153D02*
D03*
X-9400Y73200D02*
D03*
X57800Y16500D02*
D03*
X53900Y16400D02*
D03*
D36*
X29732Y18079D02*
D03*
Y20047D02*
D03*
Y22016D02*
D03*
Y23984D02*
D03*
Y25953D02*
D03*
Y27921D02*
D03*
X46268D02*
D03*
Y25953D02*
D03*
Y23984D02*
D03*
Y22016D02*
D03*
Y20047D02*
D03*
Y18079D02*
D03*
D37*
X33079Y31268D02*
D03*
X35047D02*
D03*
X37016D02*
D03*
X38984D02*
D03*
X40953D02*
D03*
X42921D02*
D03*
Y14732D02*
D03*
X40953D02*
D03*
X38984D02*
D03*
X37016D02*
D03*
X35047D02*
D03*
X33079D02*
D03*
D38*
X38000Y23000D02*
D03*
D39*
X64000Y8000D02*
D03*
X52000D02*
D03*
X58000D02*
D03*
X46000D02*
D03*
D40*
X-18563Y7500D02*
D03*
X18563D02*
D03*
D41*
X24300Y43479D02*
D03*
X39300Y63920D02*
D03*
X24300D02*
D03*
X59300Y43479D02*
D03*
X54300D02*
D03*
X49300D02*
D03*
X44300D02*
D03*
X39300D02*
D03*
X34300D02*
D03*
X29300D02*
D03*
X59300Y63920D02*
D03*
X54300D02*
D03*
X49300D02*
D03*
X44300D02*
D03*
X34300D02*
D03*
X29300D02*
D03*
D42*
X-6890Y19900D02*
D03*
X-4921D02*
D03*
X-2953D02*
D03*
X-984D02*
D03*
X984D02*
D03*
X2953D02*
D03*
X4921D02*
D03*
X6890D02*
D03*
D43*
X-8347Y80402D02*
D03*
Y78000D02*
D03*
Y75598D02*
D03*
X8347D02*
D03*
Y78000D02*
D03*
Y80402D02*
D03*
D44*
X-3870Y73984D02*
D03*
X-1370D02*
D03*
X1130D02*
D03*
X3630D02*
D03*
Y82016D02*
D03*
X1130D02*
D03*
X-1370D02*
D03*
D45*
X24900Y15800D02*
Y21919D01*
X25000Y22019D02*
Y22100D01*
X24900Y21919D02*
X25000Y22019D01*
X30043Y11657D02*
X30100Y11600D01*
X24900Y15800D02*
X29043Y11657D01*
X30043D01*
X18600Y22100D02*
X25000D01*
X16400Y19900D02*
X18600Y22100D01*
X6890Y19900D02*
X16400D01*
X4921D02*
X6890D01*
M02*
