G04*
G04 #@! TF.GenerationSoftware,Altium Limited,Altium Designer,21.9.2 (33)*
G04*
G04 Layer_Color=8388736*
%FSLAX25Y25*%
%MOIN*%
G70*
G04*
G04 #@! TF.SameCoordinates,3BF94A5F-7B75-4F2F-B618-769F4B2F0BBE*
G04*
G04*
G04 #@! TF.FilePolarity,Positive*
G04*
G01*
G75*
%ADD78C,0.00200*%
D78*
X-64600Y-5400D02*
X-57600D01*
X-64600D02*
Y-2000D01*
X-57600Y-5400D02*
Y-2000D01*
X-64600D02*
X-57600D01*
X42000Y-48550D02*
X49000D01*
X42000D02*
Y-45150D01*
X49000Y-48550D02*
Y-45150D01*
X42000D02*
X49000D01*
X42000Y-41300D02*
X49000D01*
Y-44700D02*
Y-41300D01*
X42000Y-44700D02*
Y-41300D01*
Y-44700D02*
X49000D01*
X42000Y-52400D02*
X49000D01*
X42000D02*
Y-49000D01*
X49000Y-52400D02*
Y-49000D01*
X42000D02*
X49000D01*
X58000Y-23300D02*
X65000D01*
Y-26700D02*
Y-23300D01*
X58000Y-26700D02*
Y-23300D01*
Y-26700D02*
X65000D01*
X-23500Y-20000D02*
X23500D01*
X-23500Y-45500D02*
Y-20000D01*
Y-45500D02*
X23500D01*
Y-20000D01*
X23800Y-31000D02*
Y-24000D01*
X20400Y-31000D02*
X23800D01*
X20400Y-24000D02*
X23800D01*
X20400Y-31000D02*
Y-24000D01*
X57800Y28500D02*
Y35500D01*
X61200D01*
X57800Y28500D02*
X61200D01*
Y35500D01*
X32000Y-45100D02*
X39000D01*
Y-48500D02*
Y-45100D01*
X32000Y-48500D02*
Y-45100D01*
Y-48500D02*
X39000D01*
X21800Y-59000D02*
Y-52000D01*
X25200D01*
X21800Y-59000D02*
X25200D01*
Y-52000D01*
X17200Y-59000D02*
Y-52000D01*
X20600D01*
X17200Y-59000D02*
X20600D01*
Y-52000D01*
X26000Y-63700D02*
X33000D01*
X26000D02*
Y-60300D01*
X33000Y-63700D02*
Y-60300D01*
X26000D02*
X33000D01*
X58000Y-9000D02*
X65000D01*
Y-12400D02*
Y-9000D01*
X58000Y-12400D02*
Y-9000D01*
Y-12400D02*
X65000D01*
X14800Y28500D02*
Y35500D01*
X18200D01*
X14800Y28500D02*
X18200D01*
Y35500D01*
X2300Y-6840D02*
X9300D01*
X2300D02*
Y-3440D01*
X9300Y-6840D02*
Y-3440D01*
X2300D02*
X9300D01*
X2300Y-3180D02*
X9300D01*
X2300D02*
Y220D01*
X9300Y-3180D02*
Y220D01*
X2300D02*
X9300D01*
X2300Y-10500D02*
X9300D01*
X2300D02*
Y-7100D01*
X9300Y-10500D02*
Y-7100D01*
X2300D02*
X9300D01*
X2300Y480D02*
X9300D01*
X2300D02*
Y3880D01*
X9300Y480D02*
Y3880D01*
X2300D02*
X9300D01*
X10000Y42700D02*
X17000D01*
Y39300D02*
Y42700D01*
X10000Y39300D02*
Y42700D01*
Y39300D02*
X17000D01*
X8000Y46200D02*
X15000D01*
Y42800D02*
Y46200D01*
X8000Y42800D02*
Y46200D01*
Y42800D02*
X15000D01*
X2300Y4140D02*
X9300D01*
X2300D02*
Y7540D01*
X9300Y4140D02*
Y7540D01*
X2300D02*
X9300D01*
X-6500Y31200D02*
X500D01*
Y27800D02*
Y31200D01*
X-6500Y27800D02*
Y31200D01*
Y27800D02*
X500D01*
X58000Y-12575D02*
X65000D01*
Y-15975D02*
Y-12575D01*
X58000Y-15975D02*
Y-12575D01*
Y-15975D02*
X65000D01*
X61000Y28500D02*
Y35500D01*
X64400D01*
X61000Y28500D02*
X64400D01*
Y35500D01*
X2300Y7800D02*
X9300D01*
X2300D02*
Y11200D01*
X9300Y7800D02*
Y11200D01*
X2300D02*
X9300D01*
X-64600Y19800D02*
X-57600D01*
Y16400D02*
Y19800D01*
X-64600Y16400D02*
Y19800D01*
Y16400D02*
X-57600D01*
X-64600Y24400D02*
X-57600D01*
Y21000D02*
Y24400D01*
X-64600Y21000D02*
Y24400D01*
Y21000D02*
X-57600D01*
X-35500Y-25200D02*
X-28500D01*
X-35500D02*
Y-21800D01*
X-28500Y-25200D02*
Y-21800D01*
X-35500D02*
X-28500D01*
X-64600Y-6400D02*
X-57600D01*
Y-9800D02*
Y-6400D01*
X-64600Y-9800D02*
Y-6400D01*
Y-9800D02*
X-57600D01*
X-64600Y2600D02*
X-57600D01*
Y-800D02*
Y2600D01*
X-64600Y-800D02*
Y2600D01*
Y-800D02*
X-57600D01*
X-35500Y-53200D02*
X-28500D01*
X-35500D02*
Y-49800D01*
X-28500Y-53200D02*
Y-49800D01*
X-35500D02*
X-28500D01*
X28300Y-44500D02*
Y-37500D01*
X31700D01*
X28300Y-44500D02*
X31700D01*
Y-37500D01*
X32000Y-41300D02*
X39000D01*
Y-44700D02*
Y-41300D01*
X32000Y-44700D02*
Y-41300D01*
Y-44700D02*
X39000D01*
X53800Y-48500D02*
Y-41500D01*
X50400Y-48500D02*
X53800D01*
X50400Y-41500D02*
X53800D01*
X50400Y-48500D02*
Y-41500D01*
X24500Y-34300D02*
X31500D01*
Y-37700D02*
Y-34300D01*
X24500Y-37700D02*
Y-34300D01*
Y-37700D02*
X31500D01*
X58000Y-19550D02*
X65000D01*
X58000D02*
Y-16150D01*
X65000Y-19550D02*
Y-16150D01*
X58000D02*
X65000D01*
X24500Y-16300D02*
X31500D01*
Y-19700D02*
Y-16300D01*
X24500Y-19700D02*
Y-16300D01*
Y-19700D02*
X31500D01*
X58000Y-23125D02*
X65000D01*
X58000D02*
Y-19725D01*
X65000Y-23125D02*
Y-19725D01*
X58000D02*
X65000D01*
M02*
