M48
;Layer_Color=9474304
;FILE_FORMAT=2:5
INCH,TZ
;TYPE=PLATED
T1F00S00C0.01000
%
T01
X-38100Y-50900
X-28700Y-50200
X-36000Y-39000
X-40000
Y-35000
X-36000
X-36900Y-20300
X-40900
X-44900
X-40900Y-16300
Y-12300
X-36900
X-36800Y-16300
X-32300Y-12300
X-56800Y-8100
Y-3900
X-56700Y800
X-59300Y9800
X-49200Y5000
X-49700Y17900
X-49500Y22500
X-16900Y30500
X-13000
X-8100Y30800
X-4200Y37100
X1700Y36400
X4000Y34500
X6359Y30500
X10400Y30400
X11000Y25000
X2262Y25200
X0Y24000
Y19000
X4200
X0Y13500
X1100Y5800
Y-7300
X2500Y-13000
X5200Y-12600
X8211Y-15211
X12000Y-15000
Y-18000
Y-21000
X7100Y-21200
X4900Y-27600
X-1300Y-28700
X-2900Y-26600
X500Y-30700
X-4300Y-35500
X-6800Y-33200
X-8000Y-41000
X-4000
X7000Y-40000
X12000
Y-35000
X7000
X23700Y-32700
X26000Y-34500
X31039Y-34961
X32839Y-30000
X33000Y-23400
X35900Y-17900
X31600Y-15000
X22500Y-14600
X21100Y-22800
X19000Y-20800
X15900Y-23100
X26200Y-27000
X25000Y-40000
X28800Y-43000
X30500Y-54000
X27000
X23500Y-55000
X20000
X17000Y-54500
X14500
X19500Y-61500
Y-64500
X23000
Y-61500
X37000Y-54500
X43700Y-54600
X48200Y-54500
X46378Y-51719
X46411Y-42411
X49192Y-40696
X52900Y-42600
X53500Y-39300
X59016Y-31953
X57300Y-29900
X59016Y-28016
X57300Y-26100
X56992Y-22842
X55800Y-20567
X53700Y-17600
X49921Y-16521
X47811Y-17211
X45000Y-26000
Y-29000
Y-32000
X41000
Y-29000
Y-26000
X43500Y-44500
X45000Y0
X49000
Y4000
X45000
X41000
Y0
X32000Y-1000
Y3000
Y7000
Y11000
X31600Y21200
X35000Y21000
X32700Y24100
X34000Y27000
X37516Y27984
X46000Y25000
Y22000
Y19000
X50000
Y22000
Y25000
X58000Y28400
X59000Y37000
X52200Y38700
X49327Y37810
X47358Y39658
X45390Y37810
X28800Y39500
X26100
X22000Y40000
Y43000
X14500Y44000
X7500Y43500
X-1300Y42500
X-5500Y44100
X-11000Y43900
X-12400Y41100
X-15000Y42500
X-15500Y52900
X-8000Y57000
Y60000
Y63000
X-4000
Y60000
Y57000
X0
Y60000
Y63000
X13900Y54400
X17000Y53000
X21000
X24200Y54800
X27000Y55000
X39000Y56000
X42000Y53000
X36000Y59000
X22900Y34200
X16000Y35000
X17800Y37600
X12400Y36400
X24000Y20000
Y17000
X22100Y12400
X22300Y8600
Y5300
X11000Y-2500
X55800Y-1300
X58400Y-4200
X66000Y-12000
Y-15000
Y-18000
X47353Y8547
X44700Y10500
X41000Y14000
X39000Y16000
X51700Y14500
X53521Y16421
X-18000Y-33000
X-21000
Y-36000
X-18000
X-19000Y71000
X-15000
X-11000
X-7000
X-3000
Y75000
X-7000
X-11000
X-15000
X-19000
X14000
X18000
X22000
M30
